<svg width="14" height="14" viewBox="0 0 14 14" fill="none" xmlns="http://www.w3.org/2000/svg">
    <path fillRule="evenodd" clipRule="evenodd"
        d="M3.00581 3.00483C3.27917 2.73146 3.72239 2.73146 3.99576 3.00483L7.00078 6.00986L10.0058 3.00483C10.2792 2.73146 10.7224 2.73146 10.9958 3.00483C11.2691 3.2782 11.2691 3.72141 10.9958 3.99478L7.99073 6.9998L10.9958 10.0048C11.2691 10.2782 11.2691 10.7214 10.9958 10.9948C10.7224 11.2681 10.2792 11.2681 10.0058 10.9948L7.00078 7.98975L3.99576 10.9948C3.72239 11.2681 3.27917 11.2681 3.00581 10.9948C2.73244 10.7214 2.73244 10.2782 3.00581 10.0048L6.01083 6.9998L3.00581 3.99478C2.73244 3.72141 2.73244 3.2782 3.00581 3.00483Z"
        fill="#E3395F" stroke="#E3395F" stroke-width="0.5" stroke-linecap="round" />
</svg>