<svg width="34" height="34" viewBox="0 0 66 76" fill="none" xmlns="http://www.w3.org/2000/svg" xmlns:xlink="http://www.w3.org/1999/xlink" shape-rendering="geometricPrecision">
<g id="symbol"><path d="m31.05,50.84l-7.63-4.23c-2.59-1.44-4.19-4.17-4.18-7.13l.02-8.45c0-1.24.3-2.43.82-3.5-1.74-.26-3.55.04-5.14.93l-7.62,4.24c-2.57,1.43-4.16,4.13-4.17,7.07l-.02,8.45c0,2.96,1.59,5.69,4.18,7.13l7.63,4.23c2.45,1.36,5.44,1.36,7.89,0l7.62-4.24c1.49-.83,2.63-2.09,3.35-3.57-.95-.14-1.88-.44-2.75-.92Z" fill="#f8decf"/><path d="m62.63,32.67l-7.63-4.23c-1.57-.87-3.35-1.18-5.07-.93.53,1.09.83,2.3.83,3.56l-.02,8.45c0,2.94-1.6,5.65-4.17,7.07l-7.62,4.24c-.89.49-1.84.8-2.82.94.72,1.48,1.87,2.74,3.36,3.57l7.63,4.23c2.45,1.36,5.44,1.36,7.89,0l7.62-4.24c2.57-1.43,4.16-4.13,4.17-7.07l.02-8.45c0-2.96-1.59-5.69-4.18-7.13Z" fill="#5cb19a"/><path d="m23.44,23.95l7.62-4.24c2.45-1.36,5.44-1.37,7.89,0l7.63,4.23c.92.51,1.71,1.19,2.35,1.98,1.14-1.42,1.81-3.2,1.81-5.08l.02-8.45c0-2.96-1.59-5.69-4.18-7.13l-7.63-4.23c-2.45-1.36-5.44-1.36-7.89,0l-7.62,4.24c-2.57,1.43-4.16,4.13-4.17,7.07l-.02,8.45c0,1.91.67,3.72,1.84,5.15.64-.8,1.44-1.48,2.36-2Z" fill="#5f57bc"/><path d="m62.68,14.66l-7.63-4.23c-2.45-1.36-5.44-1.36-7.89,0l-7.62,4.24c-1.65.92-2.9,2.37-3.58,4.07,1.03.12,2.04.44,2.98.96l7.63,4.23c2.59,1.44,4.19,4.17,4.18,7.13l-.02,8.45c0,1.05-.22,2.06-.59,3,1.67.2,3.39-.12,4.91-.97l7.62-4.24c2.57-1.43,4.16-4.13,4.17-7.07l.02-8.45c0-2.96-1.59-5.69-4.18-7.13Z" fill="#878bf6"/><path d="m46.56,46.59l-7.62,4.24c-2.45,1.36-5.44,1.37-7.89,0l-7.63-4.23c-1.02-.57-1.88-1.34-2.55-2.24-1.01,1.37-1.6,3.04-1.6,4.8l-.02,8.45c0,2.96,1.59,5.69,4.18,7.13l7.63,4.23c2.45,1.36,5.44,1.36,7.89,0l7.62-4.24c2.57-1.43,4.16-4.13,4.17-7.07l.02-8.45c0-1.79-.58-3.49-1.62-4.88-.84.97-1.18,1.37-2.58,2.26Z" fill="#ffce85"/><path d="m19.24,39.48l.02-8.45c0-2.94,1.6-5.65,4.17-7.07l7.62-4.24c.96-.53,2-.85,3.06-.97-.68-1.7-1.93-3.16-3.59-4.08l-7.63-4.23c-2.45-1.36-5.44-1.36-7.89,0l-7.62,4.24c-2.57,1.43-4.16,4.13-4.17,7.07l-.02,8.45c0,2.96,1.59,5.69,4.18,7.13l7.63,4.23c1.49.83,3.19,1.15,4.83.96-.38-.95-.59-1.98-.59-3.04Z" fill="#ed6a8d"/><path d="m65.28,35.01s-1.28-1.77-2.6-2.3l-7.62-4.24s-2.46-1.43-5.14-.93c0,0,.82,1.38.82,3.5l.02,8.45s0,1.48-.59,3.04c0,0,2.33.43,4.83-.96l7.63-4.23s1.87-1.03,2.64-2.34Z" fill="#5b62ff"/><path d="m4.73,34.98s1.28-1.77,2.6-2.3l7.62-4.24s2.46-1.43,5.14-.93c0,0-.82,1.38-.82,3.5l-.02,8.45s0,1.48.59,3.04c0,0-2.33.43-4.83-.96l-7.63-4.23s-1.87-1.03-2.64-2.34Z" fill="#ffaf9c"/><path d="m19.8,9.45s1.7.14,3.09.97l7.87,4.36s2.39,1.4,3.35,3.96c0,0-1.35.05-3.06.97l-7.62,4.24s-1.34.68-2.36,2c0,0-1.71-1.59-1.84-5.15v-7.92s-.06-1.88.56-3.43Z" fill="#8d27bd"/><path d="m50.22,9.43s-.9-.17-3.08,1.02l-7.01,3.6s-2.87,1.48-4.16,4.7c0,0,1.13,0,2.98.96l7.63,4.23s1.32.66,2.35,1.98c0,0,1.75-1.45,1.85-4.31l-.02-9.22s.02-1.41-.54-2.95Z" fill="#3e4299"/><path d="m19.76,60.56s1.1.04,3.08-.99l7.62-4.24s2.33-1.23,3.35-3.57c0,0-1.26-.21-2.75-.92l-7.63-4.23s-1.53-.92-2.55-2.24c0,0-1.6,1.92-1.6,4.8l-.02,8.45s0,1.8.52,2.93Z" fill="#ffbe5b"/><path d="m50.22,60.56s-1.06,0-3.11-.99l-7.54-3.8s-2.49-1.44-3.45-4c0,0,1.24-.14,2.82-.94l7.62-4.24s1.55-.94,2.58-2.26c0,0,1.53,1.76,1.64,4.63l-.04,8.7s.02,1.39-.52,2.9Z" fill="#229172"/></g>
</svg>
