<?xml version="1.0" encoding="UTF-8"?>
<svg id="logo" width="190" height="75" xmlns="http://www.w3.org/2000/svg" viewBox="0 0 336 70" shape-rendering="geometricPrecision">
<path d="m105.84,15.84c-.7-1.96-2.57-3.27-4.65-3.27h-5.62s-13.53,37.68-13.53,37.68h8.49s2.44-7.04,2.44-7.04h14.25s1.1,3.18,1.1,3.18c.8,2.31,2.98,3.86,5.42,3.86h4.46s-12.36-34.41-12.36-34.41Zm-.87,20.77h-9.77s4.88-14.11,4.88-14.11l4.88,14.11Z" fill="#202020"/>
<path d="m317.55,24.95c-.83-.9-1.85-1.68-3.05-2.3-1.62-.84-3.52-1.27-5.63-1.27-2.43,0-4.65.61-6.62,1.81-1.97,1.2-3.55,2.93-4.69,5.15-1.14,2.2-1.71,4.76-1.71,7.6s.58,5.45,1.71,7.67c1.14,2.23,2.73,3.99,4.71,5.22,1.99,1.23,4.21,1.86,6.6,1.86,2.09,0,3.98-.45,5.62-1.35,1.11-.61,2.07-1.33,2.86-2.15v2.71c0,2.27-.57,3.97-1.71,5.05-1.14,1.09-2.65,1.65-4.5,1.65-1.6,0-2.97-.35-4.08-1.03-1.08-.66-1.78-1.56-2.1-2.67l-.12-.4h-3.48c-1.65,0-3.29.9-3.99,2.18l-.03.09.03.11c.2.87.53,1.6.7,1.96l.04.06c.76,1.57,1.89,2.91,3.36,3.98,2.57,1.87,5.89,2.82,9.87,2.82,2.97,0,5.56-.61,7.67-1.82,2.12-1.22,3.74-2.89,4.8-4.96,1.05-2.06,1.59-4.42,1.59-7.03v-28.07h-3.61c-1.95,0-3.68,1.29-4.25,3.13Zm-13.55,10.98c0-1.54.32-2.89.94-4,.62-1.1,1.44-1.96,2.43-2.53,1-.57,2.1-.87,3.28-.87s2.3.3,3.33.89c1.02.59,1.85,1.45,2.45,2.55.61,1.11.92,2.48.92,4.05s-.31,2.94-.92,4.05c-.6,1.1-1.43,1.96-2.45,2.55-2.06,1.18-4.58,1.17-6.57-.02-1.01-.6-1.84-1.49-2.46-2.63-.63-1.15-.95-2.51-.95-4.05Z" fill="#202020"/>
<path d="m126.2,34.61c0-2.02.51-3.57,1.5-4.63.99-1.05,2.38-1.58,4.11-1.58s3.06.53,4.04,1.58c.98,1.06,1.48,2.62,1.48,4.63v15.64h8v-16.58c0-3.81-1.06-6.84-3.16-8.99h0c-2.1-2.16-4.89-3.25-8.28-3.25-1.78,0-3.44.36-4.94,1.06-1.13.53-2.11,1.22-2.94,2.05-.53-1.6-2.05-2.72-3.76-2.72h-4.05v28.42h8v-15.64Z" fill="#202020"/>
<path d="m169.66,24.71c-.85-.84-1.88-1.55-3.06-2.12-1.68-.8-3.47-1.21-5.32-1.21-2.42,0-4.66.61-6.65,1.81-1.99,1.2-3.58,2.93-4.72,5.15-1.14,2.21-1.71,4.76-1.71,7.6s.58,5.45,1.71,7.67c1.14,2.23,2.73,3.99,4.71,5.22,1.99,1.23,4.21,1.86,6.6,1.86,2.12,0,4.01-.44,5.63-1.3,1.19-.63,2.2-1.43,3-2.37.59,1.89,2.37,3.22,4.38,3.22h3.51V15.12h-8.1v9.59Zm-12.36,7.23c.62-1.11,1.44-1.96,2.43-2.53,1-.57,2.1-.86,3.28-.86s2.3.3,3.33.89c1.02.59,1.85,1.45,2.45,2.55.61,1.12.92,2.48.92,4.05s-.31,2.94-.92,4.05c-.6,1.1-1.43,1.96-2.45,2.55-2.06,1.18-4.58,1.17-6.57-.02-1.01-.6-1.84-1.49-2.46-2.63-.63-1.14-.94-2.51-.94-4.05s.32-2.89.94-4Z" fill="#202020"/>
<path d="m192.43,22.74c-1.09.63-2.05,1.44-2.85,2.42-.58-1.96-2.39-3.34-4.47-3.34h-3.34v28.42h8v-14.16c0-2.36.5-4.02,1.48-4.92.99-.92,2.52-1.38,4.53-1.38h2.37v-8.35h-.55c-1.93,0-3.67.44-5.18,1.31Z" fill="#202020"/>
<path d="m225.05,21.83c-1.96,0-3.69,1.31-4.26,3.16-.84-.9-1.87-1.67-3.06-2.31-1.6-.86-3.49-1.3-5.61-1.3-2.43,0-4.65.61-6.62,1.81-1.97,1.2-3.55,2.93-4.69,5.15-1.14,2.21-1.71,4.76-1.71,7.6s.58,5.45,1.71,7.67c1.14,2.23,2.72,3.99,4.69,5.22,1.97,1.23,4.19,1.86,6.58,1.86,2.12,0,4.02-.45,5.66-1.32,1.11-.6,2.07-1.31,2.87-2.14v3.01h8.05v-28.42h-3.61Zm-4.44,14.21c0,1.57-.31,2.94-.92,4.05-.61,1.1-1.43,1.96-2.46,2.55-2.06,1.18-4.58,1.17-6.57-.02-1.01-.6-1.84-1.49-2.46-2.63-.63-1.15-.95-2.51-.95-4.05s.32-2.89.94-4c.62-1.11,1.44-1.96,2.43-2.53,1-.57,2.1-.86,3.28-.86s2.3.3,3.33.89c1.03.59,1.85,1.45,2.46,2.55.61,1.12.92,2.48.92,4.05Z" fill="#202020"/>
<path d="m286.46,23.2c-2.21-1.21-4.71-1.82-7.42-1.82s-5.2.61-7.41,1.82c-2.22,1.21-3.99,2.95-5.27,5.17-1.28,2.21-1.92,4.79-1.92,7.67s.63,5.46,1.87,7.67c1.24,2.22,2.98,3.96,5.17,5.17,2.18,1.21,4.66,1.82,7.37,1.82s5.26-.61,7.49-1.82c2.23-1.21,4.03-2.95,5.34-5.16,1.31-2.21,1.98-4.8,1.98-7.68s-.65-5.46-1.92-7.67c-1.28-2.21-3.05-3.95-5.27-5.17Zm-1.01,12.84c0,1.64-.31,3.05-.92,4.18-.61,1.12-1.42,1.97-2.42,2.52-1.01.56-2.11.84-3.26.84-1.83,0-3.3-.63-4.51-1.92-1.2-1.29-1.8-3.18-1.8-5.62s.62-4.33,1.85-5.61c1.22-1.28,2.75-1.93,4.56-1.93s3.35.63,4.61,1.93c1.25,1.29,1.89,3.17,1.89,5.61Z" fill="#202020"/>
<path d="m253.47,24.95c-.83-.9-1.85-1.68-3.05-2.3-1.62-.84-3.52-1.27-5.63-1.27-2.43,0-4.65.61-6.62,1.81-1.97,1.2-3.55,2.93-4.69,5.15-1.14,2.2-1.71,4.76-1.71,7.6s.58,5.45,1.71,7.67c1.14,2.23,2.73,3.99,4.71,5.22,1.99,1.23,4.21,1.86,6.6,1.86,2.09,0,3.98-.45,5.62-1.35,1.11-.61,2.07-1.33,2.86-2.15v2.71c0,2.27-.57,3.97-1.71,5.05-1.14,1.09-2.65,1.65-4.5,1.65-1.6,0-2.97-.35-4.08-1.03-1.08-.66-1.78-1.56-2.1-2.67l-.11-.4h-3.48c-1.62,0-3.23.86-3.95,2.11l-.11.02.06.26c.21.88.53,1.6.7,1.96l.04.06c.76,1.57,1.89,2.91,3.36,3.98,2.57,1.87,5.89,2.82,9.87,2.82,2.97,0,5.56-.61,7.67-1.82,2.12-1.22,3.74-2.89,4.8-4.96,1.05-2.06,1.59-4.42,1.59-7.03v-28.07h-3.61c-1.95,0-3.68,1.29-4.25,3.13Zm-1.12,7.03c.61,1.11.92,2.48.92,4.05s-.31,2.94-.92,4.05c-.6,1.1-1.43,1.96-2.46,2.55-2.06,1.18-4.58,1.17-6.57-.02-1.01-.6-1.84-1.49-2.46-2.63-.63-1.15-.94-2.51-.94-4.05s.32-2.89.94-4c.62-1.1,1.44-1.96,2.43-2.53,1-.57,2.1-.87,3.28-.87s2.3.3,3.33.89c1.02.59,1.85,1.45,2.45,2.55Z" fill="#202020"/>
</svg>
