<?xml version="1.0" encoding="UTF-8"?>
<svg id="logo" xmlns="http://www.w3.org/2000/svg" viewBox="0 0 326 70" shape-rendering="geometricPrecision">
<g id="Andragog">
<g>
<path d="m105.84,15.84c-.7-1.96-2.57-3.27-4.65-3.27h-5.62s-13.53,37.68-13.53,37.68h8.49s2.44-7.04,2.44-7.04h14.25s1.1,3.18,1.1,3.18c.8,2.31,2.98,3.86,5.42,3.86h4.46s-12.36-34.41-12.36-34.41Zm-.87,20.77h-9.77s4.88-14.11,4.88-14.11l4.88,14.11Z" fill="#202020"/>
<g>
<path d="m317.55,24.95c-.83-.9-1.85-1.68-3.05-2.3-1.62-.84-3.52-1.27-5.63-1.27-2.43,0-4.65.61-6.62,1.81-1.97,1.2-3.55,2.93-4.69,5.15-1.14,2.2-1.71,4.76-1.71,7.6s.58,5.45,1.71,7.67c1.14,2.23,2.73,3.99,4.71,5.22,1.99,1.23,4.21,1.86,6.6,1.86,2.09,0,3.98-.45,5.62-1.35,1.11-.61,2.07-1.33,2.86-2.15v2.71c0,2.27-.57,3.97-1.71,5.05-1.14,1.09-2.65,1.65-4.5,1.65-1.6,0-2.97-.35-4.08-1.03-1.08-.66-1.78-1.56-2.1-2.67l-.12-.4h-3.48c-1.65,0-3.29.9-3.99,2.18l-.03.09.03.11c.2.87.53,1.6.7,1.96l.04.06c.76,1.57,1.89,2.91,3.36,3.98,2.57,1.87,5.89,2.82,9.87,2.82,2.97,0,5.56-.61,7.67-1.82,2.12-1.22,3.74-2.89,4.8-4.96,1.05-2.06,1.59-4.42,1.59-7.03v-28.07h-3.61c-1.95,0-3.68,1.29-4.25,3.13Zm-13.55,10.98c0-1.54.32-2.89.94-4,.62-1.1,1.44-1.96,2.43-2.53,1-.57,2.1-.87,3.28-.87s2.3.3,3.33.89c1.02.59,1.85,1.45,2.45,2.55.61,1.11.92,2.48.92,4.05s-.31,2.94-.92,4.05c-.6,1.1-1.43,1.96-2.45,2.55-2.06,1.18-4.58,1.17-6.57-.02-1.01-.6-1.84-1.49-2.46-2.63-.63-1.15-.95-2.51-.95-4.05Z" fill="#202020"/>
<path d="m126.2,34.61c0-2.02.51-3.57,1.5-4.63.99-1.05,2.38-1.58,4.11-1.58s3.06.53,4.04,1.58c.98,1.06,1.48,2.62,1.48,4.63v15.64h8v-16.58c0-3.81-1.06-6.84-3.16-8.99h0c-2.1-2.16-4.89-3.25-8.28-3.25-1.78,0-3.44.36-4.94,1.06-1.13.53-2.11,1.22-2.94,2.05-.53-1.6-2.05-2.72-3.76-2.72h-4.05v28.42h8v-15.64Z" fill="#202020"/><path d="m169.66,24.71c-.85-.84-1.88-1.55-3.06-2.12-1.68-.8-3.47-1.21-5.32-1.21-2.42,0-4.66.61-6.65,1.81-1.99,1.2-3.58,2.93-4.72,5.15-1.14,2.21-1.71,4.76-1.71,7.6s.58,5.45,1.71,7.67c1.14,2.23,2.73,3.99,4.71,5.22,1.99,1.23,4.21,1.86,6.6,1.86,2.12,0,4.01-.44,5.63-1.3,1.19-.63,2.2-1.43,3-2.37.59,1.89,2.37,3.22,4.38,3.22h3.51V15.12h-8.1v9.59Zm-12.36,7.23c.62-1.11,1.44-1.96,2.43-2.53,1-.57,2.1-.86,3.28-.86s2.3.3,3.33.89c1.02.59,1.85,1.45,2.45,2.55.61,1.12.92,2.48.92,4.05s-.31,2.94-.92,4.05c-.6,1.1-1.43,1.96-2.45,2.55-2.06,1.18-4.58,1.17-6.57-.02-1.01-.6-1.84-1.49-2.46-2.63-.63-1.14-.94-2.51-.94-4.05s.32-2.89.94-4Z" fill="#202020"/><path d="m192.43,22.74c-1.09.63-2.05,1.44-2.85,2.42-.58-1.96-2.39-3.34-4.47-3.34h-3.34v28.42h8v-14.16c0-2.36.5-4.02,1.48-4.92.99-.92,2.52-1.38,4.53-1.38h2.37v-8.35h-.55c-1.93,0-3.67.44-5.18,1.31Z" fill="#202020"/>
<path d="m225.05,21.83c-1.96,0-3.69,1.31-4.26,3.16-.84-.9-1.87-1.67-3.06-2.31-1.6-.86-3.49-1.3-5.61-1.3-2.43,0-4.65.61-6.62,1.81-1.97,1.2-3.55,2.93-4.69,5.15-1.14,2.21-1.71,4.76-1.71,7.6s.58,5.45,1.71,7.67c1.14,2.23,2.72,3.99,4.69,5.22,1.97,1.23,4.19,1.86,6.58,1.86,2.12,0,4.02-.45,5.66-1.32,1.11-.6,2.07-1.31,2.87-2.14v3.01h8.05v-28.42h-3.61Zm-4.44,14.21c0,1.57-.31,2.94-.92,4.05-.61,1.1-1.43,1.96-2.46,2.55-2.06,1.18-4.58,1.17-6.57-.02-1.01-.6-1.84-1.49-2.46-2.63-.63-1.15-.95-2.51-.95-4.05s.32-2.89.94-4c.62-1.11,1.44-1.96,2.43-2.53,1-.57,2.1-.86,3.28-.86s2.3.3,3.33.89c1.03.59,1.85,1.45,2.46,2.55.61,1.12.92,2.48.92,4.05Z" fill="#202020"/><path d="m286.46,23.2c-2.21-1.21-4.71-1.82-7.42-1.82s-5.2.61-7.41,1.82c-2.22,1.21-3.99,2.95-5.27,5.17-1.28,2.21-1.92,4.79-1.92,7.67s.63,5.46,1.87,7.67c1.24,2.22,2.98,3.96,5.17,5.17,2.18,1.21,4.66,1.82,7.37,1.82s5.26-.61,7.49-1.82c2.23-1.21,4.03-2.95,5.34-5.16,1.31-2.21,1.98-4.8,1.98-7.68s-.65-5.46-1.92-7.67c-1.28-2.21-3.05-3.95-5.27-5.17Zm-1.01,12.84c0,1.64-.31,3.05-.92,4.18-.61,1.12-1.42,1.97-2.42,2.52-1.01.56-2.11.84-3.26.84-1.83,0-3.3-.63-4.51-1.92-1.2-1.29-1.8-3.18-1.8-5.62s.62-4.33,1.85-5.61c1.22-1.28,2.75-1.93,4.56-1.93s3.35.63,4.61,1.93c1.25,1.29,1.89,3.17,1.89,5.61Z" fill="#202020"/>
<path d="m253.47,24.95c-.83-.9-1.85-1.68-3.05-2.3-1.62-.84-3.52-1.27-5.63-1.27-2.43,0-4.65.61-6.62,1.81-1.97,1.2-3.55,2.93-4.69,5.15-1.14,2.2-1.71,4.76-1.71,7.6s.58,5.45,1.71,7.67c1.14,2.23,2.73,3.99,4.71,5.22,1.99,1.23,4.21,1.86,6.6,1.86,2.09,0,3.98-.45,5.62-1.35,1.11-.61,2.07-1.33,2.86-2.15v2.71c0,2.27-.57,3.97-1.71,5.05-1.14,1.09-2.65,1.65-4.5,1.65-1.6,0-2.97-.35-4.08-1.03-1.08-.66-1.78-1.56-2.1-2.67l-.11-.4h-3.48c-1.62,0-3.23.86-3.95,2.11l-.11.02.06.26c.21.88.53,1.6.7,1.96l.04.06c.76,1.57,1.89,2.91,3.36,3.98,2.57,1.87,5.89,2.82,9.87,2.82,2.97,0,5.56-.61,7.67-1.82,2.12-1.22,3.74-2.89,4.8-4.96,1.05-2.06,1.59-4.42,1.59-7.03v-28.07h-3.61c-1.95,0-3.68,1.29-4.25,3.13Zm-1.12,7.03c.61,1.11.92,2.48.92,4.05s-.31,2.94-.92,4.05c-.6,1.1-1.43,1.96-2.46,2.55-2.06,1.18-4.58,1.17-6.57-.02-1.01-.6-1.84-1.49-2.46-2.63-.63-1.15-.94-2.51-.94-4.05s.32-2.89.94-4c.62-1.1,1.44-1.96,2.43-2.53,1-.57,2.1-.87,3.28-.87s2.3.3,3.33.89c1.02.59,1.85,1.45,2.45,2.55Z" fill="#202020"/></g></g></g><g id="symbol">
<path d="m27.92,50.84l-7.63-4.23c-2.59-1.44-4.19-4.17-4.18-7.13l.02-8.45c0-1.24.3-2.43.82-3.5-1.74-.26-3.55.04-5.14.93l-7.62,4.24C1.63,34.11.03,36.82.02,39.76L0,48.21c0,2.96,1.59,5.69,4.18,7.13l7.63,4.23c2.45,1.36,5.44,1.36,7.89,0l7.62-4.24c1.49-.83,2.63-2.09,3.35-3.57-.95-.14-1.88-.44-2.75-.92Z" fill="#f8decf"/><path d="m59.5,32.67l-7.63-4.23c-1.57-.87-3.35-1.18-5.07-.93.53,1.09.83,2.3.83,3.56l-.02,8.45c0,2.94-1.6,5.65-4.17,7.07l-7.62,4.24c-.89.49-1.84.8-2.82.94.72,1.48,1.87,2.74,3.36,3.57l7.63,4.23c2.45,1.36,5.44,1.36,7.89,0l7.62-4.24c2.57-1.43,4.16-4.13,4.17-7.07l.02-8.45c0-2.96-1.59-5.69-4.18-7.13Z" fill="#5cb19a"/><path d="m20.3,23.95l7.62-4.24c2.45-1.36,5.44-1.37,7.89,0l7.63,4.23c.92.51,1.71,1.19,2.35,1.98,1.14-1.42,1.81-3.2,1.81-5.08l.02-8.45c0-2.96-1.59-5.69-4.18-7.13l-7.63-4.23c-2.45-1.36-5.44-1.36-7.89,0l-7.62,4.24c-2.57,1.43-4.16,4.13-4.17,7.07l-.02,8.45c0,1.91.67,3.72,1.84,5.15.64-.8,1.44-1.48,2.36-2Z" fill="#5f57bc"/><path d="m59.55,14.66l-7.63-4.23c-2.45-1.36-5.44-1.36-7.89,0l-7.62,4.24c-1.65.92-2.9,2.37-3.58,4.07,1.03.12,2.04.44,2.98.96l7.63,4.23c2.59,1.44,4.19,4.17,4.18,7.13l-.02,8.45c0,1.05-.22,2.06-.59,3,1.67.2,3.39-.12,4.91-.97l7.62-4.24c2.57-1.43,4.16-4.13,4.17-7.07l.02-8.45c0-2.96-1.59-5.69-4.18-7.13Z" fill="#878bf6"/><path d="m43.43,46.59l-7.62,4.24c-2.45,1.36-5.44,1.37-7.89,0l-7.63-4.23c-1.02-.57-1.88-1.34-2.55-2.24-1.01,1.37-1.6,3.04-1.6,4.8l-.02,8.45c0,2.96,1.59,5.69,4.18,7.13l7.63,4.23c2.45,1.36,5.44,1.36,7.89,0l7.62-4.24c2.57-1.43,4.16-4.13,4.17-7.07l.02-8.45c0-1.79-.58-3.49-1.62-4.88-.84.97-1.18,1.37-2.58,2.26Z" fill="#ffce85"/>
<path d="m16.11,39.48l.02-8.45c0-2.94,1.6-5.65,4.17-7.07l7.62-4.24c.96-.53,2-.85,3.06-.97-.68-1.7-1.93-3.16-3.59-4.08l-7.63-4.23c-2.45-1.36-5.44-1.36-7.89,0l-7.62,4.24C1.68,16.1.09,18.81.08,21.75l-.02,8.45c0,2.96,1.59,5.69,4.18,7.13l7.63,4.23c1.49.83,3.19,1.15,4.83.96-.38-.95-.59-1.98-.59-3.04Z" fill="#ed6a8d"/><path d="m62.14,35.01s-1.28-1.77-2.6-2.3l-7.62-4.24s-2.46-1.43-5.14-.93c0,0,.82,1.38.82,3.5l.02,8.45s0,1.48-.59,3.04c0,0,2.33.43,4.83-.96l7.63-4.23s1.87-1.03,2.64-2.34Z" fill="#5b62ff"/><path d="m1.6,34.98s1.28-1.77,2.6-2.3l7.62-4.24s2.46-1.43,5.14-.93c0,0-.82,1.38-.82,3.5l-.02,8.45s0,1.48.59,3.04c0,0-2.33.43-4.83-.96l-7.63-4.23s-1.87-1.03-2.64-2.34Z" fill="#ffaf9c"/><path d="m16.67,9.45s1.7.14,3.09.97l7.87,4.36s2.39,1.4,3.35,3.96c0,0-1.35.05-3.06.97l-7.62,4.24s-1.34.68-2.36,2c0,0-1.71-1.59-1.84-5.15v-7.92s-.06-1.88.56-3.43Z" fill="#8d27bd"/><path d="m47.08,9.43s-.9-.17-3.08,1.02l-7.01,3.6s-2.87,1.48-4.16,4.7c0,0,1.13,0,2.98.96l7.63,4.23s1.32.66,2.35,1.98c0,0,1.75-1.45,1.85-4.31l-.02-9.22s.02-1.41-.54-2.95Z" fill="#3e4299"/>
<path d="m16.63,60.56s1.1.04,3.08-.99l7.62-4.24s2.33-1.23,3.35-3.57c0,0-1.26-.21-2.75-.92l-7.63-4.23s-1.53-.92-2.55-2.24c0,0-1.6,1.92-1.6,4.8l-.02,8.45s0,1.8.52,2.93Z" fill="#ffbe5b"/><path d="m47.09,60.56s-1.06,0-3.11-.99l-7.54-3.8s-2.49-1.44-3.45-4c0,0,1.24-.14,2.82-.94l7.62-4.24s1.55-.94,2.58-2.26c0,0,1.53,1.76,1.64,4.63l-.04,8.7s.02,1.39-.52,2.9Z" fill="#229172"/>
</g>
</svg>