<svg width="412" height="155" viewBox="0 0 412 155" fill="none" xmlns="http://www.w3.org/2000/svg">
<path d="M178.807 14.6392V14.3977C178.812 13.5691 178.885 12.9086 179.027 12.4162C179.174 11.9238 179.387 11.526 179.666 11.223C179.946 10.92 180.282 10.6454 180.675 10.3991C180.968 10.2098 181.231 10.0133 181.463 9.80966C181.695 9.60606 181.88 9.38116 182.017 9.13494C182.154 8.884 182.223 8.60464 182.223 8.29688C182.223 7.97017 182.145 7.68371 181.989 7.4375C181.832 7.19129 181.622 7.00189 181.357 6.86932C181.096 6.73674 180.807 6.67045 180.49 6.67045C180.182 6.67045 179.891 6.73911 179.616 6.87642C179.342 7.009 179.117 7.20786 178.942 7.47301C178.767 7.73343 178.672 8.05777 178.658 8.44602H175.76C175.784 7.49905 176.011 6.7178 176.442 6.10227C176.873 5.48201 177.443 5.02036 178.153 4.71733C178.864 4.40956 179.647 4.25568 180.504 4.25568C181.446 4.25568 182.28 4.41193 183.004 4.72443C183.729 5.0322 184.297 5.47964 184.709 6.06676C185.121 6.65388 185.327 7.36174 185.327 8.19034C185.327 8.74432 185.234 9.23674 185.05 9.66761C184.87 10.0937 184.616 10.4725 184.29 10.804C183.963 11.1307 183.577 11.4266 183.132 11.6918C182.758 11.9143 182.45 12.1463 182.209 12.3878C181.972 12.6293 181.795 12.9086 181.676 13.2259C181.563 13.5431 181.503 13.9337 181.499 14.3977V14.6392H178.807ZM180.213 19.1847C179.74 19.1847 179.335 19.0189 178.999 18.6875C178.667 18.3513 178.504 17.9489 178.509 17.4801C178.504 17.0161 178.667 16.6184 178.999 16.2869C179.335 15.9555 179.74 15.7898 180.213 15.7898C180.663 15.7898 181.058 15.9555 181.399 16.2869C181.74 16.6184 181.913 17.0161 181.918 17.4801C181.913 17.7926 181.83 18.0791 181.669 18.3395C181.513 18.5952 181.307 18.8011 181.051 18.9574C180.795 19.1089 180.516 19.1847 180.213 19.1847Z" fill="#51A1A6"/>
<rect y="11" width="171" height="8" rx="2" fill="#51A1A6"/>
<g clip-path="url(#clip0_17660_164148)">
<rect width="83.9957" height="91.6975" rx="4" transform="matrix(0.999231 -0.0391987 0.0412092 0.999151 193.954 51.9604)" fill="#E9E9E9"/>
<rect width="76.4171" height="64.0626" rx="2" transform="matrix(0.999231 -0.0391987 0.0412092 0.999151 198.458 56.3706)" fill="white"/>
<rect width="83.9957" height="91.6975" rx="4" transform="matrix(0.999469 -0.0325682 0.0345792 0.999402 5.51758 51.6831)" fill="#E9E9E9"/>
<rect width="76.4171" height="64.0626" rx="2" transform="matrix(0.999469 -0.0325682 0.0345792 0.999402 9.99121 56.1235)" fill="white"/>
<g clip-path="url(#clip1_17660_164148)">
<path d="M59.7003 83.0725C61.3412 83.2378 62.9836 82.7718 64.2794 82.099C65.5751 81.4262 66.4209 80.1496 65.8863 78.9363C65.6345 78.3749 65.1251 77.8811 64.5185 77.491C63.4743 76.8195 62.0406 76.4324 60.8187 76.7045C59.5192 76.9947 58.6885 77.9491 57.3907 78.243C56.6762 78.4053 55.8829 78.3497 55.1194 78.3358C54.0245 78.3157 52.9015 78.3894 51.9866 78.7814C51.0716 79.1735 50.4074 79.9448 50.5685 80.7725C50.7411 81.6628 51.811 82.394 52.9499 82.6981C54.0888 83.0022 55.2919 82.9714 56.457 82.9268C57.6222 82.8822 58.7873 82.9778 59.695 83.0699" fill="#A7A5A6"/>
</g>
<ellipse rx="13.7437" ry="13.6295" transform="matrix(0.999189 -0.0402729 0.0423687 0.999102 30.7036 84.7717)" fill="white"/>
<path d="M49.8745 74.9613L71.1394 108.205L31.4969 109.803L49.8745 74.9613Z" fill="#D3D2D2"/>
<path d="M66.8272 83.5963L82.264 107.729L53.4865 108.889L66.8272 83.5963Z" fill="#E9E9E9"/>
<ellipse rx="1.92299" ry="4.75284" transform="matrix(0.999189 -0.0402729 0.0423687 0.999102 69.4016 98.9153)" fill="white"/>
<line y1="-0.178052" x2="9.56435" y2="-0.178052" transform="matrix(0.0423686 0.999102 -0.999189 0.0402729 69.1846 98.689)" stroke="#4E4C4D" stroke-width="0.356104"/>
<line y1="-0.178052" x2="1.51858" y2="-0.178052" transform="matrix(-0.549598 0.834238 -0.839848 -0.544642 70.0889 99.0635)" stroke="#4E4C4D" stroke-width="0.356104"/>
<line y1="-0.178052" x2="1.54183" y2="-0.178052" transform="matrix(-0.720841 -0.69461 0.699211 -0.71345 69.6016 101.55)" stroke="#4E4C4D" stroke-width="0.356104"/>
<ellipse rx="1.92299" ry="3.14094" transform="matrix(0.999189 -0.0402729 0.0423687 0.999102 62.5584 103.079)" fill="white"/>
<line y1="-0.178052" x2="6.84277" y2="-0.178052" transform="matrix(0.0423686 0.999102 -0.999189 0.0402729 62.2754 101.743)" stroke="#4E4C4D" stroke-width="0.356104"/>
<line y1="-0.178052" x2="1.51858" y2="-0.178052" transform="matrix(-0.549598 0.834238 -0.839848 -0.544642 63.2002 102.147)" stroke="#4E4C4D" stroke-width="0.356104"/>
<line y1="-0.178052" x2="1.54183" y2="-0.178052" transform="matrix(-0.720841 -0.69461 0.699211 -0.71345 62.7134 104.634)" stroke="#4E4C4D" stroke-width="0.356104"/>
<path fillRule="evenodd" clipRule="evenodd" d="M46.0516 82.2625L49.9031 74.9605L54.3596 81.9276C53.3834 83.0935 51.9316 83.8601 50.2833 83.9265C48.635 83.9929 47.1232 83.3459 46.0516 82.2625Z" fill="#E9E9E9"/>
<path fillRule="evenodd" clipRule="evenodd" d="M62.9476 90.8997L66.7991 83.5977L71.2556 90.5648C70.2794 91.7307 68.8276 92.4973 67.1793 92.5637C65.531 92.6301 64.0192 91.9831 62.9476 90.8997Z" fill="#D3D2D2"/>
<g clip-path="url(#clip2_17660_164148)">
<path d="M32.6154 93.1457C34.2562 93.311 35.8987 92.845 37.1944 92.1722C38.4902 91.4994 39.3359 90.2228 38.8013 89.0096C38.5495 88.4482 38.0402 87.9543 37.4336 87.5642C36.3893 86.8927 34.9557 86.5057 33.7337 86.7777C32.4342 87.0679 31.6035 88.0223 30.3058 88.3162C29.5913 88.4785 28.7979 88.423 28.0344 88.409C26.9395 88.3889 25.8166 88.4626 24.9016 88.8547C23.9867 89.2468 23.3224 90.018 23.4835 90.8458C23.6561 91.7361 24.7261 92.4673 25.865 92.7713C27.0039 93.0754 28.2069 93.0447 29.3721 93.0001C30.5372 92.9555 31.7023 93.051 32.61 93.1432" fill="#A7A5A6"/>
</g>
<path d="M33.5978 84.9362L49.0345 109.069L20.257 110.229L33.5978 84.9362Z" fill="#E9E9E9"/>
<ellipse rx="1.92299" ry="4.75284" transform="matrix(0.999189 -0.0402729 0.0423687 0.999102 30.9729 100.464)" fill="white"/>
<line y1="-0.178052" x2="9.56435" y2="-0.178052" transform="matrix(0.0423686 0.999102 -0.999189 0.0402729 30.7563 100.238)" stroke="#4E4C4D" stroke-width="0.356104"/>
<line y1="-0.178052" x2="1.51858" y2="-0.178052" transform="matrix(-0.549598 0.834238 -0.839847 -0.544643 31.6602 100.612)" stroke="#4E4C4D" stroke-width="0.356104"/>
<line y1="-0.178052" x2="1.54183" y2="-0.178052" transform="matrix(-0.720841 -0.69461 0.699211 -0.71345 31.1733 103.098)" stroke="#4E4C4D" stroke-width="0.356104"/>
<path fillRule="evenodd" clipRule="evenodd" d="M29.7181 92.239L33.5696 84.9371L38.0261 91.9042C37.0499 93.0701 35.5981 93.8366 33.9498 93.9031C32.3015 93.9695 30.7897 93.3224 29.7181 92.239Z" fill="#D3D2D2"/>
<g clip-path="url(#clip3_17660_164148)">
<path d="M22.8629 84.2651C22.9942 84.1896 23.1163 84.1072 23.2486 84.0457C23.9757 83.7078 24.8859 84.0478 25.2197 84.7747C25.3573 85.0678 25.3965 85.3968 25.3316 85.7133C25.329 85.725 25.3263 85.7371 25.3238 85.7488C25.3152 85.7874 25.2997 85.8202 25.2551 85.8222C25.2106 85.8242 25.1926 85.7915 25.1762 85.7517C25.1221 85.6078 25.0804 85.456 25.0048 85.3239C24.5948 84.6063 23.6511 84.3663 22.941 84.7924C22.8664 84.8373 22.7961 84.8893 22.7212 84.9399C22.6822 84.8736 22.6466 84.8054 22.6038 84.7418C22.1414 84.054 21.2527 83.8611 20.5443 84.2947C20.3964 84.3863 20.2662 84.5034 20.1599 84.6405C20.1322 84.6756 20.1037 84.7099 20.0533 84.6848C20.0029 84.6598 20.0129 84.6158 20.0226 84.573C20.1879 83.8384 20.8596 83.341 21.6161 83.4063C22.1575 83.4534 22.5592 83.7245 22.823 84.1961C22.8338 84.2157 22.844 84.2357 22.8547 84.2553C22.8603 84.2607 22.8633 84.2654 22.8629 84.2651Z" fill="#4E4C4D"/>
</g>
<g clip-path="url(#clip4_17660_164148)">
<path d="M30.6159 81.0131C30.659 80.9206 30.6941 80.8279 30.7431 80.7428C31.0124 80.2751 31.6491 80.1122 32.1189 80.3861C32.3099 80.4954 32.4607 80.6625 32.5491 80.8628C32.5522 80.8703 32.5555 80.8781 32.5587 80.8855C32.5691 80.9102 32.5733 80.9344 32.5495 80.9527C32.5257 80.971 32.5029 80.9598 32.4782 80.9441C32.3918 80.8852 32.3092 80.8173 32.2155 80.7732C31.7073 80.5339 31.0914 80.7651 30.8661 81.275C30.8424 81.3287 30.824 81.3846 30.8024 81.4415C30.7549 81.4199 30.7084 81.3958 30.6598 81.3772C30.1342 81.1745 29.5672 81.4105 29.3458 81.9241C29.2999 82.0319 29.2739 82.147 29.2689 82.2639C29.2674 82.294 29.2651 82.324 29.2274 82.3296C29.1898 82.3352 29.178 82.3069 29.1666 82.2795C28.9697 81.8088 29.1458 81.2741 29.5897 81.0184C29.9075 80.8356 30.2359 80.8309 30.5668 80.9903C30.5805 80.997 30.5939 81.0041 30.6076 81.0108C30.6128 81.0117 30.6163 81.0131 30.6159 81.0131Z" fill="#4E4C4D"/>
</g>
<g clip-path="url(#clip5_17660_164148)">
<path d="M25.6465 79.3212C25.7195 79.2508 25.7852 79.1773 25.8611 79.1158C26.278 78.7778 26.926 78.8512 27.2632 79.27C27.4011 79.4383 27.4809 79.646 27.491 79.8625C27.4913 79.8705 27.4915 79.8789 27.4918 79.8869C27.4926 79.9134 27.4879 79.9373 27.4593 79.9458C27.4306 79.9543 27.4136 79.936 27.3963 79.9128C27.3374 79.8279 27.2851 79.7359 27.2142 79.6622C26.829 79.2619 26.1758 79.259 25.7845 79.6516C25.7433 79.6929 25.7063 79.7382 25.6659 79.7833C25.6296 79.7465 25.5952 79.7079 25.5568 79.6735C25.1425 79.301 24.5328 79.3198 24.1438 79.7171C24.0628 79.8007 23.9975 79.8981 23.951 80.0045C23.9388 80.0319 23.9259 80.0588 23.889 80.0507C23.8521 80.0426 23.8514 80.0123 23.8506 79.9829C23.8367 79.4781 24.1912 79.0453 24.694 78.9649C25.0538 78.9076 25.3597 79.0188 25.6092 79.2828C25.6194 79.2938 25.6294 79.3051 25.6396 79.3161C25.6442 79.3188 25.6469 79.3213 25.6465 79.3212Z" fill="#4E4C4D"/>
</g>
<rect width="83.9957" height="91.6975" rx="4" transform="matrix(0.998885 0.0472156 -0.0452057 0.998978 104.314 48.6865)" fill="#E9E9E9"/>
<rect width="76.4171" height="64.0626" rx="2" transform="matrix(0.998885 0.0472156 -0.0452057 0.998978 108.419 53.4688)" fill="white"/>
<rect x="113.963" y="78.7119" width="60.0757" height="3.52034" rx="0.880084" transform="rotate(2.79662 113.963 78.7119)" fill="#D3D2D2"/>
<rect x="112.933" y="99.8091" width="50.2357" height="3.52034" rx="0.880084" transform="rotate(2.79662 112.933 99.8091)" fill="#D3D2D2"/>
<rect x="113.448" y="89.2598" width="24.8589" height="3.52034" rx="0.880084" transform="rotate(2.79662 113.448 89.2598)" fill="#D3D2D2"/>
<rect x="140.347" y="90.5747" width="38.3241" height="3.52034" rx="0.880084" transform="rotate(2.79662 140.347 90.5747)" fill="#D3D2D2"/>
<rect x="114.479" y="68.1636" width="31.0736" height="3.52034" rx="0.880084" transform="rotate(2.79662 114.479 68.1636)" fill="#D3D2D2"/>
<mask id="mask0_17660_164148" style="mask-type:alpha" maskUnits="userSpaceOnUse" x="204" y="87" width="70" height="24">
<rect x="204.761" y="90.3506" width="68.19" height="20.2727" transform="rotate(-2.66816 204.761 90.3506)" fill="#D9D9D9" fill-opacity="0.8"/>
</mask>
<g mask="url(#mask0_17660_164148)">
<path d="M88.2919 105.09C88.2653 104.52 88.706 104.036 89.2761 104.009C89.8463 103.983 90.33 104.423 90.3566 104.993L90.4207 106.37C90.4473 106.94 90.0067 107.424 89.4365 107.45C88.8663 107.477 88.3826 107.036 88.356 106.466L88.2919 105.09Z" fill="#222222"/>
<path d="M92.1856 101.632C92.159 101.062 92.5997 100.578 93.1698 100.551C93.74 100.525 94.2237 100.966 94.2503 101.536L94.6191 109.45C94.6457 110.021 94.205 110.504 93.6349 110.531C93.0647 110.557 92.581 110.117 92.5544 109.547L92.1856 101.632Z" fill="#222222"/>
<path d="M96.1274 99.2066C96.1008 98.6364 96.5415 98.1527 97.1116 98.1261C97.6818 98.0995 98.1655 98.5402 98.1921 99.1103L98.7694 111.499C98.796 112.069 98.3553 112.553 97.7852 112.579C97.215 112.606 96.7313 112.165 96.7047 111.595L96.1274 99.2066Z" fill="#222222"/>
<path d="M100.061 96.6092C100.035 96.039 100.475 95.5553 101.045 95.5287C101.616 95.5021 102.099 95.9428 102.126 96.5129L102.928 113.719C102.954 114.289 102.514 114.773 101.943 114.799C101.373 114.826 100.89 114.385 100.863 113.815L100.061 96.6092Z" fill="#222222"/>
<path d="M104.236 99.1736C104.209 98.6034 104.65 98.1197 105.22 98.0931C105.79 98.0665 106.274 98.5072 106.3 99.0773L106.845 110.777C106.872 111.348 106.431 111.831 105.861 111.858C105.291 111.884 104.807 111.444 104.781 110.874L104.236 99.1736Z" fill="#222222"/>
<path d="M108.522 104.147C108.496 103.577 108.936 103.093 109.506 103.066C110.077 103.04 110.56 103.48 110.587 104.051L110.651 105.427C110.678 105.997 110.237 106.481 109.667 106.508C109.097 106.534 108.613 106.093 108.586 105.523L108.522 104.147Z" fill="#222222"/>
<path d="M112.376 99.8288C112.349 99.2587 112.79 98.7749 113.36 98.7484C113.93 98.7218 114.414 99.1624 114.44 99.7326L114.889 109.368C114.916 109.938 114.475 110.422 113.905 110.448C113.335 110.475 112.851 110.034 112.825 109.464L112.376 99.8288Z" fill="#222222"/>
<path d="M116.502 101.361C116.475 100.791 116.916 100.307 117.486 100.28C118.056 100.254 118.54 100.694 118.567 101.265L118.855 107.459C118.882 108.029 118.441 108.513 117.871 108.539C117.301 108.566 116.817 108.125 116.791 107.555L116.502 101.361Z" fill="#222222"/>
<path d="M120.612 102.549C120.586 101.979 121.026 101.495 121.596 101.468C122.167 101.442 122.65 101.882 122.677 102.453L122.837 105.894C122.864 106.464 122.423 106.948 121.853 106.974C121.283 107.001 120.799 106.56 120.773 105.99L120.612 102.549Z" fill="#222222"/>
<path d="M124.554 100.123C124.527 99.5533 124.968 99.0696 125.538 99.043C126.108 99.0164 126.592 99.4571 126.619 100.027L126.988 107.942C127.014 108.512 126.573 108.996 126.003 109.022C125.433 109.049 124.949 108.608 124.923 108.038L124.554 100.123Z" fill="#222222"/>
<path d="M128.48 97.354C128.453 96.7839 128.894 96.3001 129.464 96.2735C130.034 96.247 130.518 96.6876 130.544 97.2578L131.154 110.334C131.18 110.905 130.74 111.388 130.17 111.415C129.599 111.441 129.116 111.001 129.089 110.431L128.48 97.354Z" fill="#222222"/>
<path d="M132.414 94.7566C132.387 94.1865 132.828 93.7027 133.398 93.6761C133.968 93.6496 134.452 94.0902 134.478 94.6604L135.312 112.555C135.339 113.125 134.898 113.609 134.328 113.635C133.758 113.662 133.274 113.221 133.247 112.651L132.414 94.7566Z" fill="#222222"/>
<path d="M136.732 100.418C136.706 99.8479 137.146 99.3642 137.716 99.3376C138.287 99.3111 138.77 99.7517 138.797 100.322L139.086 106.516C139.112 107.086 138.672 107.57 138.101 107.597C137.531 107.623 137.047 107.182 137.021 106.612L136.732 100.418Z" fill="#222222"/>
<path d="M140.778 100.23C140.752 99.6594 141.192 99.1756 141.763 99.1491C142.333 99.1225 142.816 99.5632 142.843 100.133L143.132 106.327C143.158 106.898 142.718 107.381 142.147 107.408C141.577 107.435 141.094 106.994 141.067 106.424L140.778 100.23Z" fill="#222222"/>
<path d="M144.872 101.073C144.846 100.503 145.287 100.019 145.857 99.9929C146.427 99.9663 146.911 100.407 146.937 100.977L147.13 105.107C147.156 105.677 146.716 106.16 146.145 106.187C145.575 106.214 145.091 105.773 145.065 105.203L144.872 101.073Z" fill="#222222"/>
<path d="M148.999 102.605C148.972 102.035 149.413 101.552 149.983 101.525C150.553 101.498 151.037 101.939 151.063 102.509L151.095 103.197C151.122 103.768 150.681 104.251 150.111 104.278C149.541 104.304 149.057 103.864 149.031 103.294L148.999 102.605Z" fill="#222222"/>
<path d="M153.061 102.761C153.034 102.191 153.475 101.707 154.045 101.681C154.615 101.654 155.099 102.095 155.125 102.665C155.152 103.235 154.711 103.719 154.141 103.745C153.571 103.772 153.087 103.331 153.061 102.761Z" fill="#222222"/>
<path d="M156.946 99.1312C156.92 98.5611 157.361 98.0773 157.931 98.0507C158.501 98.0242 158.985 98.4648 159.011 99.035L159.332 105.917C159.358 106.488 158.918 106.971 158.348 106.998C157.777 107.024 157.294 106.584 157.267 106.014L156.946 99.1312Z" fill="#222222"/>
<path d="M160.928 97.5662C160.902 96.996 161.342 96.5123 161.913 96.4857C162.483 96.4591 162.967 96.8998 162.993 97.47L163.442 107.105C163.469 107.675 163.028 108.159 162.458 108.186C161.888 108.212 161.404 107.772 161.377 107.202L160.928 97.5662Z" fill="#222222"/>
<path d="M165.055 99.0982C165.028 98.5281 165.469 98.0443 166.039 98.0178C166.609 97.9912 167.093 98.4319 167.119 99.002L167.408 105.196C167.435 105.766 166.994 106.25 166.424 106.277C165.854 106.303 165.37 105.863 165.343 105.292L165.055 99.0982Z" fill="#222222"/>
<path d="M169.149 99.942C169.122 99.3719 169.563 98.8881 170.133 98.8616C170.703 98.835 171.187 99.2757 171.213 99.8458L171.406 103.975C171.432 104.545 170.992 105.029 170.422 105.056C169.851 105.082 169.368 104.642 169.341 104.071L169.149 99.942Z" fill="#222222"/>
<path d="M173.05 96.6564C173.024 96.0862 173.465 95.6025 174.035 95.5759C174.605 95.5494 175.089 95.99 175.115 96.5602L175.596 106.884C175.623 107.454 175.182 107.938 174.612 107.964C174.042 107.991 173.558 107.55 173.532 106.98L173.05 96.6564Z" fill="#222222"/>
<path d="M176.92 92.6825C176.894 92.1124 177.334 91.6286 177.904 91.6021C178.475 91.5755 178.958 92.0161 178.985 92.5863L179.819 110.481C179.845 111.051 179.405 111.534 178.834 111.561C178.264 111.588 177.781 111.147 177.754 110.577L176.92 92.6825Z" fill="#222222"/>
<path d="M181.094 95.2469C181.068 94.6768 181.509 94.193 182.079 94.1665C182.649 94.1399 183.133 94.5806 183.159 95.1507L183.737 107.539C183.763 108.109 183.322 108.593 182.752 108.62C182.182 108.646 181.698 108.205 181.672 107.635L181.094 95.2469Z" fill="#222222"/>
<path d="M185.221 96.779C185.194 96.2088 185.635 95.7251 186.205 95.6985C186.775 95.6719 187.259 96.1126 187.285 96.6828L187.702 105.63C187.729 106.2 187.288 106.684 186.718 106.71C186.148 106.737 185.664 106.296 185.638 105.726L185.221 96.779Z" fill="#222222"/>
<path d="M189.187 94.8698C189.16 94.2997 189.601 93.8159 190.171 93.7894C190.741 93.7628 191.225 94.2034 191.251 94.7736L191.829 107.162C191.855 107.732 191.415 108.216 190.844 108.242C190.274 108.269 189.79 107.828 189.764 107.258L189.187 94.8698Z" fill="#222222"/>
<path d="M193.168 93.3048C193.142 92.7346 193.583 92.2509 194.153 92.2243C194.723 92.1978 195.207 92.6384 195.233 93.2086L195.939 108.35C195.965 108.92 195.525 109.404 194.955 109.43C194.384 109.457 193.901 109.016 193.874 108.446L193.168 93.3048Z" fill="#222222"/>
<path d="M197.295 94.8368C197.268 94.2667 197.709 93.7829 198.279 93.7564C198.849 93.7298 199.333 94.1705 199.359 94.7406L199.905 106.441C199.931 107.011 199.491 107.495 198.92 107.521C198.35 107.548 197.867 107.107 197.84 106.537L197.295 94.8368Z" fill="#222222"/>
<path d="M201.309 93.96C201.282 93.3899 201.723 92.9061 202.293 92.8796C202.863 92.853 203.347 93.2937 203.373 93.8638L203.983 106.94C204.009 107.511 203.569 107.994 202.999 108.021C202.428 108.047 201.945 107.607 201.918 107.037L201.309 93.96Z" fill="#222222"/>
<path d="M205.475 96.3524C205.448 95.7822 205.889 95.2985 206.459 95.2719C207.029 95.2454 207.513 95.686 207.54 96.2562L207.909 104.171C207.935 104.741 207.494 105.225 206.924 105.251C206.354 105.278 205.87 104.837 205.844 104.267L205.475 96.3524Z" fill="#222222"/>
<path d="M209.625 98.4006C209.599 97.8305 210.039 97.3467 210.61 97.3202C211.18 97.2936 211.663 97.7342 211.69 98.3044L211.85 101.746C211.877 102.316 211.436 102.8 210.866 102.826C210.296 102.853 209.812 102.412 209.786 101.842L209.625 98.4006Z" fill="#222222"/>
<path d="M213.736 99.5885C213.709 99.0184 214.15 98.5346 214.72 98.5081C215.29 98.4815 215.774 98.9222 215.8 99.4923L215.832 100.181C215.859 100.751 215.418 101.234 214.848 101.261C214.278 101.288 213.794 100.847 213.768 100.277L213.736 99.5885Z" fill="#222222"/>
<path d="M217.701 97.6794C217.675 97.1092 218.115 96.6255 218.686 96.5989C219.256 96.5724 219.74 97.013 219.766 97.5832L219.959 101.713C219.985 102.283 219.544 102.767 218.974 102.793C218.404 102.82 217.92 102.379 217.894 101.809L217.701 97.6794Z" fill="#222222"/>
<path d="M221.828 99.2114C221.801 98.6413 222.242 98.1575 222.812 98.131C223.382 98.1044 223.866 98.5451 223.892 99.1152L223.924 99.8035C223.951 100.374 223.51 100.857 222.94 100.884C222.37 100.911 221.886 100.47 221.86 99.8997L221.828 99.2114Z" fill="#222222"/>
<path d="M225.874 99.0229C225.847 98.4527 226.288 97.969 226.858 97.9424C227.428 97.9158 227.912 98.3565 227.938 98.9267L227.97 99.6149C227.997 100.185 227.556 100.669 226.986 100.695C226.416 100.722 225.932 100.281 225.906 99.7111L225.874 99.0229Z" fill="#222222"/>
<path d="M229.775 95.7373C229.749 95.1671 230.189 94.6834 230.76 94.6568C231.33 94.6302 231.814 95.0709 231.84 95.641L232.161 102.523C232.187 103.094 231.747 103.577 231.177 103.604C230.606 103.63 230.123 103.19 230.096 102.62L229.775 95.7373Z" fill="#222222"/>
<path d="M233.902 97.2693C233.875 96.6991 234.316 96.2154 234.886 96.1888C235.456 96.1623 235.94 96.6029 235.966 97.1731L236.127 100.614C236.153 101.184 235.713 101.668 235.142 101.695C234.572 101.721 234.089 101.281 234.062 100.711L233.902 97.2693Z" fill="#222222"/>
<path d="M238.012 98.4572C237.985 97.8871 238.426 97.4033 238.996 97.3768C239.566 97.3502 240.05 97.7909 240.077 98.361L240.109 99.0492C240.135 99.6194 239.695 100.103 239.124 100.13C238.554 100.156 238.07 99.7156 238.044 99.1455L238.012 98.4572Z" fill="#222222"/>
<path d="M242.061 96.544C242.035 95.9738 242.475 95.4901 243.046 95.4635C243.616 95.4369 244.099 95.8776 244.126 96.4478L244.318 100.577C244.345 101.147 243.904 101.631 243.334 101.658C242.764 101.684 242.28 101.244 242.254 100.673L242.061 96.544Z" fill="#D3D2D2"/>
<path d="M246.019 94.463C245.992 93.8928 246.433 93.4091 247.003 93.3825C247.573 93.3559 248.057 93.7966 248.084 94.3668L248.452 102.282C248.479 102.852 248.038 103.335 247.468 103.362C246.898 103.389 246.414 102.948 246.388 102.378L246.019 94.463Z" fill="#D3D2D2"/>
<path d="M249.961 92.0376C249.934 91.4675 250.375 90.9837 250.945 90.9572C251.515 90.9306 251.999 91.3713 252.025 91.9414L252.603 104.33C252.629 104.9 252.189 105.384 251.619 105.41C251.048 105.437 250.565 104.996 250.538 104.426L249.961 92.0376Z" fill="#D3D2D2"/>
<path d="M253.894 89.4402C253.868 88.8701 254.309 88.3863 254.879 88.3598C255.449 88.3332 255.933 88.7739 255.959 89.344L256.761 106.55C256.788 107.12 256.347 107.604 255.777 107.631C255.207 107.657 254.723 107.216 254.696 106.646L253.894 89.4402Z" fill="#D3D2D2"/>
<path d="M258.069 92.0047C258.042 91.4345 258.483 90.9508 259.053 90.9242C259.623 90.8976 260.107 91.3383 260.134 91.9084L260.679 103.609C260.705 104.179 260.265 104.662 259.695 104.689C259.124 104.716 258.641 104.275 258.614 103.705L258.069 92.0047Z" fill="#D3D2D2"/>
<path d="M262.355 96.9779C262.329 96.4077 262.77 95.924 263.34 95.8974C263.91 95.8709 264.394 96.3115 264.42 96.8817L264.484 98.2582C264.511 98.8283 264.07 99.3121 263.5 99.3386C262.93 99.3652 262.446 98.9245 262.42 98.3544L262.355 96.9779Z" fill="#D3D2D2"/>
<path d="M266.209 92.6599C266.182 92.0897 266.623 91.606 267.193 91.5794C267.763 91.5529 268.247 91.9935 268.274 92.5637L268.723 102.199C268.749 102.769 268.309 103.253 267.739 103.28C267.168 103.306 266.685 102.865 266.658 102.295L266.209 92.6599Z" fill="#D3D2D2"/>
<path d="M270.335 94.192C270.309 93.6218 270.749 93.1381 271.32 93.1115C271.89 93.0849 272.373 93.5256 272.4 94.0957L272.689 100.29C272.715 100.86 272.275 101.344 271.704 101.37C271.134 101.397 270.651 100.956 270.624 100.386L270.335 94.192Z" fill="#D3D2D2"/>
<path d="M274.445 95.3799C274.419 94.8097 274.86 94.326 275.43 94.2994C276 94.2728 276.484 94.7135 276.51 95.2837L276.671 98.7249C276.697 99.295 276.256 99.7788 275.686 99.8053C275.116 99.8319 274.632 99.3912 274.606 98.8211L274.445 95.3799Z" fill="#D3D2D2"/>
<path d="M278.387 92.9545C278.361 92.3844 278.801 91.9006 279.372 91.8741C279.942 91.8475 280.425 92.2882 280.452 92.8583L280.821 100.773C280.847 101.343 280.407 101.827 279.837 101.854C279.266 101.88 278.783 101.439 278.756 100.869L278.387 92.9545Z" fill="#D3D2D2"/>
<path d="M282.313 90.1851C282.287 89.6149 282.727 89.1312 283.297 89.1046C283.867 89.0781 284.351 89.5187 284.378 90.0889L284.987 103.165C285.014 103.736 284.573 104.219 284.003 104.246C283.433 104.272 282.949 103.832 282.922 103.262L282.313 90.1851Z" fill="#D3D2D2"/>
<path d="M286.247 87.5877C286.22 87.0175 286.661 86.5338 287.231 86.5072C287.801 86.4807 288.285 86.9213 288.312 87.4915L289.145 105.386C289.172 105.956 288.731 106.44 288.161 106.466C287.591 106.493 287.107 106.052 287.081 105.482L286.247 87.5877Z" fill="#D3D2D2"/>
<path d="M290.566 93.2492C290.539 92.679 290.98 92.1953 291.55 92.1687C292.12 92.1421 292.604 92.5828 292.63 93.153L292.919 99.3471C292.945 99.9173 292.505 100.401 291.935 100.428C291.365 100.454 290.881 100.014 290.854 99.4434L290.566 93.2492Z" fill="#D3D2D2"/>
<path d="M294.612 93.0606C294.585 92.4905 295.026 92.0067 295.596 91.9802C296.166 91.9536 296.65 92.3943 296.676 92.9644L296.965 99.1586C296.992 99.7287 296.551 100.212 295.981 100.239C295.411 100.266 294.927 99.825 294.9 99.2548L294.612 93.0606Z" fill="#D3D2D2"/>
<path d="M298.706 93.9044C298.679 93.3343 299.12 92.8505 299.69 92.824C300.26 92.7974 300.744 93.2381 300.77 93.8082L300.963 97.9377C300.989 98.5078 300.549 98.9916 299.979 99.0181C299.408 99.0447 298.925 98.604 298.898 98.0339L298.706 93.9044Z" fill="#D3D2D2"/>
<path d="M302.832 95.4365C302.805 94.8663 303.246 94.3826 303.816 94.356C304.386 94.3294 304.87 94.7701 304.897 95.3403L304.929 96.0285C304.955 96.5987 304.515 97.0824 303.945 97.109C303.374 97.1356 302.891 96.6949 302.864 96.1247L302.832 95.4365Z" fill="#D3D2D2"/>
<path d="M306.894 95.5921C306.867 95.0219 307.308 94.5382 307.878 94.5116C308.448 94.485 308.932 94.9257 308.959 95.4958C308.985 96.066 308.545 96.5497 307.975 96.5763C307.404 96.6029 306.921 96.1622 306.894 95.5921Z" fill="#D3D2D2"/>
<path d="M310.78 91.9623C310.753 91.3921 311.194 90.9084 311.764 90.8818C312.334 90.8553 312.818 91.2959 312.844 91.8661L313.165 98.7485C313.192 99.3186 312.751 99.8024 312.181 99.829C311.611 99.8555 311.127 99.4149 311.1 98.8447L310.78 91.9623Z" fill="#D3D2D2"/>
<path d="M314.762 90.3973C314.735 89.8271 315.176 89.3434 315.746 89.3168C316.316 89.2902 316.8 89.7309 316.826 90.301L317.275 99.9364C317.302 100.507 316.861 100.99 316.291 101.017C315.721 101.043 315.237 100.603 315.211 100.033L314.762 90.3973Z" fill="#D3D2D2"/>
<path d="M318.888 91.9293C318.861 91.3592 319.302 90.8754 319.872 90.8488C320.442 90.8223 320.926 91.2629 320.953 91.8331L321.241 98.0273C321.268 98.5974 320.827 99.0812 320.257 99.1077C319.687 99.1343 319.203 98.6936 319.177 98.1235L318.888 91.9293Z" fill="#D3D2D2"/>
<path d="M322.982 92.7731C322.955 92.203 323.396 91.7192 323.966 91.6926C324.536 91.6661 325.02 92.1067 325.047 92.6769L325.239 96.8063C325.266 97.3765 324.825 97.8602 324.255 97.8868C323.685 97.9134 323.201 97.4727 323.175 96.9026L322.982 92.7731Z" fill="#D3D2D2"/>
<path d="M326.884 89.4875C326.857 88.9173 327.298 88.4336 327.868 88.407C328.438 88.3804 328.922 88.8211 328.949 89.3913L329.43 99.7149C329.456 100.285 329.016 100.769 328.445 100.795C327.875 100.822 327.391 100.381 327.365 99.8111L326.884 89.4875Z" fill="#D3D2D2"/>
<path d="M330.753 85.5136C330.727 84.9435 331.168 84.4597 331.738 84.4331C332.308 84.4066 332.792 84.8472 332.818 85.4174L333.652 103.312C333.679 103.882 333.238 104.366 332.668 104.392C332.098 104.419 331.614 103.978 331.587 103.408L330.753 85.5136Z" fill="#D3D2D2"/>
<path d="M334.928 88.078C334.901 87.5079 335.342 87.0241 335.912 86.9975C336.482 86.971 336.966 87.4116 336.993 87.9818L337.57 100.37C337.596 100.94 337.156 101.424 336.586 101.451C336.015 101.477 335.532 101.037 335.505 100.466L334.928 88.078Z" fill="#D3D2D2"/>
<path d="M339.054 89.6101C339.027 89.0399 339.468 88.5562 340.038 88.5296C340.608 88.503 341.092 88.9437 341.119 89.5138L341.536 98.461C341.562 99.0311 341.122 99.5149 340.551 99.5414C339.981 99.568 339.498 99.1273 339.471 98.5572L339.054 89.6101Z" fill="#D3D2D2"/>
<path d="M343.02 87.7009C342.993 87.1308 343.434 86.647 344.004 86.6204C344.574 86.5939 345.058 87.0345 345.085 87.6047L345.662 99.993C345.689 100.563 345.248 101.047 344.678 101.073C344.108 101.1 343.624 100.659 343.597 100.089L343.02 87.7009Z" fill="#D3D2D2"/>
<path d="M347.002 86.1359C346.975 85.5657 347.416 85.082 347.986 85.0554C348.556 85.0288 349.04 85.4695 349.067 86.0397L349.772 101.181C349.799 101.751 349.358 102.235 348.788 102.261C348.218 102.288 347.734 101.847 347.707 101.277L347.002 86.1359Z" fill="#D3D2D2"/>
<path d="M351.128 87.6679C351.101 87.0978 351.542 86.614 352.112 86.5875C352.682 86.5609 353.166 87.0015 353.193 87.5717L353.738 99.2718C353.765 99.8419 353.324 100.326 352.754 100.352C352.184 100.379 351.7 99.9382 351.673 99.368L351.128 87.6679Z" fill="#D3D2D2"/>
<path d="M355.142 86.7911C355.115 86.221 355.556 85.7372 356.126 85.7107C356.696 85.6841 357.18 86.1248 357.207 86.6949L357.816 99.7715C357.843 100.342 357.402 100.825 356.832 100.852C356.262 100.879 355.778 100.438 355.751 99.8677L355.142 86.7911Z" fill="#D3D2D2"/>
<path d="M359.308 89.1835C359.282 88.6133 359.722 88.1296 360.293 88.103C360.863 88.0764 361.347 88.5171 361.373 89.0873L361.742 97.002C361.769 97.5722 361.328 98.0559 360.758 98.0825C360.188 98.1091 359.704 97.6684 359.677 97.0982L359.308 89.1835Z" fill="#D3D2D2"/>
<path d="M363.459 91.2317C363.432 90.6615 363.873 90.1778 364.443 90.1512C365.013 90.1247 365.497 90.5653 365.523 91.1355L365.684 94.5767C365.71 95.1468 365.27 95.6306 364.699 95.6572C364.129 95.6837 363.646 95.2431 363.619 94.6729L363.459 91.2317Z" fill="#D3D2D2"/>
<path d="M367.569 92.4196C367.542 91.8495 367.983 91.3657 368.553 91.3392C369.123 91.3126 369.607 91.7533 369.634 92.3234L369.666 93.0117C369.692 93.5818 369.252 94.0656 368.681 94.0921C368.111 94.1187 367.627 93.678 367.601 93.1079L367.569 92.4196Z" fill="#D3D2D2"/>
<path d="M371.535 90.5105C371.508 89.9403 371.949 89.4566 372.519 89.43C373.089 89.4034 373.573 89.8441 373.599 90.4143L373.792 94.5437C373.818 95.1139 373.378 95.5976 372.808 95.6242C372.237 95.6507 371.754 95.2101 371.727 94.6399L371.535 90.5105Z" fill="#D3D2D2"/>
<path d="M375.661 92.0425C375.634 91.4724 376.075 90.9886 376.645 90.9621C377.215 90.9355 377.699 91.3761 377.726 91.9463L377.758 92.6345C377.784 93.2047 377.344 93.6884 376.773 93.715C376.203 93.7416 375.72 93.3009 375.693 92.7308L375.661 92.0425Z" fill="#D3D2D2"/>
<path d="M379.707 91.854C379.68 91.2838 380.121 90.8001 380.691 90.7735C381.261 90.7469 381.745 91.1876 381.772 91.7578L381.804 92.446C381.83 93.0162 381.39 93.4999 380.82 93.5265C380.249 93.553 379.766 93.1124 379.739 92.5422L379.707 91.854Z" fill="#D3D2D2"/>
<path d="M383.609 88.5683C383.582 87.9982 384.023 87.5144 384.593 87.4879C385.163 87.4613 385.647 87.902 385.673 88.4721L385.994 95.3545C386.021 95.9247 385.58 96.4084 385.01 96.435C384.44 96.4616 383.956 96.0209 383.929 95.4507L383.609 88.5683Z" fill="#D3D2D2"/>
<path d="M387.735 90.1004C387.708 89.5302 388.149 89.0465 388.719 89.0199C389.289 88.9933 389.773 89.434 389.8 90.0042L389.96 93.4454C389.987 94.0155 389.546 94.4993 388.976 94.5258C388.406 94.5524 387.922 94.1117 387.895 93.5416L387.735 90.1004Z" fill="#D3D2D2"/>
<path d="M391.845 91.2883C391.819 90.7182 392.259 90.2344 392.829 90.2078C393.4 90.1813 393.883 90.6219 393.91 91.1921L393.942 91.8803C393.969 92.4505 393.528 92.9342 392.958 92.9608C392.388 92.9874 391.904 92.5467 391.877 91.9766L391.845 91.2883Z" fill="#D3D2D2"/>
</g>
<path d="M246.516 75.7379C247.776 76.3893 247.859 78.1608 246.665 78.9266L235.916 85.8187C234.722 86.5845 233.146 85.7702 233.08 84.353L232.486 71.5984C232.42 70.1812 233.913 69.224 235.173 69.8754L246.516 75.7379Z" fill="#51A1A6"/>
<rect width="83.9957" height="91.6975" rx="4" transform="matrix(0.997612 0.0690712 -0.0670638 0.997749 296.053 46.3267)" fill="#E9E9E9"/>
<rect width="76.4171" height="64.0626" rx="2" transform="matrix(0.997612 0.0690712 -0.0670638 0.997749 300.053 51.1982)" fill="white"/>
<ellipse cx="317.785" cy="78.8725" rx="13.7486" ry="13.7094" transform="rotate(4.00261 317.785 78.8725)" fill="white"/>
<path d="M337.262 70.0876C324.242 69.1766 325.612 83.2122 313.206 97.5511L358.231 101.115C347.925 90.2467 349.944 70.975 337.262 70.0876Z" fill="#D3D2D2"/>
<g clip-path="url(#clip6_17660_164148)">
<path d="M319.777 73.7825C319.824 73.7027 319.865 73.6219 319.918 73.5495C320.206 73.1512 320.792 73.0665 321.184 73.3621C321.343 73.4804 321.461 73.6473 321.52 73.8382C321.522 73.8453 321.524 73.8527 321.526 73.8598C321.533 73.8832 321.534 73.9056 321.511 73.9199C321.488 73.9341 321.468 73.9217 321.448 73.905C321.377 73.8429 321.31 73.7729 321.231 73.7236C320.801 73.4555 320.227 73.6044 319.973 74.0454C319.947 74.0918 319.925 74.1408 319.9 74.1904C319.859 74.166 319.82 74.1395 319.779 74.1177C319.33 73.8813 318.799 74.0394 318.549 74.4841C318.497 74.5775 318.462 74.6795 318.445 74.7852C318.441 74.8125 318.436 74.8395 318.402 74.8408C318.367 74.8422 318.36 74.8153 318.352 74.7892C318.224 74.3419 318.436 73.8735 318.859 73.6853C319.161 73.5507 319.456 73.5791 319.735 73.7569C319.747 73.7643 319.758 73.7721 319.769 73.7796C319.774 73.7809 319.777 73.7825 319.777 73.7825Z" fill="#4E4C4D"/>
</g>
<g clip-path="url(#clip7_17660_164148)">
<path d="M312.456 78.0427C312.55 78.0048 312.639 77.9612 312.732 77.9327C313.245 77.7757 313.811 78.0899 313.958 78.6081C314.019 78.8173 314.012 79.0412 313.938 79.2469C313.935 79.2544 313.932 79.2623 313.929 79.2699C313.92 79.2949 313.906 79.3154 313.877 79.3125C313.847 79.3096 313.838 79.286 313.832 79.2578C313.81 79.1563 313.798 79.0508 313.761 78.9551C313.563 78.4359 312.965 78.1855 312.455 78.4031C312.401 78.426 312.349 78.4541 312.295 78.4808C312.276 78.4328 312.259 78.3838 312.237 78.3371C312.002 77.8328 311.435 77.6191 310.925 77.8419C310.818 77.8891 310.721 77.9551 310.637 78.0367C310.615 78.0576 310.593 78.0778 310.562 78.0562C310.532 78.0347 310.543 78.0062 310.553 77.9785C310.736 77.5026 311.228 77.2337 311.72 77.3494C312.072 77.4324 312.31 77.6521 312.437 77.9928C312.442 78.0069 312.446 78.0213 312.452 78.0354C312.455 78.0396 312.456 78.043 312.456 78.0427Z" fill="#4E4C4D"/>
</g>
<g clip-path="url(#clip8_17660_164148)">
<path d="M318.748 80.8692C318.836 80.7467 318.913 80.6216 319.008 80.5116C319.529 79.9072 320.493 79.8545 321.094 80.3908C321.338 80.6058 321.509 80.8935 321.579 81.2116C321.582 81.2234 321.584 81.2357 321.587 81.2475C321.595 81.2866 321.594 81.3231 321.555 81.3429C321.515 81.3627 321.485 81.3398 321.454 81.3096C321.346 81.1986 321.246 81.0754 321.124 80.9839C320.458 80.4869 319.504 80.6454 319.034 81.3242C318.985 81.3957 318.943 81.472 318.895 81.5487C318.833 81.5034 318.773 81.4547 318.708 81.4133C318.007 80.9649 317.122 81.1445 316.657 81.8298C316.561 81.9738 316.491 82.1342 316.45 82.3034C316.44 82.347 316.428 82.39 316.372 82.3872C316.316 82.3845 316.307 82.3398 316.298 82.2964C316.147 81.5522 316.553 80.823 317.266 80.5788C317.776 80.4042 318.251 80.4928 318.683 80.8217C318.701 80.8354 318.719 80.8497 318.736 80.8634C318.744 80.8662 318.748 80.8693 318.748 80.8692Z" fill="#4E4C4D"/>
</g>
<path fillRule="evenodd" clipRule="evenodd" d="M359.536 85.2868C358.183 85.8193 356.511 86.1063 354.911 85.7605L354.906 85.7574C354.24 85.6128 353.43 85.4503 352.578 85.3433C351.434 85.6542 350.153 85.7656 348.915 85.498L348.91 85.4948C348.025 85.3028 346.887 85.0791 345.733 84.996C344.578 84.9128 343.389 84.8116 342.3 84.3817C341.21 83.9518 340.237 83.1011 340.167 82.1893C340.101 81.3415 340.843 80.6409 341.789 80.3482C342.736 80.0554 343.851 80.1048 344.929 80.245C345.049 80.2606 345.169 80.2773 345.289 80.294C345.926 80.3825 346.572 80.4722 347.179 80.4012C347.834 80.3253 348.393 80.0718 348.952 79.8183C349.513 79.5636 350.074 79.309 350.733 79.2346C351.946 79.0984 353.288 79.6214 354.24 80.3859C354.481 80.2929 354.714 80.1869 354.948 80.0809C355.509 79.8262 356.071 79.5715 356.729 79.4971C357.965 79.3584 359.335 79.9039 360.29 80.6919C360.844 81.1496 361.291 81.7008 361.476 82.2914C361.867 83.5668 360.89 84.7543 359.536 85.2868Z" fill="#A7A5A6"/>
<path d="M343.89 83.8535C344.115 83.1767 345.344 83.2626 345.472 83.9642L346.785 91.1444C346.86 91.5529 346.451 91.902 345.94 91.8662L342.326 91.6133C341.815 91.5775 341.459 91.1749 341.59 90.7808L343.89 83.8535Z" fill="white"/>
<line x1="344.499" y1="86.1731" x2="344.054" y2="92.5333" stroke="#4E4C4D" stroke-width="0.356104"/>
<line y1="-0.178052" x2="1.63357" y2="-0.178052" transform="matrix(-0.571426 0.820654 -0.826555 -0.562856 345.116 86.8076)" stroke="#4E4C4D" stroke-width="0.356104"/>
<line y1="-0.178052" x2="1.54356" y2="-0.178052" transform="matrix(-0.632173 -0.774828 0.769534 -0.638606 344.356 89.2471)" stroke="#4E4C4D" stroke-width="0.356104"/>
<path d="M320.922 84.9224C310.873 84.2192 309.123 94.4787 302.302 103.193L338.103 105.698C332.735 97.3385 330.709 85.6072 320.922 84.9224Z" fill="#E0E0E0"/>
<path d="M347.634 92.384C336.796 91.6256 335.171 98.9276 328.046 104.995L366.664 107.697C360.671 101.574 358.192 93.1228 347.634 92.384Z" fill="#E9E9E9"/>
<path d="M315.59 95.4551C315.815 94.7782 317.043 94.8642 317.172 95.5658L318.485 102.746C318.56 103.154 318.151 103.504 317.64 103.468L314.026 103.215C313.515 103.179 313.158 102.776 313.289 102.382L315.59 95.4551Z" fill="white"/>
<line x1="316.199" y1="97.7746" x2="315.754" y2="104.135" stroke="#4E4C4D" stroke-width="0.356104"/>
<line y1="-0.178052" x2="1.63357" y2="-0.178052" transform="matrix(-0.571426 0.820654 -0.826555 -0.562856 316.815 98.4092)" stroke="#4E4C4D" stroke-width="0.356104"/>
<line y1="-0.178052" x2="1.54356" y2="-0.178052" transform="matrix(-0.632172 -0.774828 0.769533 -0.638607 316.056 100.849)" stroke="#4E4C4D" stroke-width="0.356104"/>
</g>
<g clip-path="url(#clip9_17660_164148)">
<rect x="193.5" y="128.5" width="21" height="21" rx="10.5" fill="#222222"/>
<g filter="url(#filter0_dd_17660_164148)">
<rect x="196.312" y="131.206" width="15.5893" height="15.5893" rx="7.79464" fill="white"/>
<path fillRule="evenodd" clipRule="evenodd" d="M208.173 136.146C208.41 136.383 208.41 136.767 208.173 137.004L203.323 141.854C203.086 142.09 202.703 142.09 202.466 141.854L200.041 139.429C199.804 139.192 199.804 138.808 200.041 138.571C200.278 138.335 200.661 138.335 200.898 138.571L202.895 140.568L207.316 136.146C207.553 135.91 207.936 135.91 208.173 136.146Z" fill="#222222" stroke="#222222" stroke-width="0.433036" stroke-linecap="round" stroke-linejoin="round"/>
</g>
</g>
<g clip-path="url(#clip10_17660_164148)">
<rect x="164.5" y="128.5" width="21" height="21" rx="10.5" fill="#222222"/>
<g filter="url(#filter1_dd_17660_164148)">
<rect x="167.143" y="131.071" width="15.8571" height="15.8571" rx="7.92857" fill="white"/>
<path fillRule="evenodd" clipRule="evenodd" d="M171.552 135.48C171.793 135.239 172.183 135.239 172.424 135.48L175.071 138.127L177.718 135.48C177.959 135.239 178.35 135.239 178.59 135.48C178.831 135.721 178.831 136.111 178.59 136.352L175.943 138.999L178.59 141.647C178.831 141.887 178.831 142.278 178.59 142.519C178.35 142.76 177.959 142.76 177.718 142.519L175.071 139.871L172.424 142.519C172.183 142.76 171.793 142.76 171.552 142.519C171.311 142.278 171.311 141.887 171.552 141.647L174.199 138.999L171.552 136.352C171.311 136.111 171.311 135.721 171.552 135.48Z" fill="#222222" stroke="#222222" stroke-width="0.440476" stroke-linecap="round"/>
</g>
</g>
<defs>
<filter id="filter0_dd_17660_164148" x="193.714" y="129.473" width="20.7858" height="20.7858" filterUnits="userSpaceOnUse" color-interpolation-filters="sRGB">
<feFlood flood-opacity="0" result="BackgroundImageFix"/>
<feColorMatrix in="SourceAlpha" type="matrix" values="0 0 0 0 0 0 0 0 0 0 0 0 0 0 0 0 0 0 127 0" result="hardAlpha"/>
<feOffset dy="0.866071"/>
<feGaussianBlur stdDeviation="0.866071"/>
<feColorMatrix type="matrix" values="0 0 0 0 0 0 0 0 0 0 0 0 0 0 0 0 0 0 0.06 0"/>
<feBlend mode="normal" in2="BackgroundImageFix" result="effect1_dropShadow_17660_164148"/>
<feColorMatrix in="SourceAlpha" type="matrix" values="0 0 0 0 0 0 0 0 0 0 0 0 0 0 0 0 0 0 127 0" result="hardAlpha"/>
<feOffset dy="0.866071"/>
<feGaussianBlur stdDeviation="1.29911"/>
<feColorMatrix type="matrix" values="0 0 0 0 0 0 0 0 0 0 0 0 0 0 0 0 0 0 0.1 0"/>
<feBlend mode="normal" in2="effect1_dropShadow_17660_164148" result="effect2_dropShadow_17660_164148"/>
<feBlend mode="normal" in="SourceGraphic" in2="effect2_dropShadow_17660_164148" result="shape"/>
</filter>
<filter id="filter1_dd_17660_164148" x="164.5" y="129.309" width="21.1426" height="21.1426" filterUnits="userSpaceOnUse" color-interpolation-filters="sRGB">
<feFlood flood-opacity="0" result="BackgroundImageFix"/>
<feColorMatrix in="SourceAlpha" type="matrix" values="0 0 0 0 0 0 0 0 0 0 0 0 0 0 0 0 0 0 127 0" result="hardAlpha"/>
<feOffset dy="0.880952"/>
<feGaussianBlur stdDeviation="0.880952"/>
<feColorMatrix type="matrix" values="0 0 0 0 0 0 0 0 0 0 0 0 0 0 0 0 0 0 0.06 0"/>
<feBlend mode="normal" in2="BackgroundImageFix" result="effect1_dropShadow_17660_164148"/>
<feColorMatrix in="SourceAlpha" type="matrix" values="0 0 0 0 0 0 0 0 0 0 0 0 0 0 0 0 0 0 127 0" result="hardAlpha"/>
<feOffset dy="0.880952"/>
<feGaussianBlur stdDeviation="1.32143"/>
<feColorMatrix type="matrix" values="0 0 0 0 0 0 0 0 0 0 0 0 0 0 0 0 0 0 0.1 0"/>
<feBlend mode="normal" in2="effect1_dropShadow_17660_164148" result="effect2_dropShadow_17660_164148"/>
<feBlend mode="normal" in="SourceGraphic" in2="effect2_dropShadow_17660_164148" result="shape"/>
</filter>
<clipPath id="clip0_17660_164148">
<rect width="401" height="100" fill="white" transform="translate(5.5 43.5)"/>
</clipPath>
<clipPath id="clip1_17660_164148">
<rect width="15.2023" height="7.49878" fill="white" transform="matrix(-0.98743 -0.160641 0.161864 -0.986389 65.2534 84.7368)"/>
</clipPath>
<clipPath id="clip2_17660_164148">
<rect width="15.2023" height="7.49878" fill="white" transform="matrix(-0.98743 -0.160641 0.161864 -0.986389 38.1685 94.8096)"/>
</clipPath>
<clipPath id="clip3_17660_164148">
<rect width="5.42669" height="1.60214" fill="white" transform="matrix(0.977393 0.213846 -0.215863 0.97589 20.3462 83.1123)"/>
</clipPath>
<clipPath id="clip4_17660_164148">
<rect width="3.66938" height="1.08433" fill="white" transform="matrix(0.923221 -0.382499 0.389514 0.921767 28.7725 81.3457)"/>
</clipPath>
<clipPath id="clip5_17660_164148">
<rect width="3.64199" height="1.07407" fill="white" transform="matrix(0.999596 -0.0292324 0.0311411 0.999491 23.8198 78.9805)"/>
</clipPath>
<clipPath id="clip6_17660_164148">
<rect width="3.30654" height="0.989559" fill="white" transform="matrix(0.958862 -0.283871 0.278653 0.960392 318.095 73.9014)"/>
</clipPath>
<clipPath id="clip7_17660_164148">
<rect width="3.61395" height="1.08386" fill="white" transform="matrix(0.935028 0.354574 -0.354741 0.934964 310.913 77.0317)"/>
</clipPath>
<clipPath id="clip8_17660_164148">
<rect width="5.39105" height="1.61491" fill="white" transform="matrix(0.980324 -0.197396 0.20211 0.979363 315.994 80.8188)"/>
</clipPath>
<clipPath id="clip9_17660_164148">
<rect x="193.5" y="128.5" width="21" height="21" rx="10.5" fill="white"/>
</clipPath>
<clipPath id="clip10_17660_164148">
<rect x="164.5" y="128.5" width="21" height="21" rx="10.5" fill="white"/>
</clipPath>
</defs>
</svg>
