<svg width="412" height="155" viewBox="0 0 412 155" fill="none" xmlns="http://www.w3.org/2000/svg">
<path d="M178.807 14.6392V14.3977C178.812 13.5691 178.885 12.9086 179.027 12.4162C179.174 11.9238 179.387 11.526 179.666 11.223C179.946 10.92 180.282 10.6454 180.675 10.3991C180.968 10.2098 181.231 10.0133 181.463 9.80966C181.695 9.60606 181.88 9.38116 182.017 9.13494C182.154 8.884 182.223 8.60464 182.223 8.29688C182.223 7.97017 182.145 7.68371 181.989 7.4375C181.832 7.19129 181.622 7.00189 181.357 6.86932C181.096 6.73674 180.807 6.67045 180.49 6.67045C180.182 6.67045 179.891 6.73911 179.616 6.87642C179.342 7.009 179.117 7.20786 178.942 7.47301C178.767 7.73343 178.672 8.05777 178.658 8.44602H175.76C175.784 7.49905 176.011 6.7178 176.442 6.10227C176.873 5.48201 177.443 5.02036 178.153 4.71733C178.864 4.40956 179.647 4.25568 180.504 4.25568C181.446 4.25568 182.28 4.41193 183.004 4.72443C183.729 5.0322 184.297 5.47964 184.709 6.06676C185.121 6.65388 185.327 7.36174 185.327 8.19034C185.327 8.74432 185.234 9.23674 185.05 9.66761C184.87 10.0937 184.616 10.4725 184.29 10.804C183.963 11.1307 183.577 11.4266 183.132 11.6918C182.758 11.9143 182.45 12.1463 182.209 12.3878C181.972 12.6293 181.795 12.9086 181.676 13.2259C181.563 13.5431 181.503 13.9337 181.499 14.3977V14.6392H178.807ZM180.213 19.1847C179.74 19.1847 179.335 19.0189 178.999 18.6875C178.667 18.3513 178.504 17.9489 178.509 17.4801C178.504 17.0161 178.667 16.6184 178.999 16.2869C179.335 15.9555 179.74 15.7898 180.213 15.7898C180.663 15.7898 181.058 15.9555 181.399 16.2869C181.74 16.6184 181.913 17.0161 181.918 17.4801C181.913 17.7926 181.83 18.0791 181.669 18.3395C181.513 18.5952 181.307 18.8011 181.051 18.9574C180.795 19.1089 180.516 19.1847 180.213 19.1847Z" fill="#51A1A6"/>
<rect y="11" width="171" height="8" rx="2" fill="#51A1A6"/>
<rect x="14" y="97.5" width="384" height="50" rx="4" fill="#F7F7F7"/>
<rect x="14" y="39.5" width="384" height="50" rx="4" fill="#F7F7F7"/>
<path d="M44 62.7679C45.3333 63.5377 45.3333 65.4622 44 66.232L32 73.1603C30.6667 73.9301 29 72.9678 29 71.4282L29 57.5718C29 56.0322 30.6667 55.0699 32 55.8397L44 62.7679Z" fill="#51A1A6"/>
<rect x="55" y="62.6309" width="2.24307" height="3.73846" rx="1.12154" fill="#222222"/>
<rect x="58.9629" y="59.0796" width="2.24307" height="10.8415" rx="1.12154" fill="#222222"/>
<rect x="62.9263" y="56.6494" width="2.24307" height="15.7015" rx="1.12154" fill="#222222"/>
<rect x="66.8892" y="54.0327" width="2.24307" height="20.9354" rx="1.12154" fill="#222222"/>
<rect x="70.8525" y="57.0234" width="2.24307" height="14.9538" rx="1.12154" fill="#222222"/>
<rect x="74.8154" y="62.6309" width="2.24307" height="3.73846" rx="1.12154" fill="#222222"/>
<rect x="78.7788" y="58.145" width="2.24307" height="12.7107" rx="1.12154" fill="#222222"/>
<rect x="82.7417" y="60.0142" width="2.24307" height="8.97229" rx="1.12154" fill="#222222"/>
<rect x="86.7051" y="61.5093" width="2.24307" height="5.98153" rx="1.12154" fill="#222222"/>
<rect x="90.668" y="59.0796" width="2.24307" height="10.8415" rx="1.12154" fill="#222222"/>
<rect x="94.6313" y="56.2754" width="2.24307" height="16.4492" rx="1.12154" fill="#222222"/>
<rect x="98.5942" y="53.6587" width="2.24307" height="21.683" rx="1.12154" fill="#222222"/>
<rect x="102.558" y="60.0142" width="2.24307" height="8.97229" rx="1.12154" fill="#222222"/>
<rect x="106.521" y="60.0142" width="2.24307" height="8.97229" rx="1.12154" fill="#222222"/>
<rect x="110.484" y="61.1357" width="2.24307" height="6.72922" rx="1.12154" fill="#222222"/>
<rect x="114.447" y="63.0049" width="2.24307" height="2.99076" rx="1.12154" fill="#222222"/>
<rect x="118.41" y="63.3789" width="2.24307" height="2.24307" rx="1.12154" fill="#222222"/>
<rect x="122.373" y="59.6401" width="2.24307" height="9.71998" rx="1.12154" fill="#222222"/>
<rect x="126.336" y="58.145" width="2.24307" height="12.7107" rx="1.12154" fill="#222222"/>
<rect x="130.299" y="60.0142" width="2.24307" height="8.97229" rx="1.12154" fill="#222222"/>
<rect x="134.262" y="61.1357" width="2.24307" height="6.72922" rx="1.12154" fill="#222222"/>
<rect x="138.226" y="57.771" width="2.24307" height="13.4584" rx="1.12154" fill="#222222"/>
<rect x="142.188" y="53.6587" width="2.24307" height="21.683" rx="1.12154" fill="#222222"/>
<rect x="146.152" y="56.6494" width="2.24307" height="15.7015" rx="1.12154" fill="#222222"/>
<rect x="150.115" y="58.5186" width="2.24307" height="11.9631" rx="1.12154" fill="#222222"/>
<rect x="154.078" y="56.6494" width="2.24307" height="15.7015" rx="1.12154" fill="#222222"/>
<rect x="158.041" y="55.1543" width="2.24307" height="18.6923" rx="1.12154" fill="#222222"/>
<rect x="162.004" y="57.0234" width="2.24307" height="14.9538" rx="1.12154" fill="#222222"/>
<rect x="165.967" y="56.2754" width="2.24307" height="16.4492" rx="1.12154" fill="#222222"/>
<rect x="169.931" y="59.0796" width="2.24307" height="10.8415" rx="1.12154" fill="#222222"/>
<rect x="173.894" y="61.5093" width="2.24307" height="5.98153" rx="1.12154" fill="#222222"/>
<rect x="177.857" y="63.0049" width="2.24307" height="2.99076" rx="1.12154" fill="#222222"/>
<rect x="181.82" y="61.1357" width="2.24307" height="6.72922" rx="1.12154" fill="#222222"/>
<rect x="185.783" y="63.0049" width="2.24307" height="2.99076" rx="1.12154" fill="#222222"/>
<rect x="189.746" y="63.0049" width="2.24307" height="2.99076" rx="1.12154" fill="#222222"/>
<rect x="193.709" y="59.6401" width="2.24307" height="9.71998" rx="1.12154" fill="#222222"/>
<rect x="197.672" y="61.5093" width="2.24307" height="5.98153" rx="1.12154" fill="#222222"/>
<rect x="201.635" y="63.0049" width="2.24307" height="2.99076" rx="1.12154" fill="#222222"/>
<rect x="206.122" y="61.1353" width="2.24307" height="6.72922" rx="1.12154" fill="#D3D2D2"/>
<rect x="210.084" y="59.0796" width="2.24307" height="10.8415" rx="1.12154" fill="#D3D2D2"/>
<rect x="214.048" y="56.6494" width="2.24307" height="15.7015" rx="1.12154" fill="#D3D2D2"/>
<rect x="218.011" y="54.0327" width="2.24307" height="20.9354" rx="1.12154" fill="#D3D2D2"/>
<rect x="221.974" y="57.0234" width="2.24307" height="14.9538" rx="1.12154" fill="#D3D2D2"/>
<rect x="225.937" y="62.6309" width="2.24307" height="3.73846" rx="1.12154" fill="#D3D2D2"/>
<rect x="229.9" y="58.145" width="2.24307" height="12.7107" rx="1.12154" fill="#D3D2D2"/>
<rect x="233.863" y="60.0142" width="2.24307" height="8.97229" rx="1.12154" fill="#D3D2D2"/>
<rect x="237.827" y="61.5093" width="2.24307" height="5.98153" rx="1.12154" fill="#D3D2D2"/>
<rect x="241.79" y="59.0796" width="2.24307" height="10.8415" rx="1.12154" fill="#D3D2D2"/>
<rect x="245.753" y="56.2754" width="2.24307" height="16.4492" rx="1.12154" fill="#D3D2D2"/>
<rect x="249.716" y="53.6587" width="2.24307" height="21.683" rx="1.12154" fill="#D3D2D2"/>
<rect x="253.679" y="60.0142" width="2.24307" height="8.97229" rx="1.12154" fill="#D3D2D2"/>
<rect x="257.642" y="60.0142" width="2.24307" height="8.97229" rx="1.12154" fill="#D3D2D2"/>
<rect x="261.605" y="61.1357" width="2.24307" height="6.72922" rx="1.12154" fill="#D3D2D2"/>
<rect x="265.568" y="63.0049" width="2.24307" height="2.99076" rx="1.12154" fill="#D3D2D2"/>
<rect x="269.531" y="63.3789" width="2.24307" height="2.24307" rx="1.12154" fill="#D3D2D2"/>
<rect x="273.495" y="59.6401" width="2.24307" height="9.71998" rx="1.12154" fill="#D3D2D2"/>
<rect x="277.458" y="58.145" width="2.24307" height="12.7107" rx="1.12154" fill="#D3D2D2"/>
<rect x="281.421" y="60.0142" width="2.24307" height="8.97229" rx="1.12154" fill="#D3D2D2"/>
<rect x="285.384" y="61.1357" width="2.24307" height="6.72922" rx="1.12154" fill="#D3D2D2"/>
<rect x="289.347" y="57.771" width="2.24307" height="13.4584" rx="1.12154" fill="#D3D2D2"/>
<rect x="293.31" y="53.6587" width="2.24307" height="21.683" rx="1.12154" fill="#D3D2D2"/>
<rect x="297.273" y="56.6494" width="2.24307" height="15.7015" rx="1.12154" fill="#D3D2D2"/>
<rect x="301.236" y="58.5186" width="2.24307" height="11.9631" rx="1.12154" fill="#D3D2D2"/>
<rect x="305.2" y="56.6494" width="2.24307" height="15.7015" rx="1.12154" fill="#D3D2D2"/>
<rect x="309.163" y="55.1543" width="2.24307" height="18.6923" rx="1.12154" fill="#D3D2D2"/>
<rect x="313.126" y="57.0234" width="2.24307" height="14.9538" rx="1.12154" fill="#D3D2D2"/>
<rect x="317.089" y="56.2754" width="2.24307" height="16.4492" rx="1.12154" fill="#D3D2D2"/>
<rect x="321.052" y="59.0796" width="2.24307" height="10.8415" rx="1.12154" fill="#D3D2D2"/>
<rect x="325.015" y="61.5093" width="2.24307" height="5.98153" rx="1.12154" fill="#D3D2D2"/>
<rect x="328.979" y="63.0049" width="2.24307" height="2.99076" rx="1.12154" fill="#D3D2D2"/>
<rect x="332.941" y="61.1357" width="2.24307" height="6.72922" rx="1.12154" fill="#D3D2D2"/>
<rect x="336.904" y="63.0049" width="2.24307" height="2.99076" rx="1.12154" fill="#D3D2D2"/>
<rect x="340.868" y="63.0049" width="2.24307" height="2.99076" rx="1.12154" fill="#D3D2D2"/>
<rect x="344.831" y="59.6401" width="2.24307" height="9.71998" rx="1.12154" fill="#D3D2D2"/>
<rect x="348.794" y="61.5093" width="2.24307" height="5.98153" rx="1.12154" fill="#D3D2D2"/>
<rect x="352.757" y="63.0049" width="2.24307" height="2.99076" rx="1.12154" fill="#D3D2D2"/>
<path d="M44 120.768C45.3333 121.538 45.3333 123.462 44 124.232L32 131.16C30.6667 131.93 29 130.968 29 129.428L29 115.572C29 114.032 30.6667 113.07 32 113.84L44 120.768Z" fill="#51A1A6"/>
<rect x="55" y="120.631" width="2.24307" height="3.73846" rx="1.12154" fill="#222222"/>
<rect x="58.9629" y="117.08" width="2.24307" height="10.8415" rx="1.12154" fill="#222222"/>
<rect x="62.9263" y="114.649" width="2.24307" height="15.7015" rx="1.12154" fill="#222222"/>
<rect x="66.8892" y="112.033" width="2.24307" height="20.9354" rx="1.12154" fill="#222222"/>
<rect x="70.8525" y="115.023" width="2.24307" height="14.9538" rx="1.12154" fill="#222222"/>
<rect x="74.8154" y="120.631" width="2.24307" height="3.73846" rx="1.12154" fill="#222222"/>
<rect x="78.7788" y="116.145" width="2.24307" height="12.7107" rx="1.12154" fill="#222222"/>
<rect x="82.7417" y="118.014" width="2.24307" height="8.97229" rx="1.12154" fill="#222222"/>
<rect x="86.7051" y="119.509" width="2.24307" height="5.98153" rx="1.12154" fill="#222222"/>
<rect x="90.668" y="117.08" width="2.24307" height="10.8415" rx="1.12154" fill="#222222"/>
<rect x="94.6313" y="114.275" width="2.24307" height="16.4492" rx="1.12154" fill="#222222"/>
<rect x="98.5942" y="111.659" width="2.24307" height="21.683" rx="1.12154" fill="#222222"/>
<rect x="102.558" y="118.014" width="2.24307" height="8.97229" rx="1.12154" fill="#222222"/>
<rect x="106.521" y="118.014" width="2.24307" height="8.97229" rx="1.12154" fill="#222222"/>
<rect x="110.484" y="119.136" width="2.24307" height="6.72922" rx="1.12154" fill="#222222"/>
<rect x="114.447" y="121.005" width="2.24307" height="2.99076" rx="1.12154" fill="#222222"/>
<rect x="118.41" y="121.379" width="2.24307" height="2.24307" rx="1.12154" fill="#222222"/>
<rect x="122.373" y="117.64" width="2.24307" height="9.71998" rx="1.12154" fill="#222222"/>
<rect x="126.336" y="116.145" width="2.24307" height="12.7107" rx="1.12154" fill="#222222"/>
<rect x="130.299" y="118.014" width="2.24307" height="8.97229" rx="1.12154" fill="#222222"/>
<rect x="134.262" y="119.136" width="2.24307" height="6.72922" rx="1.12154" fill="#222222"/>
<rect x="138.226" y="115.771" width="2.24307" height="13.4584" rx="1.12154" fill="#222222"/>
<rect x="142.188" y="111.659" width="2.24307" height="21.683" rx="1.12154" fill="#222222"/>
<rect x="146.152" y="114.649" width="2.24307" height="15.7015" rx="1.12154" fill="#222222"/>
<rect x="150.115" y="116.519" width="2.24307" height="11.9631" rx="1.12154" fill="#222222"/>
<rect x="154.078" y="114.649" width="2.24307" height="15.7015" rx="1.12154" fill="#222222"/>
<rect x="158.041" y="113.154" width="2.24307" height="18.6923" rx="1.12154" fill="#222222"/>
<rect x="162.004" y="115.023" width="2.24307" height="14.9538" rx="1.12154" fill="#222222"/>
<rect x="165.967" y="114.275" width="2.24307" height="16.4492" rx="1.12154" fill="#222222"/>
<rect x="169.931" y="117.08" width="2.24307" height="10.8415" rx="1.12154" fill="#222222"/>
<rect x="173.894" y="119.509" width="2.24307" height="5.98153" rx="1.12154" fill="#222222"/>
<rect x="177.857" y="121.005" width="2.24307" height="2.99076" rx="1.12154" fill="#222222"/>
<rect x="181.82" y="119.136" width="2.24307" height="6.72922" rx="1.12154" fill="#222222"/>
<rect x="185.783" y="121.005" width="2.24307" height="2.99076" rx="1.12154" fill="#222222"/>
<rect x="189.746" y="121.005" width="2.24307" height="2.99076" rx="1.12154" fill="#222222"/>
<rect x="193.709" y="117.64" width="2.24307" height="9.71998" rx="1.12154" fill="#222222"/>
<rect x="197.672" y="119.509" width="2.24307" height="5.98153" rx="1.12154" fill="#222222"/>
<rect x="201.635" y="121.005" width="2.24307" height="2.99076" rx="1.12154" fill="#222222"/>
<rect x="206.122" y="119.135" width="2.24307" height="6.72922" rx="1.12154" fill="#D3D2D2"/>
<rect x="210.084" y="117.08" width="2.24307" height="10.8415" rx="1.12154" fill="#D3D2D2"/>
<rect x="214.048" y="114.649" width="2.24307" height="15.7015" rx="1.12154" fill="#D3D2D2"/>
<rect x="218.011" y="112.033" width="2.24307" height="20.9354" rx="1.12154" fill="#D3D2D2"/>
<rect x="221.974" y="115.023" width="2.24307" height="14.9538" rx="1.12154" fill="#D3D2D2"/>
<rect x="225.937" y="120.631" width="2.24307" height="3.73846" rx="1.12154" fill="#D3D2D2"/>
<rect x="229.9" y="116.145" width="2.24307" height="12.7107" rx="1.12154" fill="#D3D2D2"/>
<rect x="233.863" y="118.014" width="2.24307" height="8.97229" rx="1.12154" fill="#D3D2D2"/>
<rect x="237.827" y="119.509" width="2.24307" height="5.98153" rx="1.12154" fill="#D3D2D2"/>
<rect x="241.79" y="117.08" width="2.24307" height="10.8415" rx="1.12154" fill="#D3D2D2"/>
<rect x="245.753" y="114.275" width="2.24307" height="16.4492" rx="1.12154" fill="#D3D2D2"/>
<rect x="249.716" y="111.659" width="2.24307" height="21.683" rx="1.12154" fill="#D3D2D2"/>
<rect x="253.679" y="118.014" width="2.24307" height="8.97229" rx="1.12154" fill="#D3D2D2"/>
<rect x="257.642" y="118.014" width="2.24307" height="8.97229" rx="1.12154" fill="#D3D2D2"/>
<rect x="261.605" y="119.136" width="2.24307" height="6.72922" rx="1.12154" fill="#D3D2D2"/>
<rect x="265.568" y="121.005" width="2.24307" height="2.99076" rx="1.12154" fill="#D3D2D2"/>
<rect x="269.531" y="121.379" width="2.24307" height="2.24307" rx="1.12154" fill="#D3D2D2"/>
<rect x="273.495" y="117.64" width="2.24307" height="9.71998" rx="1.12154" fill="#D3D2D2"/>
<rect x="277.458" y="116.145" width="2.24307" height="12.7107" rx="1.12154" fill="#D3D2D2"/>
<rect x="281.421" y="118.014" width="2.24307" height="8.97229" rx="1.12154" fill="#D3D2D2"/>
<rect x="285.384" y="119.136" width="2.24307" height="6.72922" rx="1.12154" fill="#D3D2D2"/>
<rect x="289.347" y="115.771" width="2.24307" height="13.4584" rx="1.12154" fill="#D3D2D2"/>
<rect x="293.31" y="111.659" width="2.24307" height="21.683" rx="1.12154" fill="#D3D2D2"/>
<rect x="297.273" y="114.649" width="2.24307" height="15.7015" rx="1.12154" fill="#D3D2D2"/>
<rect x="301.236" y="116.519" width="2.24307" height="11.9631" rx="1.12154" fill="#D3D2D2"/>
<rect x="305.2" y="114.649" width="2.24307" height="15.7015" rx="1.12154" fill="#D3D2D2"/>
<rect x="309.163" y="113.154" width="2.24307" height="18.6923" rx="1.12154" fill="#D3D2D2"/>
<rect x="313.126" y="115.023" width="2.24307" height="14.9538" rx="1.12154" fill="#D3D2D2"/>
<rect x="317.089" y="114.275" width="2.24307" height="16.4492" rx="1.12154" fill="#D3D2D2"/>
<rect x="321.052" y="117.08" width="2.24307" height="10.8415" rx="1.12154" fill="#D3D2D2"/>
<rect x="325.015" y="119.509" width="2.24307" height="5.98153" rx="1.12154" fill="#D3D2D2"/>
<rect x="328.979" y="121.005" width="2.24307" height="2.99076" rx="1.12154" fill="#D3D2D2"/>
<rect x="332.941" y="119.136" width="2.24307" height="6.72922" rx="1.12154" fill="#D3D2D2"/>
<rect x="336.904" y="121.005" width="2.24307" height="2.99076" rx="1.12154" fill="#D3D2D2"/>
<rect x="340.868" y="121.005" width="2.24307" height="2.99076" rx="1.12154" fill="#D3D2D2"/>
<rect x="344.831" y="117.64" width="2.24307" height="9.71998" rx="1.12154" fill="#D3D2D2"/>
<rect x="348.794" y="119.509" width="2.24307" height="5.98153" rx="1.12154" fill="#D3D2D2"/>
<rect x="352.757" y="121.005" width="2.24307" height="2.99076" rx="1.12154" fill="#D3D2D2"/>
<g clip-path="url(#clip0_17660_164721)">
<rect x="369" y="54.5" width="21" height="21" rx="10.5" fill="#222222"/>
<g filter="url(#filter0_dd_17660_164721)">
<rect x="371.812" y="57.2056" width="15.5893" height="15.5893" rx="7.79464" fill="white"/>
<path fillRule="evenodd" clipRule="evenodd" d="M383.673 62.1463C383.91 62.3831 383.91 62.7669 383.673 63.0037L378.823 67.8537C378.586 68.0904 378.203 68.0904 377.966 67.8537L375.541 65.4287C375.304 65.1919 375.304 64.8081 375.541 64.5713C375.778 64.3346 376.161 64.3346 376.398 64.5713L378.395 66.5676L382.816 62.1463C383.053 61.9096 383.436 61.9096 383.673 62.1463Z" fill="#222222" stroke="#222222" stroke-width="0.433036" stroke-linecap="round" stroke-linejoin="round"/>
</g>
</g>
<g clip-path="url(#clip1_17660_164721)">
<rect x="369" y="112.5" width="21" height="21" rx="10.5" fill="#222222"/>
<g filter="url(#filter1_dd_17660_164721)">
<rect x="371.643" y="115.071" width="15.8571" height="15.8571" rx="7.92857" fill="white"/>
<path fillRule="evenodd" clipRule="evenodd" d="M376.052 119.48C376.293 119.239 376.683 119.239 376.924 119.48L379.571 122.127L382.218 119.48C382.459 119.239 382.85 119.239 383.09 119.48C383.331 119.721 383.331 120.111 383.09 120.352L380.443 122.999L383.09 125.647C383.331 125.887 383.331 126.278 383.09 126.519C382.85 126.76 382.459 126.76 382.218 126.519L379.571 123.871L376.924 126.519C376.683 126.76 376.293 126.76 376.052 126.519C375.811 126.278 375.811 125.887 376.052 125.647L378.699 122.999L376.052 120.352C375.811 120.111 375.811 119.721 376.052 119.48Z" fill="#222222" stroke="#222222" stroke-width="0.440476" stroke-linecap="round"/>
</g>
</g>
<defs>
<filter id="filter0_dd_17660_164721" x="369.214" y="55.4734" width="20.7858" height="20.7858" filterUnits="userSpaceOnUse" color-interpolation-filters="sRGB">
<feFlood flood-opacity="0" result="BackgroundImageFix"/>
<feColorMatrix in="SourceAlpha" type="matrix" values="0 0 0 0 0 0 0 0 0 0 0 0 0 0 0 0 0 0 127 0" result="hardAlpha"/>
<feOffset dy="0.866071"/>
<feGaussianBlur stdDeviation="0.866071"/>
<feColorMatrix type="matrix" values="0 0 0 0 0 0 0 0 0 0 0 0 0 0 0 0 0 0 0.06 0"/>
<feBlend mode="normal" in2="BackgroundImageFix" result="effect1_dropShadow_17660_164721"/>
<feColorMatrix in="SourceAlpha" type="matrix" values="0 0 0 0 0 0 0 0 0 0 0 0 0 0 0 0 0 0 127 0" result="hardAlpha"/>
<feOffset dy="0.866071"/>
<feGaussianBlur stdDeviation="1.29911"/>
<feColorMatrix type="matrix" values="0 0 0 0 0 0 0 0 0 0 0 0 0 0 0 0 0 0 0.1 0"/>
<feBlend mode="normal" in2="effect1_dropShadow_17660_164721" result="effect2_dropShadow_17660_164721"/>
<feBlend mode="normal" in="SourceGraphic" in2="effect2_dropShadow_17660_164721" result="shape"/>
</filter>
<filter id="filter1_dd_17660_164721" x="369" y="113.309" width="21.1426" height="21.1426" filterUnits="userSpaceOnUse" color-interpolation-filters="sRGB">
<feFlood flood-opacity="0" result="BackgroundImageFix"/>
<feColorMatrix in="SourceAlpha" type="matrix" values="0 0 0 0 0 0 0 0 0 0 0 0 0 0 0 0 0 0 127 0" result="hardAlpha"/>
<feOffset dy="0.880952"/>
<feGaussianBlur stdDeviation="0.880952"/>
<feColorMatrix type="matrix" values="0 0 0 0 0 0 0 0 0 0 0 0 0 0 0 0 0 0 0.06 0"/>
<feBlend mode="normal" in2="BackgroundImageFix" result="effect1_dropShadow_17660_164721"/>
<feColorMatrix in="SourceAlpha" type="matrix" values="0 0 0 0 0 0 0 0 0 0 0 0 0 0 0 0 0 0 127 0" result="hardAlpha"/>
<feOffset dy="0.880952"/>
<feGaussianBlur stdDeviation="1.32143"/>
<feColorMatrix type="matrix" values="0 0 0 0 0 0 0 0 0 0 0 0 0 0 0 0 0 0 0.1 0"/>
<feBlend mode="normal" in2="effect1_dropShadow_17660_164721" result="effect2_dropShadow_17660_164721"/>
<feBlend mode="normal" in="SourceGraphic" in2="effect2_dropShadow_17660_164721" result="shape"/>
</filter>
<clipPath id="clip0_17660_164721">
<rect x="369" y="54.5" width="21" height="21" rx="10.5" fill="white"/>
</clipPath>
<clipPath id="clip1_17660_164721">
<rect x="369" y="112.5" width="21" height="21" rx="10.5" fill="white"/>
</clipPath>
</defs>
</svg>
