<svg width="342" height="105" viewBox="0 0 342 105" fill="none" xmlns="http://www.w3.org/2000/svg">
<rect x="124" y="5.5" width="94" height="94" rx="47" fill="#51A1A6"/>
<path fill-rule="evenodd" clip-rule="evenodd" d="M171 31.1663C165.779 31.1663 161.43 34.9194 160.512 39.8753C160.311 40.9611 159.461 41.8107 158.375 42.0118C153.419 42.9296 149.666 47.2792 149.666 52.4997C149.666 58.3907 154.442 63.1663 160.333 63.1663C161.806 63.1663 163 64.3602 163 65.833C163 67.3058 161.806 68.4997 160.333 68.4997C151.496 68.4997 144.333 61.3362 144.333 52.4997C144.333 45.2777 149.116 39.1775 155.686 37.1858C157.678 30.6156 163.778 25.833 171 25.833C178.222 25.833 184.322 30.6156 186.314 37.1858C192.884 39.1775 197.666 45.2777 197.666 52.4997C197.666 61.3362 190.503 68.4997 181.666 68.4997C180.194 68.4997 179 67.3058 179 65.833C179 64.3602 180.194 63.1663 181.666 63.1663C187.557 63.1663 192.333 58.3907 192.333 52.4997C192.333 47.2792 188.58 42.9296 183.624 42.0118C182.538 41.8107 181.689 40.9611 181.488 39.8753C180.57 34.9194 176.22 31.1663 171 31.1663ZM168.333 50.9376L164.885 54.3853C163.844 55.4267 162.155 55.4267 161.114 54.3853C160.073 53.3439 160.073 51.6555 161.114 50.6141L169.114 42.6141C170.155 41.5727 171.844 41.5727 172.885 42.6141L180.885 50.6141C181.927 51.6555 181.927 53.3439 180.885 54.3853C179.844 55.4267 178.155 55.4267 177.114 54.3853L173.666 50.9376V76.4997C173.666 77.9724 172.472 79.1663 171 79.1663C169.527 79.1663 168.333 77.9724 168.333 76.4997V50.9376Z" fill="white"/>
<rect x="124" y="5.5" width="94" height="94" rx="47" stroke="#DFECED" stroke-width="10" stroke-linecap="round"/>
<rect x="297" y="30.5" width="45" height="45" rx="4" fill="#E9E9E9"/>
<path fill-rule="evenodd" clip-rule="evenodd" d="M309.5 41C309.5 39.8954 310.395 39 311.5 39H327.5C328.605 39 329.5 39.8954 329.5 41V55C329.5 56.1046 328.605 57 327.5 57H311.5C310.395 57 309.5 56.1046 309.5 55V41ZM313.5 41H311.5V43H313.5V41ZM315.5 41V47H323.5V41H315.5ZM325.5 41V43H327.5V41H325.5ZM327.5 45H325.5V47H327.5V45ZM327.5 49H325.5V51H327.5V49ZM327.5 53H325.5V55H327.5V53ZM323.5 55V49H315.5V55H323.5ZM313.5 55V53H311.5V55H313.5ZM311.5 51H313.5V49H311.5V51ZM311.5 47H313.5V45H311.5V47Z" fill="#222222"/>
<path d="M310.574 62.1818H311.864L313.591 66.3977H313.659L315.386 62.1818H316.676V68H315.665V64.0028H315.611L314.003 67.983H313.247L311.639 63.9943H311.585V68H310.574V62.1818ZM318.324 68V62.1818H320.506C320.953 62.1818 321.328 62.2652 321.631 62.4318C321.936 62.5985 322.166 62.8277 322.321 63.1193C322.478 63.4091 322.557 63.7386 322.557 64.108C322.557 64.4811 322.478 64.8125 322.321 65.1023C322.164 65.392 321.932 65.6203 321.625 65.7869C321.318 65.9517 320.94 66.0341 320.491 66.0341H319.045V65.1676H320.349C320.611 65.1676 320.825 65.1222 320.991 65.0312C321.158 64.9403 321.281 64.8153 321.361 64.6562C321.442 64.4972 321.483 64.3144 321.483 64.108C321.483 63.9015 321.442 63.7197 321.361 63.5625C321.281 63.4053 321.157 63.2831 320.989 63.196C320.822 63.107 320.607 63.0625 320.344 63.0625H319.378V68H318.324ZM323.81 66.9205V66.0824L326.279 62.1818H326.978V63.375H326.552L324.89 66.0085V66.054H328.336V66.9205H323.81ZM326.586 68V66.6648L326.597 66.2898V62.1818H327.592V68H326.586Z" fill="#222222"/>
<rect x="236" y="30.5" width="45" height="45" rx="4" fill="#E9E9E9"/>
<path fill-rule="evenodd" clip-rule="evenodd" d="M252.5 40C251.395 40 250.5 40.8953 250.5 42V51.0718L253.405 48.1669C254.186 47.386 255.452 47.3846 256.234 48.1674L256.234 48.1678L256.932 48.8659L260.802 44.9969L260.802 44.9968C261.583 44.216 262.849 44.2146 263.631 44.9974L263.631 44.9978L266.5 47.8668V42C266.5 40.8953 265.605 40 264.5 40H252.5ZM254.819 49.5812L250.5 53.9002V54C250.5 55.1047 251.395 56 252.5 56H264.5C265.605 56 266.5 55.1047 266.5 54V50.6952L262.216 46.4112L257.639 50.9872C257.248 51.3776 256.615 51.3776 256.225 50.9871L254.819 49.5812ZM268.5 54V50.282V50.28V42C268.5 39.7907 266.709 38 264.5 38H252.5C250.291 38 248.5 39.7907 248.5 42V53.486V54C248.5 56.2093 250.291 58 252.5 58H264.5C266.709 58 268.5 56.2093 268.5 54ZM255.722 42.6997C255.185 42.1628 254.315 42.1628 253.778 42.6997C253.241 43.2367 253.241 44.1073 253.778 44.6443C254.315 45.1812 255.185 45.1812 255.722 44.6443C256.259 44.1073 256.259 43.2367 255.722 42.6997Z" fill="#222222"/>
<path d="M252.869 62.1818H253.915V66.2727C253.913 66.6477 253.833 66.9706 253.676 67.2415C253.519 67.5104 253.299 67.7178 253.017 67.8636C252.737 68.0076 252.41 68.0795 252.037 68.0795C251.696 68.0795 251.389 68.0189 251.116 67.8977C250.846 67.7746 250.631 67.5928 250.472 67.3523C250.313 67.1117 250.233 66.8125 250.233 66.4545H251.281C251.283 66.6117 251.317 66.7472 251.384 66.8608C251.452 66.9744 251.545 67.0616 251.665 67.1222C251.784 67.1828 251.921 67.2131 252.077 67.2131C252.245 67.2131 252.388 67.178 252.506 67.108C252.623 67.036 252.712 66.9299 252.773 66.7898C252.835 66.6496 252.867 66.4773 252.869 66.2727V62.1818ZM255.558 68V62.1818H257.74C258.187 62.1818 258.562 62.2652 258.865 62.4318C259.17 62.5985 259.4 62.8277 259.555 63.1193C259.713 63.4091 259.791 63.7386 259.791 64.108C259.791 64.4811 259.713 64.8125 259.555 65.1023C259.398 65.392 259.166 65.6203 258.859 65.7869C258.553 65.9517 258.175 66.0341 257.726 66.0341H256.28V65.1676H257.584C257.845 65.1676 258.059 65.1222 258.226 65.0312C258.393 64.9403 258.516 64.8153 258.595 64.6562C258.677 64.4972 258.717 64.3144 258.717 64.108C258.717 63.9015 258.677 63.7197 258.595 63.5625C258.516 63.4053 258.392 63.2831 258.223 63.196C258.056 63.107 257.841 63.0625 257.578 63.0625H256.612V68H255.558ZM265.104 64.0398C265.057 63.8864 264.992 63.7491 264.908 63.6278C264.827 63.5047 264.728 63.3996 264.613 63.3125C264.499 63.2254 264.369 63.16 264.221 63.1165C264.073 63.071 263.912 63.0483 263.738 63.0483C263.425 63.0483 263.147 63.1269 262.903 63.2841C262.658 63.4413 262.466 63.6723 262.326 63.9773C262.188 64.2803 262.119 64.6496 262.119 65.0852C262.119 65.5246 262.188 65.8968 262.326 66.2017C262.464 66.5066 262.656 66.7386 262.903 66.8977C263.149 67.0549 263.435 67.1335 263.761 67.1335C264.056 67.1335 264.312 67.0767 264.528 66.9631C264.746 66.8494 264.913 66.6884 265.031 66.4801C265.148 66.2699 265.207 66.0237 265.207 65.7415L265.445 65.7784H263.866V64.9545H266.227V65.6534C266.227 66.1515 266.121 66.5824 265.908 66.946C265.696 67.3097 265.405 67.59 265.033 67.7869C264.662 67.982 264.236 68.0795 263.755 68.0795C263.219 68.0795 262.748 67.9593 262.343 67.7188C261.94 67.4763 261.624 67.1326 261.397 66.6875C261.172 66.2405 261.059 65.7102 261.059 65.0966C261.059 64.6269 261.125 64.2074 261.258 63.8381C261.392 63.4688 261.58 63.1553 261.82 62.8977C262.061 62.6383 262.343 62.4413 262.667 62.3068C262.991 62.1705 263.343 62.1023 263.724 62.1023C264.046 62.1023 264.346 62.1496 264.624 62.2443C264.903 62.3371 265.15 62.4697 265.366 62.642C265.584 62.8144 265.763 63.0189 265.903 63.2557C266.043 63.4924 266.135 63.7538 266.178 64.0398H265.104Z" fill="#222222"/>
<rect y="29.25" width="45" height="45" rx="4" fill="#E9E9E9"/>
<path fill-rule="evenodd" clip-rule="evenodd" d="M17.5 38.75C16.9477 38.75 16.5 39.1977 16.5 39.75V53.75C16.5 54.3023 16.9477 54.75 17.5 54.75H27.5C28.0523 54.75 28.5 54.3023 28.5 53.75L28.5 44.1642L23.0858 38.75H17.5ZM14.5 39.75C14.5 38.0931 15.8431 36.75 17.5 36.75H23.0858C23.6162 36.75 24.1249 36.9607 24.5 37.3358L29.9142 42.75C30.2893 43.1251 30.5 43.6338 30.5 44.1642V53.75C30.5 55.4069 29.1569 56.75 27.5 56.75H17.5C15.8431 56.75 14.5 55.4069 14.5 53.75V39.75ZM18.5 46.75C18.5 46.1977 18.9477 45.75 19.5 45.75H25.5C26.0523 45.75 26.5 46.1977 26.5 46.75C26.5 47.3023 26.0523 47.75 25.5 47.75H19.5C18.9477 47.75 18.5 47.3023 18.5 46.75ZM18.5 50.75C18.5 50.1977 18.9477 49.75 19.5 49.75H25.5C26.0523 49.75 26.5 50.1977 26.5 50.75C26.5 51.3023 26.0523 51.75 25.5 51.75H19.5C18.9477 51.75 18.5 51.3023 18.5 50.75Z" fill="#222222"/>
<path d="M15.5455 66.75H13.5739V60.9318H15.5852C16.1629 60.9318 16.6591 61.0483 17.0739 61.2812C17.4905 61.5123 17.8106 61.8447 18.0341 62.2784C18.2576 62.7121 18.3693 63.2311 18.3693 63.8352C18.3693 64.4413 18.2566 64.9621 18.0312 65.3977C17.8078 65.8333 17.4848 66.1676 17.0625 66.4006C16.642 66.6335 16.1364 66.75 15.5455 66.75ZM14.6278 65.8381H15.4943C15.8996 65.8381 16.2377 65.7642 16.5085 65.6165C16.7794 65.4669 16.983 65.2443 17.1193 64.9489C17.2557 64.6515 17.3239 64.2803 17.3239 63.8352C17.3239 63.3902 17.2557 63.0208 17.1193 62.7273C16.983 62.4318 16.7813 62.2112 16.5142 62.0653C16.2491 61.9176 15.9195 61.8438 15.5256 61.8438H14.6278V65.8381ZM25.0696 63.8409C25.0696 64.4678 24.9522 65.0047 24.7173 65.4517C24.4844 65.8968 24.1662 66.2377 23.7628 66.4744C23.3613 66.7112 22.9058 66.8295 22.3963 66.8295C21.8868 66.8295 21.4304 66.7112 21.027 66.4744C20.6255 66.2358 20.3073 65.8939 20.0724 65.4489C19.8395 65.0019 19.723 64.4659 19.723 63.8409C19.723 63.214 19.8395 62.678 20.0724 62.233C20.3073 61.786 20.6255 61.4441 21.027 61.2074C21.4304 60.9706 21.8868 60.8523 22.3963 60.8523C22.9058 60.8523 23.3613 60.9706 23.7628 61.2074C24.1662 61.4441 24.4844 61.786 24.7173 62.233C24.9522 62.678 25.0696 63.214 25.0696 63.8409ZM24.0099 63.8409C24.0099 63.3996 23.9408 63.0275 23.8026 62.7244C23.6662 62.4195 23.4768 62.1894 23.2344 62.0341C22.992 61.8769 22.7126 61.7983 22.3963 61.7983C22.08 61.7983 21.8007 61.8769 21.5582 62.0341C21.3158 62.1894 21.1255 62.4195 20.9872 62.7244C20.8509 63.0275 20.7827 63.3996 20.7827 63.8409C20.7827 64.2822 20.8509 64.6553 20.9872 64.9602C21.1255 65.2633 21.3158 65.4934 21.5582 65.6506C21.8007 65.8059 22.08 65.8835 22.3963 65.8835C22.7126 65.8835 22.992 65.8059 23.2344 65.6506C23.4768 65.4934 23.6662 65.2633 23.8026 64.9602C23.9408 64.6553 24.0099 64.2822 24.0099 63.8409ZM31.5462 62.8949H30.4837C30.4534 62.7206 30.3975 62.5663 30.3161 62.4318C30.2346 62.2955 30.1333 62.1799 30.0121 62.0852C29.8909 61.9905 29.7526 61.9195 29.5973 61.8722C29.4439 61.8229 29.2782 61.7983 29.1001 61.7983C28.7839 61.7983 28.5036 61.8778 28.2592 62.0369C28.0149 62.1941 27.8236 62.4252 27.6854 62.7301C27.5471 63.0331 27.478 63.4034 27.478 63.8409C27.478 64.286 27.5471 64.661 27.6854 64.9659C27.8255 65.2689 28.0168 65.4981 28.2592 65.6534C28.5036 65.8068 28.7829 65.8835 29.0973 65.8835C29.2715 65.8835 29.4344 65.8608 29.5859 65.8153C29.7393 65.768 29.8767 65.6989 29.9979 65.608C30.121 65.517 30.2242 65.4053 30.3075 65.2727C30.3928 65.1402 30.4515 64.9886 30.4837 64.8182L31.5462 64.8239C31.5064 65.1004 31.4202 65.3598 31.2876 65.6023C31.157 65.8447 30.9856 66.0587 30.7734 66.2443C30.5613 66.428 30.3132 66.572 30.0291 66.6761C29.745 66.7784 29.4297 66.8295 29.0831 66.8295C28.5717 66.8295 28.1153 66.7112 27.7138 66.4744C27.3123 66.2377 26.996 65.8958 26.7649 65.4489C26.5339 65.0019 26.4183 64.4659 26.4183 63.8409C26.4183 63.214 26.5348 62.678 26.7678 62.233C27.0007 61.786 27.3179 61.4441 27.7195 61.2074C28.121 60.9706 28.5755 60.8523 29.0831 60.8523C29.407 60.8523 29.7081 60.8977 29.9865 60.9886C30.2649 61.0795 30.513 61.2131 30.7308 61.3892C30.9486 61.5634 31.1276 61.7775 31.2678 62.0312C31.4098 62.2831 31.5026 62.571 31.5462 62.8949Z" fill="#222222"/>
<rect x="61" y="30.625" width="45" height="45" rx="4" fill="#E9E9E9"/>
<path fill-rule="evenodd" clip-rule="evenodd" d="M79.004 40.126C78.4513 40.126 78.0032 40.5741 78.0032 41.1268V42.1277H82.0061C82.3568 42.1277 82.6933 42.1878 83.0061 42.2984V40.126H79.004ZM84.0061 38.126H79.004C77.3467 38.126 76.0032 39.4695 76.0032 41.1268V42.1277H76.002C74.3451 42.1277 73.002 43.4708 73.002 45.1277V51.1318C73.002 52.7887 74.3451 54.1318 76.002 54.1318H76.0032V55.1326C76.0032 56.79 77.3467 58.1335 79.004 58.1335H84.0061H89.0082C90.6655 58.1335 92.009 56.79 92.009 55.1326V51.1344L92.009 51.131L92.009 51.1276V45.2119L92.009 45.2085L92.009 45.2051V41.1268C92.009 39.4695 90.6655 38.126 89.0082 38.126H84.0061ZM85.0061 40.126V44.2085H90.009V41.1268C90.009 40.5741 89.5609 40.126 89.0082 40.126H85.0061ZM85.0061 46.2085V50.131H90.009V46.2085H85.0061ZM83.0061 51.1332L83.0061 51.1318V45.1277L83.0061 45.1263C83.0054 44.5746 82.5579 44.1277 82.0061 44.1277H76.002C75.4497 44.1277 75.002 44.5754 75.002 45.1277V51.1318C75.002 51.6841 75.4497 52.1318 76.002 52.1318H76.9984L77.0032 52.1318L77.008 52.1318H82.0061C82.5579 52.1318 83.0054 51.6849 83.0061 51.1332ZM83.0061 53.9611V56.1335H79.004C78.4513 56.1335 78.0032 55.6854 78.0032 55.1326V54.1318H82.0061C82.3568 54.1318 82.6933 54.0717 83.0061 53.9611ZM85.0061 56.1335V52.131H90.009V55.1326C90.009 55.6854 89.5609 56.1335 89.0082 56.1335H85.0061ZM76.9197 45.6197C77.339 45.2603 77.9703 45.3089 78.3297 45.7282L79.0711 46.5931L79.8124 45.7282C80.1719 45.3089 80.8032 45.2603 81.2225 45.6197C81.6418 45.9792 81.6904 46.6105 81.331 47.0298L80.3881 48.1297L81.331 49.2297C81.6904 49.649 81.6418 50.2803 81.2225 50.6397C80.8032 50.9991 80.1719 50.9506 79.8124 50.5312L79.0711 49.6663L78.3297 50.5312C77.9703 50.9506 77.339 50.9991 76.9197 50.6397C76.5003 50.2803 76.4518 49.649 76.8112 49.2297L77.754 48.1297L76.8112 47.0298C76.4518 46.6105 76.5003 45.9792 76.9197 45.6197Z" fill="#222222"/>
<path d="M76.4545 62.3068L77.7358 64.4375H77.7812L79.0682 62.3068H80.2699L78.4773 65.2159L80.2983 68.125H79.0767L77.7812 66.0085H77.7358L76.4403 68.125H75.2244L77.0625 65.2159L75.2472 62.3068H76.4545ZM81.5973 68.125V62.3068H82.6513V67.2415H85.2138V68.125H81.5973ZM89.7905 63.9062C89.764 63.6581 89.6522 63.465 89.4553 63.3267C89.2602 63.1884 89.0064 63.1193 88.6939 63.1193C88.4742 63.1193 88.2857 63.1525 88.1286 63.2188C87.9714 63.285 87.8511 63.375 87.7678 63.4886C87.6844 63.6023 87.6418 63.732 87.6399 63.8778C87.6399 63.9991 87.6674 64.1042 87.7223 64.1932C87.7791 64.2822 87.8558 64.358 87.9524 64.4205C88.049 64.4811 88.156 64.5322 88.2734 64.5739C88.3909 64.6155 88.5092 64.6506 88.6286 64.679L89.174 64.8153C89.3937 64.8665 89.6049 64.9356 89.8075 65.0227C90.0121 65.1098 90.1948 65.2197 90.3558 65.3523C90.5187 65.4848 90.6475 65.6449 90.7422 65.8324C90.8369 66.0199 90.8842 66.2396 90.8842 66.4915C90.8842 66.8324 90.7971 67.1326 90.6229 67.392C90.4486 67.6496 90.1967 67.8513 89.8672 67.9972C89.5395 68.1411 89.1428 68.2131 88.6768 68.2131C88.2242 68.2131 87.8312 68.143 87.4979 68.0028C87.1664 67.8627 86.907 67.6581 86.7195 67.3892C86.5339 67.1203 86.4335 66.7926 86.4183 66.4062H87.4553C87.4704 66.6089 87.5329 66.7775 87.6428 66.9119C87.7526 67.0464 87.8956 67.1468 88.0717 67.2131C88.2498 67.2794 88.4486 67.3125 88.6683 67.3125C88.8975 67.3125 89.0982 67.2784 89.2706 67.2102C89.4448 67.1402 89.5812 67.0436 89.6797 66.9205C89.7782 66.7955 89.8284 66.6496 89.8303 66.483C89.8284 66.3314 89.7839 66.2064 89.6967 66.108C89.6096 66.0076 89.4875 65.9242 89.3303 65.858C89.175 65.7898 88.9931 65.7292 88.7848 65.6761L88.1229 65.5057C87.6437 65.3826 87.2649 65.196 86.9865 64.946C86.71 64.6941 86.5717 64.3598 86.5717 63.9432C86.5717 63.6004 86.6645 63.3002 86.8501 63.0426C87.0376 62.785 87.2924 62.5852 87.6143 62.4432C87.9363 62.2992 88.3009 62.2273 88.7081 62.2273C89.121 62.2273 89.4827 62.2992 89.7933 62.4432C90.1058 62.5852 90.3511 62.7831 90.5291 63.0369C90.7071 63.2888 90.799 63.5786 90.8047 63.9062H89.7905Z" fill="#222222"/>
</svg>
