<svg width="412" height="155" viewBox="0 0 412 155" fill="none" xmlns="http://www.w3.org/2000/svg">
<g clip-path="url(#clip0_17652_148998)">
<path d="M146.141 61.5663C150.191 62.1499 154.31 61.1416 157.593 59.5764C160.875 58.0113 163.105 54.8773 161.908 51.763C161.343 50.3215 160.132 49.0241 158.67 47.9785C156.152 46.1788 152.639 45.0568 149.582 45.6187C146.331 46.2186 144.172 48.5413 140.924 49.1506C139.136 49.4874 137.176 49.2666 135.285 49.1537C132.573 48.9918 129.783 49.0635 127.474 49.9594C125.165 50.8552 123.437 52.7329 123.75 54.837C124.084 57.1001 126.659 59.0531 129.45 59.9358C132.24 60.8184 135.225 60.8632 138.118 60.8692C141.01 60.8752 143.888 61.2346 146.128 61.5593" fill="#A7A5A6"/>
</g>
<ellipse cx="74.0944" cy="62.9038" rx="34.0944" ry="34.4038" fill="#F7F7F7"/>
<path d="M122.64 40.1099L171.851 126.119H73.4292L122.64 40.1099Z" fill="#D3D2D2"/>
<path d="M163.75 63.6123L199.473 126.049H128.026L163.75 63.6123Z" fill="#E9E9E9"/>
<ellipse cx="168.52" cy="102.51" rx="4.77041" ry="11.9972" fill="white"/>
<line x1="168.448" y1="101.917" x2="168.448" y2="126.06" stroke="#4E4C4D" stroke-width="0.883084"/>
<line y1="-0.441542" x2="3.81079" y2="-0.441542" transform="matrix(-0.577762 0.816206 -0.811239 -0.584714 170.208 102.954)" stroke="#4E4C4D" stroke-width="0.883084"/>
<line y1="-0.441542" x2="3.86006" y2="-0.441542" transform="matrix(-0.684465 -0.729046 0.722843 -0.691012 168.74 109.175)" stroke="#4E4C4D" stroke-width="0.883084"/>
<ellipse cx="151.122" cy="112.315" rx="4.77041" ry="7.92844" fill="white"/>
<line x1="151.003" y1="108.917" x2="151.003" y2="126.19" stroke="#4E4C4D" stroke-width="0.883084"/>
<line y1="-0.441542" x2="3.81079" y2="-0.441542" transform="matrix(-0.577762 0.816206 -0.811239 -0.584714 152.811 110.032)" stroke="#4E4C4D" stroke-width="0.883084"/>
<line y1="-0.441542" x2="3.86006" y2="-0.441542" transform="matrix(-0.684465 -0.729046 0.722843 -0.691012 151.343 116.253)" stroke="#4E4C4D" stroke-width="0.883084"/>
<path fillRule="evenodd" clipRule="evenodd" d="M112.398 58.1354L122.711 40.1099L133.025 58.1353C130.483 60.9768 126.804 62.7626 122.711 62.7626C118.619 62.7626 114.94 60.9768 112.398 58.1354Z" fill="#E9E9E9"/>
<path fillRule="evenodd" clipRule="evenodd" d="M153.367 81.6378L163.681 63.6123L173.994 81.6378C171.452 84.4793 167.773 86.2651 163.681 86.2651C159.588 86.2651 155.909 84.4793 153.367 81.6378Z" fill="#D3D2D2"/>
<g clip-path="url(#clip1_17652_148998)">
<path d="M77.9526 84.2187C82.0021 84.8023 86.1219 83.7939 89.4041 82.2288C92.6864 80.6636 94.9168 77.5297 93.7193 74.4153C93.1542 72.9739 91.9437 71.6764 90.4812 70.6309C87.9637 68.8311 84.451 67.7092 81.3937 68.2711C78.1425 68.8709 75.9833 71.1936 72.7359 71.8029C70.948 72.1397 68.9875 71.9189 67.0967 71.8061C64.385 71.6442 61.594 71.7159 59.2851 72.6117C56.9762 73.5075 55.2489 75.3853 55.5611 77.4894C55.8953 79.7524 58.4704 81.7054 61.2612 82.5881C64.052 83.4708 67.0369 83.5156 69.9294 83.5216C72.822 83.5276 75.6996 83.887 77.9397 84.2116" fill="#A7A5A6"/>
</g>
<path d="M81.2499 63.6123L116.973 126.049H45.5264L81.2499 63.6123Z" fill="#E9E9E9"/>
<ellipse cx="73.1127" cy="102.51" rx="4.77041" ry="11.9972" fill="white"/>
<line x1="73.0407" y1="101.917" x2="73.0407" y2="126.06" stroke="#4E4C4D" stroke-width="0.883084"/>
<line y1="-0.441542" x2="3.81079" y2="-0.441542" transform="matrix(-0.577762 0.816206 -0.811239 -0.584714 74.8008 102.954)" stroke="#4E4C4D" stroke-width="0.883084"/>
<line y1="-0.441542" x2="3.86006" y2="-0.441542" transform="matrix(-0.684465 -0.729046 0.722843 -0.691012 73.3325 109.175)" stroke="#4E4C4D" stroke-width="0.883084"/>
<path fillRule="evenodd" clipRule="evenodd" d="M70.8672 81.6378L81.1807 63.6123L91.4941 81.6378C88.952 84.4793 85.273 86.2651 81.1806 86.2651C77.0883 86.2651 73.4093 84.4793 70.8672 81.6378Z" fill="#D3D2D2"/>
<g clip-path="url(#clip2_17652_148998)">
<path d="M54.714 60.8289C55.0474 60.652 55.3585 60.4565 55.6928 60.3149C57.5305 59.5364 59.7508 60.4866 60.5018 62.3539C60.8119 63.1071 60.8745 63.9408 60.6804 64.7326C60.6728 64.7618 60.6648 64.7921 60.6572 64.8213C60.632 64.9178 60.59 64.999 60.4794 64.9995C60.3688 65 60.3277 64.9158 60.2912 64.8137C60.1723 64.4451 60.0847 64.0582 59.9113 63.7171C58.9706 61.8655 56.6568 61.1644 54.8522 62.1669C54.6624 62.2724 54.4828 62.3966 54.2918 62.5165C54.2021 62.3455 54.1211 62.1698 54.0215 62.0051C52.9477 60.2231 50.7656 59.6462 48.9641 60.668C48.5879 60.884 48.2529 61.1661 47.9751 61.501C47.9028 61.5868 47.8286 61.6703 47.7063 61.602C47.584 61.5338 47.6133 61.4238 47.642 61.3168C48.1288 59.4808 49.8458 58.2945 51.7141 58.5363C53.051 58.7099 54.0179 59.4347 54.6222 60.6509C54.6469 60.7015 54.6701 60.7528 54.6947 60.8034C54.708 60.8177 54.715 60.8298 54.714 60.8289Z" fill="#4E4C4D"/>
</g>
<g clip-path="url(#clip3_17652_148998)">
<path d="M74.2718 53.4144C74.3881 53.1856 74.4849 52.9552 74.6153 52.7456C75.332 51.5933 76.9271 51.2474 78.0627 51.9859C78.5248 52.2809 78.8809 52.7177 79.0788 53.232C79.0858 53.2512 79.0931 53.2711 79.1002 53.2902C79.1234 53.3535 79.1314 53.415 79.0704 53.4587C79.0094 53.5024 78.9542 53.4719 78.8947 53.4297C78.6868 53.2725 78.4891 53.0927 78.2616 52.9721C77.0271 52.3168 75.4763 52.8373 74.8642 54.1006C74.7998 54.2335 74.7484 54.3727 74.6889 54.5141C74.5733 54.4547 74.4607 54.3892 74.3421 54.3372C73.0608 53.7727 71.6308 54.3102 71.0279 55.583C70.903 55.8502 70.8264 56.1378 70.8017 56.4323C70.7948 56.5082 70.7859 56.5835 70.692 56.5937C70.598 56.604 70.5718 56.5316 70.5464 56.4611C70.1078 55.254 70.6005 53.9233 71.7276 53.3236C72.5344 52.8947 73.349 52.9162 74.1524 53.352C74.1855 53.3702 74.2182 53.3896 74.2513 53.4078C74.2642 53.4106 74.2727 53.4145 74.2718 53.4144Z" fill="#4E4C4D"/>
</g>
<g clip-path="url(#clip4_17652_148998)">
<path d="M62.133 48.643C62.3212 48.4728 62.4918 48.2942 62.6863 48.1468C63.7552 47.3367 65.3536 47.5877 66.1453 48.6781C66.4693 49.1168 66.6454 49.6487 66.6477 50.1958C66.6474 50.2161 66.6472 50.2372 66.647 50.2574C66.6462 50.3243 66.6321 50.3841 66.5602 50.4027C66.4884 50.4213 66.4479 50.3733 66.4077 50.313C66.2705 50.0929 66.1507 49.8556 65.9825 49.6625C65.0701 48.6136 63.4512 48.54 62.4401 49.4904C62.3338 49.5905 62.2372 49.7009 62.1324 49.8105C62.0463 49.714 61.9651 49.6132 61.8736 49.5225C60.8858 48.5409 59.3728 48.5264 58.3669 49.4888C58.1572 49.6915 57.9852 49.9304 57.8588 50.1941C57.8257 50.2619 57.791 50.3285 57.7004 50.3043C57.6097 50.2801 57.611 50.2037 57.6122 50.1294C57.6308 48.8547 58.555 47.7992 59.8095 47.6476C60.7073 47.5396 61.4539 47.8512 62.0445 48.5424C62.0687 48.5712 62.0921 48.6008 62.1164 48.6295C62.1273 48.6367 62.1338 48.6434 62.133 48.643Z" fill="#4E4C4D"/>
</g>
<rect x="276" y="43.5" width="96" height="8" rx="2" fill="#D3D2D2"/>
<rect x="276" y="87.5" width="91" height="8" rx="2" fill="#D3D2D2"/>
<rect x="276" y="69.5" width="70" height="8" rx="2" fill="#D3D2D2"/>
<rect x="276" y="131.5" width="91" height="8" rx="2" fill="#D3D2D2"/>
<rect x="276" y="113.5" width="70" height="8" rx="2" fill="#D3D2D2"/>
<g filter="url(#filter0_d_17652_148998)">
<rect x="242" y="61.5" width="24" height="24" rx="12" fill="#51A1A6"/>
<path d="M250.325 79V77.4489L253.95 74.093C254.258 73.7947 254.516 73.5263 254.725 73.2876C254.937 73.049 255.098 72.8153 255.207 72.5866C255.317 72.3546 255.371 72.1044 255.371 71.8359C255.371 71.5376 255.304 71.2808 255.168 71.0653C255.032 70.8466 254.846 70.6792 254.611 70.5632C254.375 70.4439 254.109 70.3842 253.81 70.3842C253.499 70.3842 253.227 70.4472 252.995 70.5732C252.763 70.6991 252.584 70.8797 252.458 71.1151C252.332 71.3504 252.269 71.6304 252.269 71.9553H250.226C250.226 71.2891 250.377 70.7107 250.678 70.2202C250.98 69.7296 251.402 69.3501 251.946 69.0817C252.49 68.8132 253.116 68.679 253.825 68.679C254.554 68.679 255.189 68.8082 255.729 69.0668C256.273 69.322 256.696 69.6766 256.997 70.1307C257.299 70.5848 257.45 71.1051 257.45 71.6918C257.45 72.0762 257.373 72.4557 257.221 72.8303C257.072 73.2048 256.805 73.6207 256.42 74.0781C256.036 74.5322 255.494 75.0774 254.795 75.7138L253.308 77.1705V77.2401H257.584V79H250.325Z" fill="white"/>
<rect x="243" y="62.5" width="22" height="22" rx="11" stroke="white" stroke-width="2"/>
</g>
<g filter="url(#filter1_d_17652_148998)">
<rect x="91" y="91.5" width="24" height="24" rx="12" fill="#51A1A6"/>
<path d="M99.3253 109V107.449L102.95 104.093C103.258 103.795 103.516 103.526 103.725 103.288C103.937 103.049 104.098 102.815 104.207 102.587C104.317 102.355 104.371 102.104 104.371 101.836C104.371 101.538 104.304 101.281 104.168 101.065C104.032 100.847 103.846 100.679 103.611 100.563C103.375 100.444 103.109 100.384 102.81 100.384C102.499 100.384 102.227 100.447 101.995 100.573C101.763 100.699 101.584 100.88 101.458 101.115C101.332 101.35 101.269 101.63 101.269 101.955H99.2259C99.2259 101.289 99.3767 100.711 99.6783 100.22C99.9799 99.7296 100.402 99.3501 100.946 99.0817C101.49 98.8132 102.116 98.679 102.825 98.679C103.554 98.679 104.189 98.8082 104.729 99.0668C105.273 99.322 105.696 99.6766 105.997 100.131C106.299 100.585 106.45 101.105 106.45 101.692C106.45 102.076 106.373 102.456 106.221 102.83C106.072 103.205 105.805 103.621 105.42 104.078C105.036 104.532 104.494 105.077 103.795 105.714L102.308 107.17V107.24H106.584V109H99.3253Z" fill="white"/>
<rect x="92" y="92.5" width="22" height="22" rx="11" stroke="white" stroke-width="2"/>
</g>
<rect x="276" y="21.5" width="73" height="8" rx="2" fill="#D3D2D2"/>
<g filter="url(#filter2_d_17652_148998)">
<rect x="242" y="107.5" width="24" height="24" rx="12" fill="#51A1A6"/>
<path d="M253.589 125.139C252.846 125.139 252.185 125.012 251.605 124.756C251.028 124.498 250.573 124.143 250.238 123.692C249.906 123.238 249.736 122.715 249.726 122.121H251.893C251.907 122.37 251.988 122.589 252.137 122.778C252.29 122.963 252.492 123.107 252.744 123.21C252.996 123.313 253.279 123.364 253.594 123.364C253.922 123.364 254.212 123.306 254.464 123.19C254.716 123.074 254.913 122.914 255.055 122.708C255.198 122.503 255.269 122.266 255.269 121.997C255.269 121.725 255.193 121.485 255.04 121.276C254.891 121.064 254.676 120.898 254.394 120.779C254.116 120.66 253.784 120.6 253.4 120.6H252.45V119.019H253.4C253.725 119.019 254.011 118.963 254.26 118.85C254.512 118.737 254.707 118.582 254.847 118.383C254.986 118.181 255.055 117.945 255.055 117.677C255.055 117.422 254.994 117.198 254.871 117.006C254.752 116.81 254.583 116.658 254.364 116.548C254.149 116.439 253.897 116.384 253.609 116.384C253.317 116.384 253.05 116.437 252.808 116.543C252.566 116.646 252.372 116.794 252.227 116.986C252.081 117.178 252.003 117.403 251.993 117.662H249.93C249.94 117.075 250.107 116.558 250.432 116.111C250.757 115.663 251.194 115.314 251.744 115.062C252.298 114.807 252.923 114.679 253.619 114.679C254.321 114.679 254.936 114.807 255.463 115.062C255.99 115.317 256.399 115.662 256.691 116.096C256.986 116.527 257.132 117.011 257.129 117.548C257.132 118.118 256.955 118.593 256.597 118.974C256.242 119.356 255.78 119.598 255.21 119.7V119.78C255.959 119.876 256.529 120.136 256.92 120.56C257.314 120.981 257.51 121.508 257.506 122.141C257.51 122.721 257.342 123.237 257.004 123.688C256.67 124.138 256.207 124.493 255.617 124.751C255.027 125.01 254.351 125.139 253.589 125.139Z" fill="white"/>
<rect x="243" y="108.5" width="22" height="22" rx="11" stroke="white" stroke-width="2"/>
</g>
<g filter="url(#filter3_d_17652_148998)">
<rect x="169" y="67.5" width="24" height="24" rx="12" fill="#51A1A6"/>
<path d="M180.589 85.1392C179.846 85.1392 179.185 85.0116 178.605 84.7564C178.028 84.4979 177.573 84.1432 177.238 83.6925C176.906 83.2384 176.736 82.7147 176.726 82.1214H178.893C178.907 82.37 178.988 82.5888 179.137 82.7777C179.29 82.9633 179.492 83.1075 179.744 83.2102C179.996 83.313 180.279 83.3643 180.594 83.3643C180.922 83.3643 181.212 83.3063 181.464 83.1903C181.716 83.0743 181.913 82.9136 182.055 82.7081C182.198 82.5026 182.269 82.2656 182.269 81.9972C182.269 81.7254 182.193 81.4851 182.04 81.2763C181.891 81.0642 181.676 80.8984 181.394 80.7791C181.116 80.6598 180.784 80.6001 180.4 80.6001H179.45V79.0192H180.4C180.725 79.0192 181.011 78.9628 181.26 78.8501C181.512 78.7375 181.707 78.5817 181.847 78.3828C181.986 78.1806 182.055 77.9453 182.055 77.6768C182.055 77.4216 181.994 77.1979 181.871 77.0057C181.752 76.8101 181.583 76.6577 181.364 76.5483C181.149 76.4389 180.897 76.3842 180.609 76.3842C180.317 76.3842 180.05 76.4373 179.808 76.5433C179.566 76.6461 179.372 76.7936 179.227 76.9858C179.081 77.178 179.003 77.4034 178.993 77.6619H176.93C176.94 77.0753 177.107 76.5582 177.432 76.1108C177.757 75.6634 178.194 75.3137 178.744 75.0618C179.298 74.8066 179.923 74.679 180.619 74.679C181.321 74.679 181.936 74.8066 182.463 75.0618C182.99 75.317 183.399 75.6617 183.691 76.0959C183.986 76.5268 184.132 77.0107 184.129 77.5476C184.132 78.1177 183.955 78.5933 183.597 78.9744C183.242 79.3556 182.78 79.5975 182.21 79.7003V79.7798C182.959 79.8759 183.529 80.1361 183.92 80.5604C184.314 80.9813 184.51 81.5083 184.506 82.1413C184.51 82.7214 184.342 83.2367 184.004 83.6875C183.67 84.1383 183.207 84.4929 182.617 84.7514C182.027 85.0099 181.351 85.1392 180.589 85.1392Z" fill="white"/>
<rect x="170" y="68.5" width="22" height="22" rx="11" stroke="white" stroke-width="2"/>
</g>
<g filter="url(#filter4_d_17652_148998)">
<rect x="242" y="15.5" width="24" height="24" rx="12" fill="#51A1A6"/>
<path d="M255.755 22.8182V33H253.602V24.8615H253.543L251.211 26.3232V24.4141L253.732 22.8182H255.755Z" fill="white"/>
<rect x="243" y="16.5" width="22" height="22" rx="11" stroke="white" stroke-width="2"/>
</g>
<g filter="url(#filter5_d_17652_148998)">
<rect x="78" y="23.5" width="24" height="24" rx="12" fill="#51A1A6"/>
<path d="M91.755 30.8182V41H89.6023V32.8615H89.5426L87.2109 34.3232V32.4141L89.7315 30.8182H91.755Z" fill="white"/>
<rect x="79" y="24.5" width="22" height="22" rx="11" stroke="white" stroke-width="2"/>
</g>
<defs>
<filter id="filter0_d_17652_148998" x="241" y="60.5" width="26" height="26" filterUnits="userSpaceOnUse" color-interpolation-filters="sRGB">
<feFlood flood-opacity="0" result="BackgroundImageFix"/>
<feColorMatrix in="SourceAlpha" type="matrix" values="0 0 0 0 0 0 0 0 0 0 0 0 0 0 0 0 0 0 127 0" result="hardAlpha"/>
<feMorphology radius="1" operator="dilate" in="SourceAlpha" result="effect1_dropShadow_17652_148998"/>
<feOffset/>
<feColorMatrix type="matrix" values="0 0 0 0 0.815686 0 0 0 0 0.811765 0 0 0 0 0.839216 0 0 0 1 0"/>
<feBlend mode="normal" in2="BackgroundImageFix" result="effect1_dropShadow_17652_148998"/>
<feBlend mode="normal" in="SourceGraphic" in2="effect1_dropShadow_17652_148998" result="shape"/>
</filter>
<filter id="filter1_d_17652_148998" x="90" y="90.5" width="26" height="26" filterUnits="userSpaceOnUse" color-interpolation-filters="sRGB">
<feFlood flood-opacity="0" result="BackgroundImageFix"/>
<feColorMatrix in="SourceAlpha" type="matrix" values="0 0 0 0 0 0 0 0 0 0 0 0 0 0 0 0 0 0 127 0" result="hardAlpha"/>
<feMorphology radius="1" operator="dilate" in="SourceAlpha" result="effect1_dropShadow_17652_148998"/>
<feOffset/>
<feColorMatrix type="matrix" values="0 0 0 0 0.815686 0 0 0 0 0.811765 0 0 0 0 0.839216 0 0 0 1 0"/>
<feBlend mode="normal" in2="BackgroundImageFix" result="effect1_dropShadow_17652_148998"/>
<feBlend mode="normal" in="SourceGraphic" in2="effect1_dropShadow_17652_148998" result="shape"/>
</filter>
<filter id="filter2_d_17652_148998" x="241" y="106.5" width="26" height="26" filterUnits="userSpaceOnUse" color-interpolation-filters="sRGB">
<feFlood flood-opacity="0" result="BackgroundImageFix"/>
<feColorMatrix in="SourceAlpha" type="matrix" values="0 0 0 0 0 0 0 0 0 0 0 0 0 0 0 0 0 0 127 0" result="hardAlpha"/>
<feMorphology radius="1" operator="dilate" in="SourceAlpha" result="effect1_dropShadow_17652_148998"/>
<feOffset/>
<feColorMatrix type="matrix" values="0 0 0 0 0.815686 0 0 0 0 0.811765 0 0 0 0 0.839216 0 0 0 1 0"/>
<feBlend mode="normal" in2="BackgroundImageFix" result="effect1_dropShadow_17652_148998"/>
<feBlend mode="normal" in="SourceGraphic" in2="effect1_dropShadow_17652_148998" result="shape"/>
</filter>
<filter id="filter3_d_17652_148998" x="168" y="66.5" width="26" height="26" filterUnits="userSpaceOnUse" color-interpolation-filters="sRGB">
<feFlood flood-opacity="0" result="BackgroundImageFix"/>
<feColorMatrix in="SourceAlpha" type="matrix" values="0 0 0 0 0 0 0 0 0 0 0 0 0 0 0 0 0 0 127 0" result="hardAlpha"/>
<feMorphology radius="1" operator="dilate" in="SourceAlpha" result="effect1_dropShadow_17652_148998"/>
<feOffset/>
<feColorMatrix type="matrix" values="0 0 0 0 0.815686 0 0 0 0 0.811765 0 0 0 0 0.839216 0 0 0 1 0"/>
<feBlend mode="normal" in2="BackgroundImageFix" result="effect1_dropShadow_17652_148998"/>
<feBlend mode="normal" in="SourceGraphic" in2="effect1_dropShadow_17652_148998" result="shape"/>
</filter>
<filter id="filter4_d_17652_148998" x="241" y="14.5" width="26" height="26" filterUnits="userSpaceOnUse" color-interpolation-filters="sRGB">
<feFlood flood-opacity="0" result="BackgroundImageFix"/>
<feColorMatrix in="SourceAlpha" type="matrix" values="0 0 0 0 0 0 0 0 0 0 0 0 0 0 0 0 0 0 127 0" result="hardAlpha"/>
<feMorphology radius="1" operator="dilate" in="SourceAlpha" result="effect1_dropShadow_17652_148998"/>
<feOffset/>
<feColorMatrix type="matrix" values="0 0 0 0 0.815686 0 0 0 0 0.811765 0 0 0 0 0.839216 0 0 0 1 0"/>
<feBlend mode="normal" in2="BackgroundImageFix" result="effect1_dropShadow_17652_148998"/>
<feBlend mode="normal" in="SourceGraphic" in2="effect1_dropShadow_17652_148998" result="shape"/>
</filter>
<filter id="filter5_d_17652_148998" x="77" y="22.5" width="26" height="26" filterUnits="userSpaceOnUse" color-interpolation-filters="sRGB">
<feFlood flood-opacity="0" result="BackgroundImageFix"/>
<feColorMatrix in="SourceAlpha" type="matrix" values="0 0 0 0 0 0 0 0 0 0 0 0 0 0 0 0 0 0 127 0" result="hardAlpha"/>
<feMorphology radius="1" operator="dilate" in="SourceAlpha" result="effect1_dropShadow_17652_148998"/>
<feOffset/>
<feColorMatrix type="matrix" values="0 0 0 0 0.815686 0 0 0 0 0.811765 0 0 0 0 0.839216 0 0 0 1 0"/>
<feBlend mode="normal" in2="BackgroundImageFix" result="effect1_dropShadow_17652_148998"/>
<feBlend mode="normal" in="SourceGraphic" in2="effect1_dropShadow_17652_148998" result="shape"/>
</filter>
<clipPath id="clip0_17652_148998">
<rect width="37.7395" height="18.9152" fill="white" transform="matrix(-0.979045 -0.203645 0.200146 -0.979766 159.729 66.3276)"/>
</clipPath>
<clipPath id="clip1_17652_148998">
<rect width="37.7395" height="18.9152" fill="white" transform="matrix(-0.979045 -0.203645 0.200146 -0.979766 91.5405 88.9795)"/>
</clipPath>
<clipPath id="clip2_17652_148998">
<rect width="13.4774" height="4.03959" fill="white" transform="matrix(0.966363 0.257181 -0.252874 0.967499 48.5981 57.666)"/>
</clipPath>
<clipPath id="clip3_17652_148998">
<rect width="9.12188" height="2.73136" fill="white" transform="matrix(0.93663 -0.350321 0.344801 0.938676 69.668 54.0654)"/>
</clipPath>
<clipPath id="clip4_17652_148998">
<rect width="9.03479" height="2.71119" fill="white" transform="matrix(0.999937 0.0112417 -0.0110405 0.999939 57.6421 47.5972)"/>
</clipPath>
</defs>
</svg>
