<svg width="412" height="155" viewBox="0 0 412 155" fill="none" xmlns="http://www.w3.org/2000/svg">
<path d="M178.807 14.6392V14.3977C178.812 13.5691 178.885 12.9086 179.027 12.4162C179.174 11.9238 179.387 11.526 179.666 11.223C179.946 10.92 180.282 10.6454 180.675 10.3991C180.968 10.2098 181.231 10.0133 181.463 9.80966C181.695 9.60606 181.88 9.38116 182.017 9.13494C182.154 8.884 182.223 8.60464 182.223 8.29688C182.223 7.97017 182.145 7.68371 181.989 7.4375C181.832 7.19129 181.622 7.00189 181.357 6.86932C181.096 6.73674 180.807 6.67045 180.49 6.67045C180.182 6.67045 179.891 6.73911 179.616 6.87642C179.342 7.009 179.117 7.20786 178.942 7.47301C178.767 7.73343 178.672 8.05777 178.658 8.44602H175.76C175.784 7.49905 176.011 6.7178 176.442 6.10227C176.873 5.48201 177.443 5.02036 178.153 4.71733C178.864 4.40956 179.647 4.25568 180.504 4.25568C181.446 4.25568 182.28 4.41193 183.004 4.72443C183.729 5.0322 184.297 5.47964 184.709 6.06676C185.121 6.65388 185.327 7.36174 185.327 8.19034C185.327 8.74432 185.234 9.23674 185.05 9.66761C184.87 10.0937 184.616 10.4725 184.29 10.804C183.963 11.1307 183.577 11.4266 183.132 11.6918C182.758 11.9143 182.45 12.1463 182.209 12.3878C181.972 12.6293 181.795 12.9086 181.676 13.2259C181.563 13.5431 181.503 13.9337 181.499 14.3977V14.6392H178.807ZM180.213 19.1847C179.74 19.1847 179.335 19.0189 178.999 18.6875C178.667 18.3513 178.504 17.9489 178.509 17.4801C178.504 17.0161 178.667 16.6184 178.999 16.2869C179.335 15.9555 179.74 15.7898 180.213 15.7898C180.663 15.7898 181.058 15.9555 181.399 16.2869C181.74 16.6184 181.913 17.0161 181.918 17.4801C181.913 17.7926 181.83 18.0791 181.669 18.3395C181.513 18.5952 181.307 18.8011 181.051 18.9574C180.795 19.1089 180.516 19.1847 180.213 19.1847Z" fill="#51A1A6"/>
<rect y="11" width="171" height="8" rx="2" fill="#51A1A6"/>
<g clip-path="url(#clip0_17660_164610)">
<path d="M232.141 80.0663C236.191 80.6499 240.31 79.6416 243.593 78.0764C246.875 76.5113 249.105 73.3773 247.908 70.263C247.343 68.8215 246.132 67.5241 244.67 66.4785C242.152 64.6788 238.639 63.5568 235.582 64.1187C232.331 64.7186 230.172 67.0413 226.924 67.6506C225.136 67.9874 223.176 67.7666 221.285 67.6537C218.573 67.4918 215.783 67.5635 213.474 68.4594C211.165 69.3552 209.437 71.2329 209.75 73.337C210.084 75.6001 212.659 77.5531 215.45 78.4358C218.24 79.3184 221.225 79.3632 224.118 79.3692C227.01 79.3752 229.888 79.7346 232.128 80.0593" fill="#A7A5A6"/>
</g>
<ellipse cx="160.094" cy="81.4037" rx="34.0944" ry="34.4038" fill="#F7F7F7"/>
<path d="M208.64 58.6099L257.851 144.619H159.429L208.64 58.6099Z" fill="#D3D2D2"/>
<path d="M249.75 82.1123L285.473 144.549H214.026L249.75 82.1123Z" fill="#E9E9E9"/>
<ellipse cx="254.52" cy="121.01" rx="4.77041" ry="11.9972" fill="white"/>
<line x1="254.448" y1="120.417" x2="254.448" y2="144.56" stroke="#4E4C4D" stroke-width="0.883084"/>
<line y1="-0.441542" x2="3.81079" y2="-0.441542" transform="matrix(-0.577762 0.816206 -0.811239 -0.584714 256.208 121.454)" stroke="#4E4C4D" stroke-width="0.883084"/>
<line y1="-0.441542" x2="3.86006" y2="-0.441542" transform="matrix(-0.684465 -0.729046 0.722843 -0.691012 254.74 127.675)" stroke="#4E4C4D" stroke-width="0.883084"/>
<ellipse cx="237.122" cy="130.815" rx="4.77041" ry="7.92844" fill="white"/>
<line x1="237.003" y1="127.417" x2="237.003" y2="144.69" stroke="#4E4C4D" stroke-width="0.883084"/>
<line y1="-0.441542" x2="3.81079" y2="-0.441542" transform="matrix(-0.577762 0.816206 -0.811239 -0.584714 238.811 128.532)" stroke="#4E4C4D" stroke-width="0.883084"/>
<line y1="-0.441542" x2="3.86006" y2="-0.441542" transform="matrix(-0.684465 -0.729046 0.722843 -0.691012 237.343 134.753)" stroke="#4E4C4D" stroke-width="0.883084"/>
<path fillRule="evenodd" clipRule="evenodd" d="M198.398 76.6354L208.711 58.6099L219.025 76.6353C216.483 79.4768 212.804 81.2626 208.711 81.2626C204.619 81.2626 200.94 79.4768 198.398 76.6354Z" fill="#E9E9E9"/>
<path fillRule="evenodd" clipRule="evenodd" d="M239.367 100.138L249.681 82.1123L259.994 100.138C257.452 102.979 253.773 104.765 249.681 104.765C245.588 104.765 241.909 102.979 239.367 100.138Z" fill="#D3D2D2"/>
<g clip-path="url(#clip1_17660_164610)">
<path d="M163.953 102.719C168.002 103.302 172.122 102.294 175.404 100.729C178.686 99.1636 180.917 96.0297 179.719 92.9153C179.154 91.4739 177.944 90.1764 176.481 89.1309C173.964 87.3311 170.451 86.2092 167.394 86.7711C164.143 87.3709 161.983 89.6936 158.736 90.3029C156.948 90.6397 154.988 90.4189 153.097 90.3061C150.385 90.1442 147.594 90.2159 145.285 91.1117C142.976 92.0075 141.249 93.8853 141.561 95.9894C141.895 98.2524 144.47 100.205 147.261 101.088C150.052 101.971 153.037 102.016 155.929 102.022C158.822 102.028 161.7 102.387 163.94 102.712" fill="#A7A5A6"/>
</g>
<path d="M167.25 82.1123L202.973 144.549H131.526L167.25 82.1123Z" fill="#E9E9E9"/>
<ellipse cx="159.113" cy="121.01" rx="4.77041" ry="11.9972" fill="white"/>
<line x1="159.041" y1="120.417" x2="159.041" y2="144.56" stroke="#4E4C4D" stroke-width="0.883084"/>
<line y1="-0.441542" x2="3.81079" y2="-0.441542" transform="matrix(-0.577762 0.816206 -0.811239 -0.584714 160.801 121.454)" stroke="#4E4C4D" stroke-width="0.883084"/>
<line y1="-0.441542" x2="3.86006" y2="-0.441542" transform="matrix(-0.684465 -0.729046 0.722843 -0.691012 159.333 127.675)" stroke="#4E4C4D" stroke-width="0.883084"/>
<path fillRule="evenodd" clipRule="evenodd" d="M156.867 100.138L167.181 82.1123L177.494 100.138C174.952 102.979 171.273 104.765 167.181 104.765C163.088 104.765 159.409 102.979 156.867 100.138Z" fill="#D3D2D2"/>
<g clip-path="url(#clip2_17660_164610)">
<path d="M140.714 79.3289C141.047 79.152 141.359 78.9565 141.693 78.8149C143.53 78.0364 145.751 78.9866 146.502 80.8539C146.812 81.6071 146.875 82.4408 146.68 83.2326C146.673 83.2618 146.665 83.2921 146.657 83.3213C146.632 83.4178 146.59 83.499 146.479 83.4995C146.369 83.5 146.328 83.4158 146.291 83.3137C146.172 82.9451 146.085 82.5582 145.911 82.2171C144.971 80.3655 142.657 79.6644 140.852 80.6669C140.662 80.7724 140.483 80.8966 140.292 81.0165C140.202 80.8455 140.121 80.6698 140.022 80.5051C138.948 78.7231 136.766 78.1462 134.964 79.168C134.588 79.384 134.253 79.6661 133.975 80.001C133.903 80.0868 133.829 80.1703 133.706 80.102C133.584 80.0338 133.613 79.9238 133.642 79.8168C134.129 77.9808 135.846 76.7945 137.714 77.0363C139.051 77.2099 140.018 77.9347 140.622 79.1509C140.647 79.2015 140.67 79.2528 140.695 79.3034C140.708 79.3177 140.715 79.3298 140.714 79.3289Z" fill="#4E4C4D"/>
</g>
<g clip-path="url(#clip3_17660_164610)">
<path d="M160.272 71.9144C160.388 71.6856 160.485 71.4552 160.615 71.2456C161.332 70.0933 162.927 69.7474 164.063 70.4859C164.525 70.7809 164.881 71.2177 165.079 71.732C165.086 71.7512 165.093 71.7711 165.1 71.7902C165.123 71.8535 165.131 71.915 165.07 71.9587C165.009 72.0024 164.954 71.9719 164.895 71.9297C164.687 71.7725 164.489 71.5927 164.262 71.4721C163.027 70.8168 161.476 71.3373 160.864 72.6006C160.8 72.7335 160.748 72.8727 160.689 73.0141C160.573 72.9547 160.461 72.8892 160.342 72.8372C159.061 72.2727 157.631 72.8102 157.028 74.083C156.903 74.3502 156.826 74.6378 156.802 74.9323C156.795 75.0082 156.786 75.0835 156.692 75.0937C156.598 75.104 156.572 75.0316 156.546 74.9611C156.108 73.754 156.601 72.4233 157.728 71.8236C158.534 71.3947 159.349 71.4162 160.152 71.852C160.186 71.8702 160.218 71.8896 160.251 71.9078C160.264 71.9106 160.273 71.9145 160.272 71.9144Z" fill="#4E4C4D"/>
</g>
<g clip-path="url(#clip4_17660_164610)">
<path d="M148.133 67.143C148.321 66.9728 148.492 66.7942 148.686 66.6468C149.755 65.8367 151.354 66.0877 152.145 67.1781C152.469 67.6168 152.645 68.1487 152.648 68.6958C152.647 68.7161 152.647 68.7372 152.647 68.7574C152.646 68.8243 152.632 68.8841 152.56 68.9027C152.488 68.9213 152.448 68.8733 152.408 68.813C152.27 68.5929 152.151 68.3556 151.983 68.1625C151.07 67.1136 149.451 67.04 148.44 67.9904C148.334 68.0905 148.237 68.2009 148.132 68.3105C148.046 68.214 147.965 68.1132 147.874 68.0225C146.886 67.0409 145.373 67.0264 144.367 67.9888C144.157 68.1915 143.985 68.4304 143.859 68.6941C143.826 68.7619 143.791 68.8285 143.7 68.8043C143.61 68.7801 143.611 68.7037 143.612 68.6294C143.631 67.3547 144.555 66.2992 145.81 66.1476C146.707 66.0396 147.454 66.3512 148.044 67.0424C148.069 67.0712 148.092 67.1008 148.116 67.1295C148.127 67.1367 148.134 67.1434 148.133 67.143Z" fill="#4E4C4D"/>
</g>
<g filter="url(#filter0_d_17660_164610)">
<rect x="177" y="110" width="24" height="24" rx="12" fill="#51A1A6"/>
<path d="M187.665 124.447V124.278C187.668 123.698 187.719 123.236 187.819 122.891C187.922 122.547 188.071 122.268 188.266 122.056C188.462 121.844 188.697 121.652 188.972 121.479C189.178 121.347 189.362 121.209 189.524 121.067C189.687 120.924 189.816 120.767 189.912 120.594C190.008 120.419 190.056 120.223 190.056 120.008C190.056 119.779 190.001 119.579 189.892 119.406C189.783 119.234 189.635 119.101 189.45 119.009C189.267 118.916 189.065 118.869 188.843 118.869C188.628 118.869 188.424 118.917 188.232 119.013C188.039 119.106 187.882 119.246 187.759 119.431C187.637 119.613 187.57 119.84 187.56 120.112H185.532C185.549 119.449 185.708 118.902 186.009 118.472C186.311 118.037 186.71 117.714 187.207 117.502C187.705 117.287 188.253 117.179 188.853 117.179C189.513 117.179 190.096 117.288 190.603 117.507C191.11 117.723 191.508 118.036 191.796 118.447C192.085 118.858 192.229 119.353 192.229 119.933C192.229 120.321 192.164 120.666 192.035 120.967C191.909 121.266 191.732 121.531 191.503 121.763C191.274 121.991 191.004 122.199 190.692 122.384C190.431 122.54 190.215 122.702 190.046 122.871C189.88 123.04 189.756 123.236 189.673 123.458C189.594 123.68 189.552 123.954 189.549 124.278V124.447H187.665ZM188.649 127.629C188.318 127.629 188.034 127.513 187.799 127.281C187.567 127.046 187.453 126.764 187.456 126.436C187.453 126.111 187.567 125.833 187.799 125.601C188.034 125.369 188.318 125.253 188.649 125.253C188.964 125.253 189.241 125.369 189.479 125.601C189.718 125.833 189.839 126.111 189.842 126.436C189.839 126.655 189.781 126.855 189.668 127.038C189.559 127.217 189.415 127.361 189.236 127.47C189.057 127.576 188.861 127.629 188.649 127.629Z" fill="white"/>
<rect x="178" y="111" width="22" height="22" rx="11" stroke="white" stroke-width="2"/>
</g>
<g filter="url(#filter1_d_17660_164610)">
<rect x="255" y="86" width="24" height="24" rx="12" fill="#51A1A6"/>
<path d="M265.665 100.447V100.278C265.668 99.6984 265.719 99.236 265.819 98.8913C265.922 98.5466 266.071 98.2682 266.266 98.0561C266.462 97.844 266.697 97.6518 266.972 97.4794C267.178 97.3468 267.362 97.2093 267.524 97.0668C267.687 96.9242 267.816 96.7668 267.912 96.5945C268.008 96.4188 268.056 96.2232 268.056 96.0078C268.056 95.7791 268.001 95.5786 267.892 95.4062C267.783 95.2339 267.635 95.1013 267.45 95.0085C267.267 94.9157 267.065 94.8693 266.843 94.8693C266.628 94.8693 266.424 94.9174 266.232 95.0135C266.039 95.1063 265.882 95.2455 265.759 95.4311C265.637 95.6134 265.57 95.8404 265.56 96.1122H263.532C263.549 95.4493 263.708 94.9025 264.009 94.4716C264.311 94.0374 264.71 93.7143 265.207 93.5021C265.705 93.2867 266.253 93.179 266.853 93.179C267.513 93.179 268.096 93.2884 268.603 93.5071C269.11 93.7225 269.508 94.0357 269.796 94.4467C270.085 94.8577 270.229 95.3532 270.229 95.9332C270.229 96.321 270.164 96.6657 270.035 96.9673C269.909 97.2656 269.732 97.5308 269.503 97.7628C269.274 97.9915 269.004 98.1986 268.692 98.3842C268.431 98.54 268.215 98.7024 268.046 98.8714C267.88 99.0405 267.756 99.236 267.673 99.4581C267.594 99.6802 267.552 99.9536 267.549 100.278V100.447H265.665ZM266.649 103.629C266.318 103.629 266.034 103.513 265.799 103.281C265.567 103.046 265.453 102.764 265.456 102.436C265.453 102.111 265.567 101.833 265.799 101.601C266.034 101.369 266.318 101.253 266.649 101.253C266.964 101.253 267.241 101.369 267.479 101.601C267.718 101.833 267.839 102.111 267.842 102.436C267.839 102.655 267.781 102.855 267.668 103.038C267.559 103.217 267.415 103.361 267.236 103.47C267.057 103.576 266.861 103.629 266.649 103.629Z" fill="white"/>
<rect x="256" y="87" width="22" height="22" rx="11" stroke="white" stroke-width="2"/>
</g>
<g filter="url(#filter2_d_17660_164610)">
<rect x="164" y="42" width="24" height="24" rx="12" fill="#51A1A6"/>
<path d="M174.665 56.4474V56.2784C174.668 55.6984 174.719 55.236 174.819 54.8913C174.922 54.5466 175.071 54.2682 175.266 54.0561C175.462 53.844 175.697 53.6518 175.972 53.4794C176.178 53.3468 176.362 53.2093 176.524 53.0668C176.687 52.9242 176.816 52.7668 176.912 52.5945C177.008 52.4188 177.056 52.2232 177.056 52.0078C177.056 51.7791 177.001 51.5786 176.892 51.4062C176.783 51.2339 176.635 51.1013 176.45 51.0085C176.267 50.9157 176.065 50.8693 175.843 50.8693C175.628 50.8693 175.424 50.9174 175.232 51.0135C175.039 51.1063 174.882 51.2455 174.759 51.4311C174.637 51.6134 174.57 51.8404 174.56 52.1122H172.532C172.549 51.4493 172.708 50.9025 173.009 50.4716C173.311 50.0374 173.71 49.7143 174.207 49.5021C174.705 49.2867 175.253 49.179 175.853 49.179C176.513 49.179 177.096 49.2884 177.603 49.5071C178.11 49.7225 178.508 50.0357 178.796 50.4467C179.085 50.8577 179.229 51.3532 179.229 51.9332C179.229 52.321 179.164 52.6657 179.035 52.9673C178.909 53.2656 178.732 53.5308 178.503 53.7628C178.274 53.9915 178.004 54.1986 177.692 54.3842C177.431 54.54 177.215 54.7024 177.046 54.8714C176.88 55.0405 176.756 55.236 176.673 55.4581C176.594 55.6802 176.552 55.9536 176.549 56.2784V56.4474H174.665ZM175.649 59.6293C175.318 59.6293 175.034 59.5133 174.799 59.2812C174.567 59.0459 174.453 58.7642 174.456 58.4361C174.453 58.1113 174.567 57.8329 174.799 57.6009C175.034 57.3688 175.318 57.2528 175.649 57.2528C175.964 57.2528 176.241 57.3688 176.479 57.6009C176.718 57.8329 176.839 58.1113 176.842 58.4361C176.839 58.6548 176.781 58.8554 176.668 59.0376C176.559 59.2166 176.415 59.3608 176.236 59.4702C176.057 59.5762 175.861 59.6293 175.649 59.6293Z" fill="white"/>
<rect x="165" y="43" width="22" height="22" rx="11" stroke="white" stroke-width="2"/>
</g>
<defs>
<filter id="filter0_d_17660_164610" x="176" y="109" width="26" height="26" filterUnits="userSpaceOnUse" color-interpolation-filters="sRGB">
<feFlood flood-opacity="0" result="BackgroundImageFix"/>
<feColorMatrix in="SourceAlpha" type="matrix" values="0 0 0 0 0 0 0 0 0 0 0 0 0 0 0 0 0 0 127 0" result="hardAlpha"/>
<feMorphology radius="1" operator="dilate" in="SourceAlpha" result="effect1_dropShadow_17660_164610"/>
<feOffset/>
<feColorMatrix type="matrix" values="0 0 0 0 0.815686 0 0 0 0 0.811765 0 0 0 0 0.839216 0 0 0 1 0"/>
<feBlend mode="normal" in2="BackgroundImageFix" result="effect1_dropShadow_17660_164610"/>
<feBlend mode="normal" in="SourceGraphic" in2="effect1_dropShadow_17660_164610" result="shape"/>
</filter>
<filter id="filter1_d_17660_164610" x="254" y="85" width="26" height="26" filterUnits="userSpaceOnUse" color-interpolation-filters="sRGB">
<feFlood flood-opacity="0" result="BackgroundImageFix"/>
<feColorMatrix in="SourceAlpha" type="matrix" values="0 0 0 0 0 0 0 0 0 0 0 0 0 0 0 0 0 0 127 0" result="hardAlpha"/>
<feMorphology radius="1" operator="dilate" in="SourceAlpha" result="effect1_dropShadow_17660_164610"/>
<feOffset/>
<feColorMatrix type="matrix" values="0 0 0 0 0.815686 0 0 0 0 0.811765 0 0 0 0 0.839216 0 0 0 1 0"/>
<feBlend mode="normal" in2="BackgroundImageFix" result="effect1_dropShadow_17660_164610"/>
<feBlend mode="normal" in="SourceGraphic" in2="effect1_dropShadow_17660_164610" result="shape"/>
</filter>
<filter id="filter2_d_17660_164610" x="163" y="41" width="26" height="26" filterUnits="userSpaceOnUse" color-interpolation-filters="sRGB">
<feFlood flood-opacity="0" result="BackgroundImageFix"/>
<feColorMatrix in="SourceAlpha" type="matrix" values="0 0 0 0 0 0 0 0 0 0 0 0 0 0 0 0 0 0 127 0" result="hardAlpha"/>
<feMorphology radius="1" operator="dilate" in="SourceAlpha" result="effect1_dropShadow_17660_164610"/>
<feOffset/>
<feColorMatrix type="matrix" values="0 0 0 0 0.815686 0 0 0 0 0.811765 0 0 0 0 0.839216 0 0 0 1 0"/>
<feBlend mode="normal" in2="BackgroundImageFix" result="effect1_dropShadow_17660_164610"/>
<feBlend mode="normal" in="SourceGraphic" in2="effect1_dropShadow_17660_164610" result="shape"/>
</filter>
<clipPath id="clip0_17660_164610">
<rect width="37.7395" height="18.9152" fill="white" transform="matrix(-0.979045 -0.203645 0.200146 -0.979766 245.729 84.8276)"/>
</clipPath>
<clipPath id="clip1_17660_164610">
<rect width="37.7395" height="18.9152" fill="white" transform="matrix(-0.979045 -0.203645 0.200146 -0.979766 177.541 107.479)"/>
</clipPath>
<clipPath id="clip2_17660_164610">
<rect width="13.4774" height="4.03959" fill="white" transform="matrix(0.966363 0.257181 -0.252874 0.967499 134.598 76.166)"/>
</clipPath>
<clipPath id="clip3_17660_164610">
<rect width="9.12188" height="2.73136" fill="white" transform="matrix(0.93663 -0.350321 0.344801 0.938676 155.668 72.5654)"/>
</clipPath>
<clipPath id="clip4_17660_164610">
<rect width="9.03479" height="2.71119" fill="white" transform="matrix(0.999937 0.0112417 -0.0110405 0.999939 143.642 66.0972)"/>
</clipPath>
</defs>
</svg>
