<svg width="412" height="155" viewBox="0 0 412 155" fill="none" xmlns="http://www.w3.org/2000/svg">
<path d="M178.807 14.6392V14.3977C178.812 13.5691 178.885 12.9086 179.027 12.4162C179.174 11.9238 179.387 11.526 179.666 11.223C179.946 10.92 180.282 10.6454 180.675 10.3991C180.968 10.2098 181.231 10.0133 181.463 9.80966C181.695 9.60606 181.88 9.38116 182.017 9.13494C182.154 8.884 182.223 8.60464 182.223 8.29688C182.223 7.97017 182.145 7.68371 181.989 7.4375C181.832 7.19129 181.622 7.00189 181.357 6.86932C181.096 6.73674 180.807 6.67045 180.49 6.67045C180.182 6.67045 179.891 6.73911 179.616 6.87642C179.342 7.009 179.117 7.20786 178.942 7.47301C178.767 7.73343 178.672 8.05777 178.658 8.44602H175.76C175.784 7.49905 176.011 6.7178 176.442 6.10227C176.873 5.48201 177.443 5.02036 178.153 4.71733C178.864 4.40956 179.647 4.25568 180.504 4.25568C181.446 4.25568 182.28 4.41193 183.004 4.72443C183.729 5.0322 184.297 5.47964 184.709 6.06676C185.121 6.65388 185.327 7.36174 185.327 8.19034C185.327 8.74432 185.234 9.23674 185.05 9.66761C184.87 10.0937 184.616 10.4725 184.29 10.804C183.963 11.1307 183.577 11.4266 183.132 11.6918C182.758 11.9143 182.45 12.1463 182.209 12.3878C181.972 12.6293 181.795 12.9086 181.676 13.2259C181.563 13.5431 181.503 13.9337 181.499 14.3977V14.6392H178.807ZM180.213 19.1847C179.74 19.1847 179.335 19.0189 178.999 18.6875C178.667 18.3513 178.504 17.9489 178.509 17.4801C178.504 17.0161 178.667 16.6184 178.999 16.2869C179.335 15.9555 179.74 15.7898 180.213 15.7898C180.663 15.7898 181.058 15.9555 181.399 16.2869C181.74 16.6184 181.913 17.0161 181.918 17.4801C181.913 17.7926 181.83 18.0791 181.669 18.3395C181.513 18.5952 181.307 18.8011 181.051 18.9574C180.795 19.1089 180.516 19.1847 180.213 19.1847Z" fill="#51A1A6"/>
<rect y="11" width="171" height="8" rx="2" fill="#51A1A6"/>
<rect x="232" y="51" width="100" height="8" rx="2" fill="#D3D2D2"/>
<g clip-path="url(#clip0_17660_163991)">
<rect x="374" y="44" width="21" height="21" rx="10.5" fill="#222222"/>
<g filter="url(#filter0_dd_17660_163991)">
<rect x="376.812" y="46.7056" width="15.5893" height="15.5893" rx="7.79464" fill="white"/>
<path fillRule="evenodd" clipRule="evenodd" d="M388.673 51.6463C388.91 51.8831 388.91 52.2669 388.673 52.5037L383.823 57.3537C383.586 57.5904 383.203 57.5904 382.966 57.3537L380.541 54.9287C380.304 54.6919 380.304 54.3081 380.541 54.0713C380.778 53.8346 381.161 53.8346 381.398 54.0713L383.395 56.0676L387.816 51.6463C388.053 51.4096 388.436 51.4096 388.673 51.6463Z" fill="#222222" stroke="#222222" stroke-width="0.433036" stroke-linecap="round" stroke-linejoin="round"/>
</g>
</g>
<rect x="232" y="90" width="123" height="8" rx="2" fill="#D3D2D2"/>
<g clip-path="url(#clip1_17660_163991)">
<rect x="374" y="83" width="21" height="21" rx="10.5" fill="#222222"/>
<g filter="url(#filter1_dd_17660_163991)">
<rect x="376.643" y="85.5713" width="15.8571" height="15.8571" rx="7.92857" fill="white"/>
<path fillRule="evenodd" clipRule="evenodd" d="M381.052 89.9799C381.293 89.7391 381.683 89.7391 381.924 89.9799L384.571 92.6272L387.218 89.9799C387.459 89.7391 387.85 89.7391 388.09 89.9799C388.331 90.2208 388.331 90.6112 388.09 90.852L385.443 93.4993L388.09 96.1466C388.331 96.3874 388.331 96.7779 388.09 97.0187C387.85 97.2595 387.459 97.2595 387.218 97.0187L384.571 94.3714L381.924 97.0187C381.683 97.2595 381.293 97.2595 381.052 97.0187C380.811 96.7779 380.811 96.3874 381.052 96.1466L383.699 93.4993L381.052 90.852C380.811 90.6112 380.811 90.2208 381.052 89.9799Z" fill="#222222" stroke="#222222" stroke-width="0.440476" stroke-linecap="round"/>
</g>
</g>
<rect x="232" y="129" width="111" height="8" rx="2" fill="#D3D2D2"/>
<g clip-path="url(#clip2_17660_163991)">
<rect x="374" y="122" width="21" height="21" rx="10.5" fill="#222222"/>
<g filter="url(#filter2_dd_17660_163991)">
<rect x="376.643" y="124.571" width="15.8571" height="15.8571" rx="7.92857" fill="white"/>
<path fillRule="evenodd" clipRule="evenodd" d="M381.052 128.98C381.293 128.739 381.683 128.739 381.924 128.98L384.571 131.627L387.218 128.98C387.459 128.739 387.85 128.739 388.09 128.98C388.331 129.221 388.331 129.611 388.09 129.852L385.443 132.499L388.09 135.147C388.331 135.387 388.331 135.778 388.09 136.019C387.85 136.26 387.459 136.26 387.218 136.019L384.571 133.371L381.924 136.019C381.683 136.26 381.293 136.26 381.052 136.019C380.811 135.778 380.811 135.387 381.052 135.147L383.699 132.499L381.052 129.852C380.811 129.611 380.811 129.221 381.052 128.98Z" fill="#222222" stroke="#222222" stroke-width="0.440476" stroke-linecap="round"/>
</g>
</g>
<path d="M17 48C17 45.7909 18.7909 44 21 44H217C219.209 44 221 45.7909 221 48V139C221 141.209 219.209 143 217 143H21C18.7909 143 17 141.209 17 139V48Z" fill="#F7F7F7"/>
<rect x="134" y="83.3994" width="70.8893" height="4.80003" rx="1.6" fill="#D3D2D2"/>
<rect x="134" y="112.2" width="59.2781" height="4.80003" rx="1.6" fill="#D3D2D2"/>
<rect x="134" y="97.7998" width="29.3335" height="4.80003" rx="1.6" fill="#D3D2D2"/>
<rect x="165.777" y="97.7998" width="45.2225" height="4.80003" rx="1.6" fill="#51A1A6"/>
<rect x="134" y="69" width="36.6669" height="4.80003" rx="1.6" fill="#51A1A6"/>
<g clip-path="url(#clip3_17660_163991)">
<path d="M91.3479 83.2448C93.8029 83.6021 96.3005 82.9848 98.2903 82.0265C100.28 81.0683 101.632 79.1495 100.906 77.2428C100.564 76.3603 99.83 75.5659 98.9433 74.9258C97.4171 73.8239 95.2875 73.137 93.434 73.481C91.463 73.8483 90.154 75.2703 88.1852 75.6434C87.1013 75.8496 85.9128 75.7144 84.7664 75.6453C83.1225 75.5462 81.4305 75.5901 80.0307 76.1385C78.6309 76.687 77.5837 77.8366 77.773 79.1249C77.9756 80.5104 79.5367 81.7061 81.2287 82.2465C82.9206 82.787 84.7302 82.8144 86.4838 82.818C88.2374 82.8217 89.982 83.0418 91.34 83.2405" fill="#A7A5A6"/>
</g>
<ellipse cx="47.6697" cy="84.0635" rx="20.6697" ry="21.0635" fill="#F7F7F7"/>
<path d="M77.1008 70.1079L106.935 122.767H47.2666L77.1008 70.1079Z" fill="#D3D2D2"/>
<path d="M102.024 84.4976L123.681 122.724H80.3662L102.024 84.4976Z" fill="#E9E9E9"/>
<ellipse cx="104.915" cy="108.312" rx="2.89206" ry="7.34523" fill="white"/>
<line x1="104.874" y1="107.95" x2="104.874" y2="122.731" stroke="#4E4C4D" stroke-width="0.540664"/>
<line y1="-0.270332" x2="2.32553" y2="-0.270332" transform="matrix(-0.573972 0.818875 -0.808496 -0.588502 105.938 108.584)" stroke="#4E4C4D" stroke-width="0.540664"/>
<line y1="-0.270332" x2="2.35249" y2="-0.270332" transform="matrix(-0.680877 -0.732397 0.719437 -0.694558 105.049 112.393)" stroke="#4E4C4D" stroke-width="0.540664"/>
<ellipse cx="94.3681" cy="114.316" rx="2.89206" ry="4.85414" fill="white"/>
<line x1="94.2982" y1="112.235" x2="94.2982" y2="122.81" stroke="#4E4C4D" stroke-width="0.540664"/>
<line y1="-0.270332" x2="2.32554" y2="-0.270332" transform="matrix(-0.573974 0.818874 -0.808497 -0.588501 95.3916 112.917)" stroke="#4E4C4D" stroke-width="0.540664"/>
<line y1="-0.270332" x2="2.35249" y2="-0.270332" transform="matrix(-0.680878 -0.732396 0.719438 -0.694557 94.5015 116.726)" stroke="#4E4C4D" stroke-width="0.540664"/>
<path fillRule="evenodd" clipRule="evenodd" d="M70.8911 81.144L77.1437 70.1079L83.3962 81.1439C81.855 82.8836 79.6246 83.977 77.1436 83.977C74.6626 83.977 72.4323 82.8836 70.8911 81.144Z" fill="#E9E9E9"/>
<path fillRule="evenodd" clipRule="evenodd" d="M95.729 95.5336L101.982 84.4976L108.234 95.5335C106.693 97.2732 104.463 98.3666 101.981 98.3666C99.5005 98.3666 97.2701 97.2733 95.729 95.5336Z" fill="#D3D2D2"/>
<g clip-path="url(#clip4_17660_163991)">
<path d="M50.0085 97.1135C52.4635 97.4708 54.9611 96.8535 56.951 95.8952C58.9409 94.9369 60.293 93.0182 59.567 91.1114C59.2245 90.2289 58.4906 89.4346 57.6039 88.7944C56.0777 87.6925 53.9482 87.0056 52.0947 87.3497C50.1236 87.7169 48.8146 89.139 46.8459 89.512C45.762 89.7182 44.5734 89.583 43.4271 89.5139C41.7831 89.4148 40.0911 89.4587 38.6913 90.0072C37.2915 90.5557 36.2443 91.7053 36.4336 92.9935C36.6363 94.379 38.1974 95.5748 39.8893 96.1152C41.5812 96.6556 43.3908 96.683 45.1444 96.6867C46.898 96.6904 48.6426 96.9104 50.0007 97.1092" fill="#A7A5A6"/>
</g>
<path d="M52.0075 84.4976L73.6649 122.724H30.3501L52.0075 84.4976Z" fill="#E9E9E9"/>
<ellipse cx="47.0747" cy="108.312" rx="2.89206" ry="7.34523" fill="white"/>
<line x1="47.0335" y1="107.95" x2="47.0335" y2="122.731" stroke="#4E4C4D" stroke-width="0.540664"/>
<line y1="-0.270332" x2="2.32554" y2="-0.270332" transform="matrix(-0.573974 0.818874 -0.808497 -0.588501 48.0981 108.584)" stroke="#4E4C4D" stroke-width="0.540664"/>
<line y1="-0.270332" x2="2.35249" y2="-0.270332" transform="matrix(-0.680877 -0.732398 0.719437 -0.694558 47.208 112.393)" stroke="#4E4C4D" stroke-width="0.540664"/>
<path fillRule="evenodd" clipRule="evenodd" d="M45.7134 95.5336L51.9659 84.4976L58.2184 95.5335C56.6773 97.2732 54.4469 98.3666 51.9659 98.3666C49.4849 98.3666 47.2545 97.2733 45.7134 95.5336Z" fill="#D3D2D2"/>
<g clip-path="url(#clip5_17660_163991)">
<path d="M35.9203 82.7932C36.1225 82.6849 36.3111 82.5652 36.5138 82.4785C37.6278 82.0019 38.9739 82.5836 39.4292 83.7269C39.6172 84.188 39.6552 84.6985 39.5375 85.1832C39.5329 85.2011 39.528 85.2197 39.5234 85.2375C39.5081 85.2966 39.4826 85.3463 39.4156 85.3466C39.3486 85.3469 39.3236 85.2954 39.3015 85.2329C39.2294 85.0072 39.1763 84.7703 39.0712 84.5615C38.5009 83.4279 37.0982 82.9986 36.0041 83.6124C35.889 83.677 35.7802 83.753 35.6644 83.8264C35.61 83.7217 35.5609 83.6141 35.5005 83.5133C34.8496 82.4223 33.5266 82.0691 32.4345 82.6947C32.2064 82.8269 32.0033 82.9996 31.8349 83.2047C31.791 83.2572 31.746 83.3083 31.6719 83.2666C31.5978 83.2248 31.6156 83.1574 31.6329 83.0919C31.9281 81.9678 32.969 81.2415 34.1016 81.3895C34.9122 81.4959 35.4983 81.9396 35.8647 82.6843C35.8797 82.7152 35.8937 82.7466 35.9087 82.7776C35.9167 82.7864 35.9209 82.7937 35.9203 82.7932Z" fill="#4E4C4D"/>
</g>
<g clip-path="url(#clip6_17660_163991)">
<path d="M47.7773 78.2539C47.8478 78.1139 47.9065 77.9728 47.9855 77.8445C48.4201 77.139 49.3871 76.9272 50.0755 77.3793C50.3557 77.56 50.5716 77.8274 50.6915 78.1423C50.6958 78.154 50.7002 78.1662 50.7045 78.1779C50.7186 78.2167 50.7235 78.2543 50.6865 78.281C50.6495 78.3078 50.616 78.2892 50.5799 78.2633C50.4539 78.167 50.334 78.057 50.1961 77.9831C49.4477 77.5819 48.5075 77.9006 48.1364 78.6741C48.0974 78.7554 48.0662 78.8407 48.0302 78.9272C47.9601 78.8908 47.8919 78.8508 47.8199 78.8189C47.0431 78.4733 46.1762 78.8024 45.8107 79.5817C45.735 79.7453 45.6885 79.9214 45.6736 80.1016C45.6694 80.1481 45.664 80.1942 45.607 80.2005C45.5501 80.2068 45.5342 80.1624 45.5188 80.1193C45.2529 79.3802 45.5516 78.5655 46.2349 78.1983C46.724 77.9358 47.2179 77.9489 47.7049 78.2157C47.725 78.2269 47.7448 78.2387 47.7649 78.2499C47.7727 78.2516 47.7778 78.254 47.7773 78.2539Z" fill="#4E4C4D"/>
</g>
<g clip-path="url(#clip7_17660_163991)">
<path d="M40.4181 75.3325C40.5322 75.2283 40.6357 75.1189 40.7536 75.0287C41.4016 74.5327 42.3706 74.6864 42.8506 75.354C43.047 75.6226 43.1538 75.9483 43.1551 76.2832C43.155 76.2956 43.1549 76.3085 43.1547 76.3209C43.1543 76.3619 43.1457 76.3985 43.1021 76.4098C43.0586 76.4212 43.0341 76.3919 43.0097 76.3549C42.9265 76.2202 42.8539 76.0749 42.7519 75.9567C42.1987 75.3145 41.2173 75.2695 40.6043 75.8513C40.5399 75.9126 40.4813 75.9802 40.4178 76.0473C40.3655 75.9882 40.3163 75.9265 40.2608 75.871C39.662 75.27 38.7448 75.2611 38.1349 75.8504C38.0078 75.9744 37.9035 76.1207 37.8269 76.2822C37.8068 76.3237 37.7858 76.3644 37.7309 76.3496C37.6759 76.3348 37.6767 76.288 37.6774 76.2425C37.6887 75.4621 38.249 74.8159 39.0095 74.7231C39.5538 74.6569 40.0064 74.8477 40.3645 75.2709C40.3792 75.2885 40.3934 75.3066 40.4081 75.3243C40.4147 75.3286 40.4186 75.3327 40.4181 75.3325Z" fill="#4E4C4D"/>
</g>
<defs>
<filter id="filter0_dd_17660_163991" x="374.214" y="44.9734" width="20.7858" height="20.7858" filterUnits="userSpaceOnUse" color-interpolation-filters="sRGB">
<feFlood flood-opacity="0" result="BackgroundImageFix"/>
<feColorMatrix in="SourceAlpha" type="matrix" values="0 0 0 0 0 0 0 0 0 0 0 0 0 0 0 0 0 0 127 0" result="hardAlpha"/>
<feOffset dy="0.866071"/>
<feGaussianBlur stdDeviation="0.866071"/>
<feColorMatrix type="matrix" values="0 0 0 0 0 0 0 0 0 0 0 0 0 0 0 0 0 0 0.06 0"/>
<feBlend mode="normal" in2="BackgroundImageFix" result="effect1_dropShadow_17660_163991"/>
<feColorMatrix in="SourceAlpha" type="matrix" values="0 0 0 0 0 0 0 0 0 0 0 0 0 0 0 0 0 0 127 0" result="hardAlpha"/>
<feOffset dy="0.866071"/>
<feGaussianBlur stdDeviation="1.29911"/>
<feColorMatrix type="matrix" values="0 0 0 0 0 0 0 0 0 0 0 0 0 0 0 0 0 0 0.1 0"/>
<feBlend mode="normal" in2="effect1_dropShadow_17660_163991" result="effect2_dropShadow_17660_163991"/>
<feBlend mode="normal" in="SourceGraphic" in2="effect2_dropShadow_17660_163991" result="shape"/>
</filter>
<filter id="filter1_dd_17660_163991" x="374" y="83.8094" width="21.1426" height="21.1426" filterUnits="userSpaceOnUse" color-interpolation-filters="sRGB">
<feFlood flood-opacity="0" result="BackgroundImageFix"/>
<feColorMatrix in="SourceAlpha" type="matrix" values="0 0 0 0 0 0 0 0 0 0 0 0 0 0 0 0 0 0 127 0" result="hardAlpha"/>
<feOffset dy="0.880952"/>
<feGaussianBlur stdDeviation="0.880952"/>
<feColorMatrix type="matrix" values="0 0 0 0 0 0 0 0 0 0 0 0 0 0 0 0 0 0 0.06 0"/>
<feBlend mode="normal" in2="BackgroundImageFix" result="effect1_dropShadow_17660_163991"/>
<feColorMatrix in="SourceAlpha" type="matrix" values="0 0 0 0 0 0 0 0 0 0 0 0 0 0 0 0 0 0 127 0" result="hardAlpha"/>
<feOffset dy="0.880952"/>
<feGaussianBlur stdDeviation="1.32143"/>
<feColorMatrix type="matrix" values="0 0 0 0 0 0 0 0 0 0 0 0 0 0 0 0 0 0 0.1 0"/>
<feBlend mode="normal" in2="effect1_dropShadow_17660_163991" result="effect2_dropShadow_17660_163991"/>
<feBlend mode="normal" in="SourceGraphic" in2="effect2_dropShadow_17660_163991" result="shape"/>
</filter>
<filter id="filter2_dd_17660_163991" x="374" y="122.809" width="21.1426" height="21.1426" filterUnits="userSpaceOnUse" color-interpolation-filters="sRGB">
<feFlood flood-opacity="0" result="BackgroundImageFix"/>
<feColorMatrix in="SourceAlpha" type="matrix" values="0 0 0 0 0 0 0 0 0 0 0 0 0 0 0 0 0 0 127 0" result="hardAlpha"/>
<feOffset dy="0.880952"/>
<feGaussianBlur stdDeviation="0.880952"/>
<feColorMatrix type="matrix" values="0 0 0 0 0 0 0 0 0 0 0 0 0 0 0 0 0 0 0.06 0"/>
<feBlend mode="normal" in2="BackgroundImageFix" result="effect1_dropShadow_17660_163991"/>
<feColorMatrix in="SourceAlpha" type="matrix" values="0 0 0 0 0 0 0 0 0 0 0 0 0 0 0 0 0 0 127 0" result="hardAlpha"/>
<feOffset dy="0.880952"/>
<feGaussianBlur stdDeviation="1.32143"/>
<feColorMatrix type="matrix" values="0 0 0 0 0 0 0 0 0 0 0 0 0 0 0 0 0 0 0.1 0"/>
<feBlend mode="normal" in2="effect1_dropShadow_17660_163991" result="effect2_dropShadow_17660_163991"/>
<feBlend mode="normal" in="SourceGraphic" in2="effect2_dropShadow_17660_163991" result="shape"/>
</filter>
<clipPath id="clip0_17660_163991">
<rect x="374" y="44" width="21" height="21" rx="10.5" fill="white"/>
</clipPath>
<clipPath id="clip1_17660_163991">
<rect x="374" y="83" width="21" height="21" rx="10.5" fill="white"/>
</clipPath>
<clipPath id="clip2_17660_163991">
<rect x="374" y="122" width="21" height="21" rx="10.5" fill="white"/>
</clipPath>
<clipPath id="clip3_17660_163991">
<rect width="22.889" height="11.5762" fill="white" transform="matrix(-0.978642 -0.205574 0.198264 -0.980149 99.5859 86.1597)"/>
</clipPath>
<clipPath id="clip4_17660_163991">
<rect width="22.889" height="11.5762" fill="white" transform="matrix(-0.978642 -0.205574 0.198264 -0.980149 58.2461 100.028)"/>
</clipPath>
<clipPath id="clip5_17660_163991">
<rect width="8.17602" height="2.47168" fill="white" transform="matrix(0.965729 0.259554 -0.250554 0.968103 32.2129 80.8569)"/>
</clipPath>
<clipPath id="clip6_17660_163991">
<rect width="5.53688" height="1.67032" fill="white" transform="matrix(0.935489 -0.353355 0.341821 0.939765 44.9863 78.6523)"/>
</clipPath>
<clipPath id="clip7_17660_163991">
<rect width="5.47735" height="1.65991" fill="white" transform="matrix(0.999936 0.0113529 -0.0109324 0.99994 37.6953 74.6924)"/>
</clipPath>
</defs>
</svg>
