<svg width="412" height="155" viewBox="0 0 412 155" fill="none" xmlns="http://www.w3.org/2000/svg">
<path d="M178.807 14.6392V14.3977C178.812 13.5691 178.885 12.9086 179.027 12.4162C179.174 11.9238 179.387 11.526 179.666 11.223C179.946 10.92 180.282 10.6454 180.675 10.3991C180.968 10.2098 181.231 10.0133 181.463 9.80966C181.695 9.60606 181.88 9.38116 182.017 9.13494C182.154 8.884 182.223 8.60464 182.223 8.29688C182.223 7.97017 182.145 7.68371 181.989 7.4375C181.832 7.19129 181.622 7.00189 181.357 6.86932C181.096 6.73674 180.807 6.67045 180.49 6.67045C180.182 6.67045 179.891 6.73911 179.616 6.87642C179.342 7.009 179.117 7.20786 178.942 7.47301C178.767 7.73343 178.672 8.05777 178.658 8.44602H175.76C175.784 7.49905 176.011 6.7178 176.442 6.10227C176.873 5.48201 177.443 5.02036 178.153 4.71733C178.864 4.40956 179.647 4.25568 180.504 4.25568C181.446 4.25568 182.28 4.41193 183.004 4.72443C183.729 5.0322 184.297 5.47964 184.709 6.06676C185.121 6.65388 185.327 7.36174 185.327 8.19034C185.327 8.74432 185.234 9.23674 185.05 9.66761C184.87 10.0937 184.616 10.4725 184.29 10.804C183.963 11.1307 183.577 11.4266 183.132 11.6918C182.758 11.9143 182.45 12.1463 182.209 12.3878C181.972 12.6293 181.795 12.9086 181.676 13.2259C181.563 13.5431 181.503 13.9337 181.499 14.3977V14.6392H178.807ZM180.213 19.1847C179.74 19.1847 179.335 19.0189 178.999 18.6875C178.667 18.3513 178.504 17.9489 178.509 17.4801C178.504 17.0161 178.667 16.6184 178.999 16.2869C179.335 15.9555 179.74 15.7898 180.213 15.7898C180.663 15.7898 181.058 15.9555 181.399 16.2869C181.74 16.6184 181.913 17.0161 181.918 17.4801C181.913 17.7926 181.83 18.0791 181.669 18.3395C181.513 18.5952 181.307 18.8011 181.051 18.9574C180.795 19.1089 180.516 19.1847 180.213 19.1847Z" fill="#51A1A6"/>
<rect y="11" width="171" height="8" rx="2" fill="#51A1A6"/>
<path d="M85.3423 93.5C85.3422 87.2135 87.8305 81.1825 92.2635 76.725C96.6964 72.2676 102.714 69.746 109 69.7115V48.5H30.8943C27.7397 48.5 24.7144 49.7531 22.4837 51.9838C20.2531 54.2144 19 57.2397 19 60.3943V126.606C19 129.76 20.2531 132.786 22.4837 135.016C24.7144 137.247 27.7397 138.5 30.8943 138.5H109V117.285C102.714 117.25 96.6977 114.729 92.2649 110.272C87.832 105.816 85.3432 99.7858 85.3423 93.5Z" fill="white" stroke="#E9E9E9" stroke-width="1.55421"/>
<g clip-path="url(#clip0_17660_164401)">
<path d="M75.0435 86.6711C76.762 86.9213 78.5103 86.4891 79.9032 85.8183C81.2962 85.1476 82.2427 83.8044 81.7345 82.4697C81.4947 81.8519 80.981 81.2959 80.3603 80.8478C79.2919 80.0765 77.8013 79.5956 76.5038 79.8365C75.1241 80.0935 74.2078 81.089 72.8296 81.3501C72.0709 81.4945 71.2389 81.3998 70.4365 81.3515C69.2857 81.2821 68.1013 81.3128 67.1215 81.6967C66.1416 82.0807 65.4086 82.8854 65.5411 83.7872C65.6829 84.757 66.7757 85.594 67.9601 85.9723C69.1444 86.3506 70.4111 86.3698 71.6387 86.3724C72.8662 86.375 74.0874 86.529 75.038 86.6681" fill="#A7A5A6"/>
</g>
<ellipse cx="44.4688" cy="87.2445" rx="14.4688" ry="14.7445" fill="#F7F7F7"/>
<path d="M65.0704 77.4756L85.9544 114.337H44.1865L65.0704 77.4756Z" fill="#D3D2D2"/>
<path d="M82.5166 87.5483L97.6768 114.307H67.3564L82.5166 87.5483Z" fill="#E9E9E9"/>
<ellipse cx="84.5406" cy="104.218" rx="2.02444" ry="5.14166" fill="white"/>
<line x1="84.512" y1="103.965" x2="84.512" y2="114.312" stroke="#4E4C4D" stroke-width="0.378465"/>
<line y1="-0.189232" x2="1.62787" y2="-0.189232" transform="matrix(-0.573972 0.818875 -0.808496 -0.588502 85.2568 104.409)" stroke="#4E4C4D" stroke-width="0.378465"/>
<line y1="-0.189232" x2="1.64674" y2="-0.189232" transform="matrix(-0.680877 -0.732397 0.719437 -0.694558 84.6343 107.075)" stroke="#4E4C4D" stroke-width="0.378465"/>
<ellipse cx="77.1577" cy="108.421" rx="2.02444" ry="3.3979" fill="white"/>
<line x1="77.1087" y1="106.964" x2="77.1087" y2="114.367" stroke="#4E4C4D" stroke-width="0.378465"/>
<line y1="-0.189232" x2="1.62787" y2="-0.189232" transform="matrix(-0.573974 0.818874 -0.808497 -0.588501 77.874 107.442)" stroke="#4E4C4D" stroke-width="0.378465"/>
<line y1="-0.189232" x2="1.64674" y2="-0.189232" transform="matrix(-0.680878 -0.732396 0.719438 -0.694557 77.251 110.108)" stroke="#4E4C4D" stroke-width="0.378465"/>
<path fillRule="evenodd" clipRule="evenodd" d="M60.7236 85.2008L65.1004 77.4756L69.4772 85.2008C68.3984 86.4186 66.8371 87.1839 65.1004 87.1839C63.3637 87.1839 61.8024 86.4186 60.7236 85.2008Z" fill="#E9E9E9"/>
<path fillRule="evenodd" clipRule="evenodd" d="M78.1104 95.2736L82.4871 87.5483L86.8639 95.2735C85.7851 96.4913 84.2238 97.2567 82.4871 97.2567C80.7504 97.2567 79.1891 96.4913 78.1104 95.2736Z" fill="#D3D2D2"/>
<g clip-path="url(#clip1_17660_164401)">
<path d="M46.106 96.3796C47.8245 96.6298 49.5728 96.1976 50.9657 95.5268C52.3587 94.8561 53.3052 93.5129 52.797 92.1782C52.5572 91.5604 52.0435 91.0044 51.4228 90.5563C50.3544 89.785 48.8638 89.3041 47.5663 89.545C46.1866 89.802 45.2703 90.7975 43.8921 91.0586C43.1334 91.203 42.3014 91.1083 41.499 91.0599C40.3482 90.9906 39.1638 91.0213 38.184 91.4052C37.2041 91.7892 36.4711 92.5939 36.6036 93.4957C36.7454 94.4655 37.8382 95.3025 39.0226 95.6808C40.2069 96.0591 41.4736 96.0783 42.7012 96.0809C43.9287 96.0834 45.1499 96.2375 46.1005 96.3766" fill="#A7A5A6"/>
</g>
<path d="M47.5054 87.5483L62.6656 114.307H32.3452L47.5054 87.5483Z" fill="#E9E9E9"/>
<ellipse cx="44.0523" cy="104.218" rx="2.02444" ry="5.14166" fill="white"/>
<line x1="44.0232" y1="103.965" x2="44.0232" y2="114.312" stroke="#4E4C4D" stroke-width="0.378465"/>
<line y1="-0.189232" x2="1.62787" y2="-0.189232" transform="matrix(-0.573974 0.818874 -0.808497 -0.588501 44.7686 104.409)" stroke="#4E4C4D" stroke-width="0.378465"/>
<line y1="-0.189232" x2="1.64674" y2="-0.189232" transform="matrix(-0.680877 -0.732398 0.719437 -0.694558 44.1455 107.075)" stroke="#4E4C4D" stroke-width="0.378465"/>
<path fillRule="evenodd" clipRule="evenodd" d="M43.0991 95.2736L47.4759 87.5483L51.8527 95.2735C50.7739 96.4913 49.2126 97.2567 47.4759 97.2567C45.7392 97.2567 44.1779 96.4913 43.0991 95.2736Z" fill="#D3D2D2"/>
<g clip-path="url(#clip2_17660_164401)">
<path d="M36.2442 86.3552C36.3857 86.2794 36.5177 86.1956 36.6596 86.1349C37.4394 85.8013 38.3817 86.2085 38.7004 87.0088C38.832 87.3316 38.8586 87.6889 38.7762 88.0283C38.7729 88.0408 38.7696 88.0538 38.7663 88.0663C38.7556 88.1076 38.7378 88.1424 38.6909 88.1426C38.6439 88.1428 38.6265 88.1068 38.611 88.063C38.5606 87.9051 38.5234 87.7392 38.4498 87.593C38.0506 86.7995 37.0687 86.499 36.3028 86.9287C36.2223 86.9739 36.1461 87.0271 36.065 87.0785C36.0269 87.0052 35.9926 86.9299 35.9503 86.8593C35.4946 86.0956 34.5686 85.8484 33.8041 86.2863C33.6444 86.3789 33.5023 86.4998 33.3844 86.6433C33.3537 86.6801 33.3222 86.7158 33.2703 86.6866C33.2184 86.6574 33.2309 86.6102 33.243 86.5643C33.4496 85.7775 34.1782 85.2691 34.9711 85.3727C35.5385 85.4471 35.9488 85.7577 36.2052 86.279C36.2157 86.3006 36.2256 86.3226 36.236 86.3443C36.2417 86.3505 36.2446 86.3556 36.2442 86.3552Z" fill="#4E4C4D"/>
</g>
<g clip-path="url(#clip3_17660_164401)">
<path d="M44.5442 83.1778C44.5936 83.0798 44.6346 82.981 44.69 82.8912C44.9941 82.3974 45.671 82.2491 46.153 82.5656C46.3491 82.692 46.5002 82.8792 46.5842 83.0997C46.5872 83.1079 46.5903 83.1164 46.5933 83.1246C46.6031 83.1517 46.6065 83.178 46.5806 83.1968C46.5547 83.2155 46.5313 83.2025 46.5061 83.1844C46.4178 83.117 46.3339 83.0399 46.2374 82.9882C45.7135 82.7074 45.0554 82.9305 44.7956 83.4719C44.7683 83.5289 44.7465 83.5885 44.7212 83.6491C44.6722 83.6236 44.6244 83.5956 44.5741 83.5733C44.0303 83.3314 43.4234 83.5617 43.1676 84.1072C43.1146 84.2217 43.0821 84.345 43.0716 84.4712C43.0687 84.5037 43.0649 84.536 43.025 84.5404C42.9851 84.5448 42.974 84.5137 42.9632 84.4835C42.7771 83.9662 42.9862 83.3959 43.4645 83.1389C43.8069 82.9551 44.1526 82.9643 44.4935 83.1511C44.5076 83.1589 44.5215 83.1672 44.5355 83.175C44.541 83.1762 44.5446 83.1779 44.5442 83.1778Z" fill="#4E4C4D"/>
</g>
<g clip-path="url(#clip4_17660_164401)">
<path d="M39.3925 81.1325C39.4724 81.0596 39.5448 80.983 39.6273 80.9199C40.0809 80.5727 40.7593 80.6802 41.0952 81.1476C41.2327 81.3356 41.3074 81.5635 41.3084 81.798C41.3083 81.8067 41.3082 81.8157 41.3081 81.8244C41.3078 81.8531 41.3018 81.8787 41.2713 81.8866C41.2408 81.8946 41.2237 81.8741 41.2066 81.8482C41.1483 81.7539 41.0975 81.6522 41.0261 81.5694C40.6389 81.1199 39.9519 81.0884 39.5228 81.4957C39.4777 81.5386 39.4367 81.5859 39.3922 81.6328C39.3557 81.5915 39.3212 81.5483 39.2824 81.5094C38.8632 81.0888 38.2211 81.0825 37.7943 81.495C37.7053 81.5819 37.6323 81.6842 37.5786 81.7973C37.5646 81.8263 37.5499 81.8548 37.5114 81.8445C37.4729 81.8341 37.4735 81.8014 37.474 81.7695C37.4819 81.2232 37.8741 80.7709 38.4065 80.7059C38.7875 80.6596 39.1043 80.7932 39.3549 81.0894C39.3652 81.1017 39.3751 81.1144 39.3854 81.1267C39.3901 81.1298 39.3928 81.1327 39.3925 81.1325Z" fill="#4E4C4D"/>
</g>
<path d="M186.49 48.5H108.239V69.7136C101.918 69.7136 95.8562 72.2196 91.3867 76.6804C86.9172 81.1413 84.4062 87.1915 84.4062 93.5C84.4062 99.8086 86.9172 105.859 91.3867 110.32C95.8562 114.78 101.918 117.286 108.239 117.286V138.5H186.49C189.65 138.5 192.681 137.247 194.916 135.017C197.151 132.786 198.406 129.761 198.406 126.607V60.4011C198.407 58.8386 198.1 57.2912 197.501 55.8474C196.903 54.4035 196.025 53.0915 194.919 51.9862C193.812 50.881 192.498 50.0043 191.052 49.4061C189.606 48.8079 188.055 48.5 186.49 48.5Z" fill="white" stroke="#E9E9E9" stroke-width="1.55421"/>
<g clip-path="url(#clip5_17660_164401)">
<rect x="171" y="54.5" width="21" height="21" rx="10.5" fill="#222222"/>
<g filter="url(#filter0_dd_17660_164401)">
<rect x="173.812" y="57.2056" width="15.5893" height="15.5893" rx="7.79464" fill="white"/>
<path fillRule="evenodd" clipRule="evenodd" d="M185.673 62.1463C185.91 62.3831 185.91 62.7669 185.673 63.0037L180.823 67.8537C180.586 68.0904 180.203 68.0904 179.966 67.8537L177.541 65.4287C177.304 65.1919 177.304 64.8081 177.541 64.5713C177.778 64.3346 178.161 64.3346 178.398 64.5713L180.395 66.5676L184.816 62.1463C185.053 61.9096 185.436 61.9096 185.673 62.1463Z" fill="#222222" stroke="#222222" stroke-width="0.433036" stroke-linecap="round" stroke-linejoin="round"/>
</g>
</g>
<rect x="120.854" y="87.7612" width="58.3691" height="3.42034" rx="0.855084" fill="#D3D2D2"/>
<rect x="120.854" y="108.284" width="48.8087" height="3.42034" rx="0.855084" fill="#D3D2D2"/>
<rect x="120.854" y="98.021" width="24.1528" height="3.42034" rx="0.855084" fill="#D3D2D2"/>
<rect x="147.02" y="98.022" width="37.2355" height="3.42034" rx="0.855084" fill="#D3D2D2"/>
<rect x="120.854" y="77.5" width="30.1909" height="3.42034" rx="0.855084" fill="#D3D2D2"/>
<path d="M279.342 93.5C279.342 87.2135 281.831 81.1825 286.263 76.725C290.696 72.2676 296.714 69.746 303 69.7115V48.5H224.894C221.74 48.5 218.714 49.7531 216.484 51.9838C214.253 54.2144 213 57.2397 213 60.3943V126.606C213 129.76 214.253 132.786 216.484 135.016C218.714 137.247 221.74 138.5 224.894 138.5H303V117.285C296.714 117.25 290.698 114.729 286.265 110.272C281.832 105.816 279.343 99.7858 279.342 93.5Z" fill="white" stroke="#E9E9E9" stroke-width="1.55421"/>
<mask id="mask0_17660_164401" style="mask-type:alpha" maskUnits="userSpaceOnUse" x="223" y="95" width="64" height="20">
<rect x="223" y="95.9888" width="63.3566" height="18.8358" fill="#D9D9D9" fill-opacity="0.8"/>
</mask>
<g mask="url(#mask0_17660_164401)">
<path d="M114.267 104.631C114.267 104.101 114.697 103.671 115.227 103.671C115.757 103.671 116.187 104.101 116.187 104.631V105.911C116.187 106.442 115.757 106.871 115.227 106.871C114.697 106.871 114.267 106.442 114.267 105.911V104.631Z" fill="#222222"/>
<path d="M118.03 101.59C118.03 101.06 118.46 100.63 118.99 100.63C119.52 100.63 119.95 101.06 119.95 101.59V108.952C119.95 109.482 119.52 109.912 118.99 109.912C118.46 109.912 118.03 109.482 118.03 108.952V101.59Z" fill="#222222"/>
<path d="M121.793 99.5096C121.793 98.9793 122.223 98.5494 122.754 98.5494C123.284 98.5494 123.714 98.9793 123.714 99.5096V111.032C123.714 111.563 123.284 111.993 122.754 111.993C122.223 111.993 121.793 111.563 121.793 111.032V99.5096Z" fill="#222222"/>
<path d="M125.557 97.2691C125.557 96.7388 125.987 96.3088 126.517 96.3088C127.047 96.3088 127.477 96.7388 127.477 97.2691V113.273C127.477 113.803 127.047 114.233 126.517 114.233C125.987 114.233 125.557 113.803 125.557 113.273V97.2691Z" fill="#222222"/>
<path d="M129.32 99.8297C129.32 99.2994 129.75 98.8695 130.28 98.8695C130.811 98.8695 131.24 99.2994 131.24 99.8297V110.712C131.24 111.243 130.811 111.672 130.28 111.672C129.75 111.672 129.32 111.243 129.32 110.712V99.8297Z" fill="#222222"/>
<path d="M133.083 104.631C133.083 104.1 133.513 103.671 134.044 103.671C134.574 103.671 135.004 104.1 135.004 104.631V105.911C135.004 106.441 134.574 106.871 134.044 106.871C133.513 106.871 133.083 106.441 133.083 105.911V104.631Z" fill="#222222"/>
<path d="M136.847 100.79C136.847 100.26 137.277 99.8297 137.807 99.8297C138.337 99.8297 138.767 100.26 138.767 100.79V109.752C138.767 110.282 138.337 110.712 137.807 110.712C137.277 110.712 136.847 110.282 136.847 109.752V100.79Z" fill="#222222"/>
<path d="M140.61 102.39C140.61 101.86 141.04 101.43 141.57 101.43C142.101 101.43 142.53 101.86 142.53 102.39V108.152C142.53 108.682 142.101 109.112 141.57 109.112C141.04 109.112 140.61 108.682 140.61 108.152V102.39Z" fill="#222222"/>
<path d="M144.373 103.671C144.373 103.14 144.803 102.71 145.334 102.71C145.864 102.71 146.294 103.14 146.294 103.671V106.871C146.294 107.402 145.864 107.832 145.334 107.832C144.803 107.832 144.373 107.402 144.373 106.871V103.671Z" fill="#222222"/>
<path d="M148.137 101.59C148.137 101.06 148.567 100.63 149.097 100.63C149.627 100.63 150.057 101.06 150.057 101.59V108.952C150.057 109.482 149.627 109.912 149.097 109.912C148.567 109.912 148.137 109.482 148.137 108.952V101.59Z" fill="#222222"/>
<path d="M151.9 99.1895C151.9 98.6592 152.33 98.2293 152.86 98.2293C153.391 98.2293 153.82 98.6592 153.82 99.1895V111.352C153.82 111.883 153.391 112.313 152.86 112.313C152.33 112.313 151.9 111.883 151.9 111.352V99.1895Z" fill="#222222"/>
<path d="M155.663 96.949C155.663 96.4187 156.093 95.9888 156.624 95.9888C157.154 95.9888 157.584 96.4187 157.584 96.949V113.593C157.584 114.123 157.154 114.553 156.624 114.553C156.093 114.553 155.663 114.123 155.663 113.593V96.949Z" fill="#222222"/>
<path d="M159.427 102.39C159.427 101.86 159.857 101.43 160.387 101.43C160.917 101.43 161.347 101.86 161.347 102.39V108.152C161.347 108.682 160.917 109.112 160.387 109.112C159.857 109.112 159.427 108.682 159.427 108.152V102.39Z" fill="#222222"/>
<path d="M163.19 102.39C163.19 101.86 163.62 101.43 164.15 101.43C164.681 101.43 165.111 101.86 165.111 102.39V108.152C165.111 108.682 164.681 109.112 164.15 109.112C163.62 109.112 163.19 108.682 163.19 108.152V102.39Z" fill="#222222"/>
<path d="M166.953 103.351C166.953 102.82 167.383 102.39 167.914 102.39C168.444 102.39 168.874 102.82 168.874 103.351V107.191C168.874 107.722 168.444 108.152 167.914 108.152C167.383 108.152 166.953 107.722 166.953 107.191V103.351Z" fill="#222222"/>
<path d="M170.717 104.951C170.717 104.421 171.147 103.991 171.677 103.991C172.207 103.991 172.637 104.421 172.637 104.951V105.591C172.637 106.121 172.207 106.551 171.677 106.551C171.147 106.551 170.717 106.121 170.717 105.591V104.951Z" fill="#222222"/>
<path d="M174.48 105.271C174.48 104.741 174.91 104.311 175.44 104.311C175.971 104.311 176.401 104.741 176.401 105.271C176.401 105.801 175.971 106.231 175.44 106.231C174.91 106.231 174.48 105.801 174.48 105.271Z" fill="#222222"/>
<path d="M178.243 102.07C178.243 101.54 178.673 101.11 179.204 101.11C179.734 101.11 180.164 101.54 180.164 102.07V108.472C180.164 109.002 179.734 109.432 179.204 109.432C178.673 109.432 178.243 109.002 178.243 108.472V102.07Z" fill="#222222"/>
<path d="M182.007 100.79C182.007 100.26 182.437 99.8297 182.967 99.8297C183.497 99.8297 183.927 100.26 183.927 100.79V109.752C183.927 110.282 183.497 110.712 182.967 110.712C182.437 110.712 182.007 110.282 182.007 109.752V100.79Z" fill="#222222"/>
<path d="M185.77 102.39C185.77 101.86 186.2 101.43 186.73 101.43C187.261 101.43 187.691 101.86 187.691 102.39V108.152C187.691 108.682 187.261 109.112 186.73 109.112C186.2 109.112 185.77 108.682 185.77 108.152V102.39Z" fill="#222222"/>
<path d="M189.533 103.351C189.533 102.82 189.963 102.39 190.494 102.39C191.024 102.39 191.454 102.82 191.454 103.351V107.191C191.454 107.722 191.024 108.152 190.494 108.152C189.963 108.152 189.533 107.722 189.533 107.191V103.351Z" fill="#222222"/>
<path d="M193.297 100.47C193.297 99.9395 193.727 99.5096 194.257 99.5096C194.787 99.5096 195.217 99.9395 195.217 100.47V110.072C195.217 110.602 194.787 111.032 194.257 111.032C193.727 111.032 193.297 110.602 193.297 110.072V100.47Z" fill="#222222"/>
<path d="M197.06 96.949C197.06 96.4187 197.49 95.9888 198.02 95.9888C198.551 95.9888 198.981 96.4187 198.981 96.949V113.593C198.981 114.123 198.551 114.553 198.02 114.553C197.49 114.553 197.06 114.123 197.06 113.593V96.949Z" fill="#222222"/>
<path d="M200.824 99.5096C200.824 98.9793 201.253 98.5494 201.784 98.5494C202.314 98.5494 202.744 98.9793 202.744 99.5096V111.032C202.744 111.563 202.314 111.993 201.784 111.993C201.253 111.993 200.824 111.563 200.824 111.032V99.5096Z" fill="#222222"/>
<path d="M204.587 101.11C204.587 100.58 205.017 100.15 205.547 100.15C206.077 100.15 206.507 100.58 206.507 101.11V109.432C206.507 109.962 206.077 110.392 205.547 110.392C205.017 110.392 204.587 109.962 204.587 109.432V101.11Z" fill="#222222"/>
<path d="M208.35 99.5096C208.35 98.9793 208.78 98.5494 209.31 98.5494C209.841 98.5494 210.271 98.9793 210.271 99.5096V111.032C210.271 111.563 209.841 111.993 209.31 111.993C208.78 111.993 208.35 111.563 208.35 111.032V99.5096Z" fill="#222222"/>
<path d="M212.114 98.2293C212.114 97.699 212.543 97.2691 213.074 97.2691C213.604 97.2691 214.034 97.699 214.034 98.2293V112.313C214.034 112.843 213.604 113.273 213.074 113.273C212.543 113.273 212.114 112.843 212.114 112.313V98.2293Z" fill="#222222"/>
<path d="M215.877 99.8297C215.877 99.2994 216.307 98.8695 216.837 98.8695C217.367 98.8695 217.797 99.2994 217.797 99.8297V110.712C217.797 111.243 217.367 111.672 216.837 111.672C216.307 111.672 215.877 111.243 215.877 110.712V99.8297Z" fill="#222222"/>
<path d="M219.64 99.1895C219.64 98.6592 220.07 98.2293 220.6 98.2293C221.131 98.2293 221.561 98.6592 221.561 99.1895V111.352C221.561 111.883 221.131 112.313 220.6 112.313C220.07 112.313 219.64 111.883 219.64 111.352V99.1895Z" fill="#222222"/>
<path d="M223.404 101.59C223.404 101.06 223.833 100.63 224.364 100.63C224.894 100.63 225.324 101.06 225.324 101.59V108.952C225.324 109.482 224.894 109.912 224.364 109.912C223.833 109.912 223.404 109.482 223.404 108.952V101.59Z" fill="#222222"/>
<path d="M227.167 103.671C227.167 103.14 227.597 102.71 228.127 102.71C228.657 102.71 229.087 103.14 229.087 103.671V106.871C229.087 107.402 228.657 107.832 228.127 107.832C227.597 107.832 227.167 107.402 227.167 106.871V103.671Z" fill="#222222"/>
<path d="M230.93 104.951C230.93 104.421 231.36 103.991 231.89 103.991C232.421 103.991 232.851 104.421 232.851 104.951V105.591C232.851 106.121 232.421 106.551 231.89 106.551C231.36 106.551 230.93 106.121 230.93 105.591V104.951Z" fill="#222222"/>
<path d="M234.694 103.351C234.694 102.82 235.124 102.39 235.654 102.39C236.184 102.39 236.614 102.82 236.614 103.351V107.191C236.614 107.722 236.184 108.152 235.654 108.152C235.124 108.152 234.694 107.722 234.694 107.191V103.351Z" fill="#222222"/>
<path d="M238.457 104.951C238.457 104.421 238.887 103.991 239.417 103.991C239.948 103.991 240.377 104.421 240.377 104.951V105.591C240.377 106.121 239.948 106.551 239.417 106.551C238.887 106.551 238.457 106.121 238.457 105.591V104.951Z" fill="#222222"/>
<path d="M242.22 104.951C242.22 104.421 242.65 103.991 243.181 103.991C243.711 103.991 244.141 104.421 244.141 104.951V105.591C244.141 106.121 243.711 106.551 243.181 106.551C242.65 106.551 242.22 106.121 242.22 105.591V104.951Z" fill="#222222"/>
<path d="M245.984 102.07C245.984 101.54 246.414 101.11 246.944 101.11C247.474 101.11 247.904 101.54 247.904 102.07V108.472C247.904 109.002 247.474 109.432 246.944 109.432C246.414 109.432 245.984 109.002 245.984 108.472V102.07Z" fill="#222222"/>
<path d="M249.747 103.671C249.747 103.14 250.177 102.71 250.707 102.71C251.238 102.71 251.667 103.14 251.667 103.671V106.871C251.667 107.402 251.238 107.832 250.707 107.832C250.177 107.832 249.747 107.402 249.747 106.871V103.671Z" fill="#222222"/>
<path d="M253.51 104.951C253.51 104.421 253.94 103.991 254.471 103.991C255.001 103.991 255.431 104.421 255.431 104.951V105.591C255.431 106.121 255.001 106.551 254.471 106.551C253.94 106.551 253.51 106.121 253.51 105.591V104.951Z" fill="#222222"/>
<path d="M257.351 103.35C257.351 102.82 257.781 102.39 258.312 102.39C258.842 102.39 259.272 102.82 259.272 103.35V107.191C259.272 107.722 258.842 108.151 258.312 108.151C257.781 108.151 257.351 107.722 257.351 107.191V103.35Z" fill="#D3D2D2"/>
<path d="M261.115 101.59C261.115 101.06 261.544 100.63 262.075 100.63C262.605 100.63 263.035 101.06 263.035 101.59V108.952C263.035 109.482 262.605 109.912 262.075 109.912C261.544 109.912 261.115 109.482 261.115 108.952V101.59Z" fill="#D3D2D2"/>
<path d="M264.878 99.5096C264.878 98.9793 265.308 98.5494 265.838 98.5494C266.368 98.5494 266.798 98.9793 266.798 99.5096V111.032C266.798 111.563 266.368 111.993 265.838 111.993C265.308 111.993 264.878 111.563 264.878 111.032V99.5096Z" fill="#D3D2D2"/>
<path d="M268.641 97.2691C268.641 96.7388 269.071 96.3088 269.601 96.3088C270.132 96.3088 270.562 96.7388 270.562 97.2691V113.273C270.562 113.803 270.132 114.233 269.601 114.233C269.071 114.233 268.641 113.803 268.641 113.273V97.2691Z" fill="#D3D2D2"/>
<path d="M272.405 99.8297C272.405 99.2994 272.834 98.8695 273.365 98.8695C273.895 98.8695 274.325 99.2994 274.325 99.8297V110.712C274.325 111.243 273.895 111.672 273.365 111.672C272.834 111.672 272.405 111.243 272.405 110.712V99.8297Z" fill="#D3D2D2"/>
<path d="M276.168 104.631C276.168 104.1 276.598 103.671 277.128 103.671C277.658 103.671 278.088 104.1 278.088 104.631V105.911C278.088 106.441 277.658 106.871 277.128 106.871C276.598 106.871 276.168 106.441 276.168 105.911V104.631Z" fill="#D3D2D2"/>
<path d="M279.931 100.79C279.931 100.26 280.361 99.8297 280.891 99.8297C281.422 99.8297 281.852 100.26 281.852 100.79V109.752C281.852 110.282 281.422 110.712 280.891 110.712C280.361 110.712 279.931 110.282 279.931 109.752V100.79Z" fill="#D3D2D2"/>
<path d="M283.695 102.39C283.695 101.86 284.125 101.43 284.655 101.43C285.185 101.43 285.615 101.86 285.615 102.39V108.152C285.615 108.682 285.185 109.112 284.655 109.112C284.125 109.112 283.695 108.682 283.695 108.152V102.39Z" fill="#D3D2D2"/>
<path d="M287.458 103.671C287.458 103.14 287.888 102.71 288.418 102.71C288.949 102.71 289.378 103.14 289.378 103.671V106.871C289.378 107.402 288.949 107.832 288.418 107.832C287.888 107.832 287.458 107.402 287.458 106.871V103.671Z" fill="#D3D2D2"/>
<path d="M291.221 101.59C291.221 101.06 291.651 100.63 292.182 100.63C292.712 100.63 293.142 101.06 293.142 101.59V108.952C293.142 109.482 292.712 109.912 292.182 109.912C291.651 109.912 291.221 109.482 291.221 108.952V101.59Z" fill="#D3D2D2"/>
<path d="M294.985 99.1895C294.985 98.6592 295.415 98.2293 295.945 98.2293C296.475 98.2293 296.905 98.6592 296.905 99.1895V111.352C296.905 111.883 296.475 112.313 295.945 112.313C295.415 112.313 294.985 111.883 294.985 111.352V99.1895Z" fill="#D3D2D2"/>
<path d="M298.748 96.949C298.748 96.4187 299.178 95.9888 299.708 95.9888C300.239 95.9888 300.668 96.4187 300.668 96.949V113.593C300.668 114.123 300.239 114.553 299.708 114.553C299.178 114.553 298.748 114.123 298.748 113.593V96.949Z" fill="#D3D2D2"/>
<path d="M302.511 102.39C302.511 101.86 302.941 101.43 303.472 101.43C304.002 101.43 304.432 101.86 304.432 102.39V108.152C304.432 108.682 304.002 109.112 303.472 109.112C302.941 109.112 302.511 108.682 302.511 108.152V102.39Z" fill="#D3D2D2"/>
<path d="M306.275 102.39C306.275 101.86 306.705 101.43 307.235 101.43C307.765 101.43 308.195 101.86 308.195 102.39V108.152C308.195 108.682 307.765 109.112 307.235 109.112C306.705 109.112 306.275 108.682 306.275 108.152V102.39Z" fill="#D3D2D2"/>
<path d="M310.038 103.351C310.038 102.82 310.468 102.39 310.998 102.39C311.529 102.39 311.958 102.82 311.958 103.351V107.191C311.958 107.722 311.529 108.152 310.998 108.152C310.468 108.152 310.038 107.722 310.038 107.191V103.351Z" fill="#D3D2D2"/>
<path d="M313.801 104.951C313.801 104.421 314.231 103.991 314.762 103.991C315.292 103.991 315.722 104.421 315.722 104.951V105.591C315.722 106.121 315.292 106.551 314.762 106.551C314.231 106.551 313.801 106.121 313.801 105.591V104.951Z" fill="#D3D2D2"/>
<path d="M317.565 105.271C317.565 104.741 317.995 104.311 318.525 104.311C319.055 104.311 319.485 104.741 319.485 105.271C319.485 105.801 319.055 106.231 318.525 106.231C317.995 106.231 317.565 105.801 317.565 105.271Z" fill="#D3D2D2"/>
<path d="M321.328 102.07C321.328 101.54 321.758 101.11 322.288 101.11C322.819 101.11 323.248 101.54 323.248 102.07V108.472C323.248 109.002 322.819 109.432 322.288 109.432C321.758 109.432 321.328 109.002 321.328 108.472V102.07Z" fill="#D3D2D2"/>
<path d="M325.091 100.79C325.091 100.26 325.521 99.8297 326.052 99.8297C326.582 99.8297 327.012 100.26 327.012 100.79V109.752C327.012 110.282 326.582 110.712 326.052 110.712C325.521 110.712 325.091 110.282 325.091 109.752V100.79Z" fill="#D3D2D2"/>
<path d="M328.855 102.39C328.855 101.86 329.285 101.43 329.815 101.43C330.345 101.43 330.775 101.86 330.775 102.39V108.152C330.775 108.682 330.345 109.112 329.815 109.112C329.285 109.112 328.855 108.682 328.855 108.152V102.39Z" fill="#D3D2D2"/>
<path d="M332.618 103.351C332.618 102.82 333.048 102.39 333.578 102.39C334.109 102.39 334.539 102.82 334.539 103.351V107.191C334.539 107.722 334.109 108.152 333.578 108.152C333.048 108.152 332.618 107.722 332.618 107.191V103.351Z" fill="#D3D2D2"/>
<path d="M336.381 100.47C336.381 99.9395 336.811 99.5096 337.342 99.5096C337.872 99.5096 338.302 99.9395 338.302 100.47V110.072C338.302 110.602 337.872 111.032 337.342 111.032C336.811 111.032 336.381 110.602 336.381 110.072V100.47Z" fill="#D3D2D2"/>
<path d="M340.145 96.949C340.145 96.4187 340.575 95.9888 341.105 95.9888C341.635 95.9888 342.065 96.4187 342.065 96.949V113.593C342.065 114.123 341.635 114.553 341.105 114.553C340.575 114.553 340.145 114.123 340.145 113.593V96.949Z" fill="#D3D2D2"/>
<path d="M343.908 99.5096C343.908 98.9793 344.338 98.5494 344.868 98.5494C345.399 98.5494 345.829 98.9793 345.829 99.5096V111.032C345.829 111.563 345.399 111.993 344.868 111.993C344.338 111.993 343.908 111.563 343.908 111.032V99.5096Z" fill="#D3D2D2"/>
<path d="M347.671 101.11C347.671 100.58 348.101 100.15 348.632 100.15C349.162 100.15 349.592 100.58 349.592 101.11V109.432C349.592 109.962 349.162 110.392 348.632 110.392C348.101 110.392 347.671 109.962 347.671 109.432V101.11Z" fill="#D3D2D2"/>
<path d="M351.435 99.5096C351.435 98.9793 351.865 98.5494 352.395 98.5494C352.925 98.5494 353.355 98.9793 353.355 99.5096V111.032C353.355 111.563 352.925 111.993 352.395 111.993C351.865 111.993 351.435 111.563 351.435 111.032V99.5096Z" fill="#D3D2D2"/>
<path d="M355.198 98.2293C355.198 97.699 355.628 97.2691 356.158 97.2691C356.689 97.2691 357.119 97.699 357.119 98.2293V112.313C357.119 112.843 356.689 113.273 356.158 113.273C355.628 113.273 355.198 112.843 355.198 112.313V98.2293Z" fill="#D3D2D2"/>
<path d="M358.962 99.8297C358.962 99.2994 359.391 98.8695 359.922 98.8695C360.452 98.8695 360.882 99.2994 360.882 99.8297V110.712C360.882 111.243 360.452 111.672 359.922 111.672C359.391 111.672 358.962 111.243 358.962 110.712V99.8297Z" fill="#D3D2D2"/>
<path d="M362.725 99.1895C362.725 98.6592 363.155 98.2293 363.685 98.2293C364.215 98.2293 364.645 98.6592 364.645 99.1895V111.352C364.645 111.883 364.215 112.313 363.685 112.313C363.155 112.313 362.725 111.883 362.725 111.352V99.1895Z" fill="#D3D2D2"/>
<path d="M366.488 101.59C366.488 101.06 366.918 100.63 367.448 100.63C367.979 100.63 368.409 101.06 368.409 101.59V108.952C368.409 109.482 367.979 109.912 367.448 109.912C366.918 109.912 366.488 109.482 366.488 108.952V101.59Z" fill="#D3D2D2"/>
<path d="M370.252 103.671C370.252 103.14 370.681 102.71 371.212 102.71C371.742 102.71 372.172 103.14 372.172 103.671V106.871C372.172 107.402 371.742 107.832 371.212 107.832C370.681 107.832 370.252 107.402 370.252 106.871V103.671Z" fill="#D3D2D2"/>
<path d="M374.015 104.951C374.015 104.421 374.445 103.991 374.975 103.991C375.505 103.991 375.935 104.421 375.935 104.951V105.591C375.935 106.121 375.505 106.551 374.975 106.551C374.445 106.551 374.015 106.121 374.015 105.591V104.951Z" fill="#D3D2D2"/>
<path d="M377.778 103.351C377.778 102.82 378.208 102.39 378.738 102.39C379.269 102.39 379.699 102.82 379.699 103.351V107.191C379.699 107.722 379.269 108.152 378.738 108.152C378.208 108.152 377.778 107.722 377.778 107.191V103.351Z" fill="#D3D2D2"/>
<path d="M381.542 104.951C381.542 104.421 381.971 103.991 382.502 103.991C383.032 103.991 383.462 104.421 383.462 104.951V105.591C383.462 106.121 383.032 106.551 382.502 106.551C381.971 106.551 381.542 106.121 381.542 105.591V104.951Z" fill="#D3D2D2"/>
<path d="M385.305 104.951C385.305 104.421 385.735 103.991 386.265 103.991C386.795 103.991 387.225 104.421 387.225 104.951V105.591C387.225 106.121 386.795 106.551 386.265 106.551C385.735 106.551 385.305 106.121 385.305 105.591V104.951Z" fill="#D3D2D2"/>
<path d="M389.068 102.07C389.068 101.54 389.498 101.11 390.028 101.11C390.559 101.11 390.989 101.54 390.989 102.07V108.472C390.989 109.002 390.559 109.432 390.028 109.432C389.498 109.432 389.068 109.002 389.068 108.472V102.07Z" fill="#D3D2D2"/>
<path d="M392.832 103.671C392.832 103.14 393.262 102.71 393.792 102.71C394.322 102.71 394.752 103.14 394.752 103.671V106.871C394.752 107.402 394.322 107.832 393.792 107.832C393.262 107.832 392.832 107.402 392.832 106.871V103.671Z" fill="#D3D2D2"/>
<path d="M396.595 104.951C396.595 104.421 397.025 103.991 397.555 103.991C398.085 103.991 398.515 104.421 398.515 104.951V105.591C398.515 106.121 398.085 106.551 397.555 106.551C397.025 106.551 396.595 106.121 396.595 105.591V104.951Z" fill="#D3D2D2"/>
</g>
<path d="M264.122 84.3223C265.262 84.9833 265.259 86.631 264.116 87.2881L253.832 93.2019C252.689 93.8589 251.264 93.0326 251.266 91.7144L251.287 79.851C251.289 78.5328 252.718 77.7115 253.858 78.3726L264.122 84.3223Z" fill="#51A1A6"/>
<path d="M381.084 48.5H302.833V69.7136C296.512 69.7136 290.45 72.2196 285.98 76.6804C281.511 81.1413 279 87.1915 279 93.5C279 99.8086 281.511 105.859 285.98 110.32C290.45 114.78 296.512 117.286 302.833 117.286V138.5H381.084C384.244 138.5 387.275 137.247 389.51 135.017C391.745 132.786 393 129.761 393 126.607V60.4011C393.001 58.8386 392.694 57.2912 392.095 55.8474C391.497 54.4035 390.619 53.0915 389.513 51.9862C388.406 50.881 387.092 50.0043 385.646 49.4061C384.199 48.8079 382.649 48.5 381.084 48.5Z" fill="white" stroke="#E9E9E9" stroke-width="1.55421"/>
<ellipse cx="325.805" cy="87.2626" rx="14.8048" ry="14.7626" fill="white"/>
<path d="M346.066 76.3618C332.012 76.3618 334.539 91.3358 322.29 107.671L370.924 108.115C359.035 97.2152 359.756 76.3618 346.066 76.3618Z" fill="#D3D2D2"/>
<g clip-path="url(#clip6_17660_164401)">
<path d="M327.561 81.6458C327.606 81.5565 327.644 81.4666 327.695 81.3849C327.975 80.9354 328.597 80.8004 329.041 81.0885C329.221 81.2036 329.36 81.374 329.437 81.5746C329.44 81.5821 329.443 81.5898 329.446 81.5973C329.455 81.622 329.458 81.646 329.434 81.663C329.41 81.6801 329.389 81.6682 329.366 81.6517C329.284 81.5904 329.207 81.5203 329.118 81.4732C328.636 81.2176 328.031 81.4206 327.792 81.9134C327.767 81.9653 327.747 82.0196 327.724 82.0747C327.679 82.0515 327.635 82.026 327.588 82.0057C327.088 81.7855 326.53 81.9952 326.295 82.4917C326.246 82.596 326.216 82.7081 326.206 82.823C326.204 82.8526 326.2 82.882 326.163 82.886C326.127 82.89 326.117 82.8617 326.107 82.8343C325.935 82.3634 326.128 81.8443 326.568 81.6103C326.883 81.443 327.201 81.4514 327.514 81.6214C327.527 81.6285 327.54 81.6361 327.553 81.6432C327.558 81.6443 327.561 81.6458 327.561 81.6458Z" fill="#4E4C4D"/>
</g>
<g clip-path="url(#clip7_17660_164401)">
<path d="M320.018 86.7718C320.116 86.7239 320.208 86.6704 320.306 86.6328C320.845 86.4256 321.477 86.7206 321.674 87.2662C321.755 87.4863 321.764 87.7273 321.7 87.9538C321.697 87.9622 321.695 87.9709 321.692 87.9792C321.684 88.0068 321.671 88.0298 321.639 88.0289C321.607 88.028 321.596 88.0033 321.587 87.9736C321.556 87.8662 321.535 87.7537 321.489 87.6537C321.236 87.1109 320.575 86.8869 320.043 87.1589C319.987 87.1876 319.934 87.2217 319.878 87.2545C319.854 87.2043 319.832 87.1529 319.805 87.1044C319.514 86.5804 318.889 86.3934 318.358 86.6711C318.247 86.7298 318.147 86.808 318.063 86.902C318.041 86.9261 318.019 86.9494 317.985 86.9286C317.95 86.9078 317.96 86.8763 317.969 86.8457C318.129 86.3208 318.638 85.9949 319.175 86.0823C319.56 86.145 319.831 86.3631 319.993 86.7196C320 86.7344 320.006 86.7494 320.012 86.7642C320.016 86.7685 320.018 86.772 320.018 86.7718Z" fill="#4E4C4D"/>
</g>
<g clip-path="url(#clip8_17660_164401)">
<path d="M326.989 89.3353C327.074 89.1971 327.147 89.0569 327.241 88.9317C327.755 88.2433 328.788 88.1142 329.473 88.6451C329.752 88.8577 329.956 89.1539 330.056 89.4903C330.06 89.5028 330.063 89.5159 330.067 89.5284C330.078 89.5697 330.08 89.609 330.039 89.6332C329.998 89.6574 329.965 89.635 329.929 89.605C329.805 89.4939 329.688 89.369 329.549 89.28C328.797 88.7961 327.784 89.038 327.331 89.8026C327.283 89.883 327.243 89.9682 327.198 90.0542C327.128 90.0101 327.06 89.9624 326.987 89.9228C326.2 89.4938 325.263 89.7533 324.815 90.5243C324.722 90.6863 324.659 90.8638 324.628 91.0486C324.62 91.0963 324.611 91.1434 324.55 91.1446C324.49 91.1458 324.477 91.0985 324.465 91.0525C324.247 90.2644 324.627 89.4506 325.375 89.1348C325.91 88.9089 326.427 88.9683 326.916 89.2891C326.936 89.3025 326.956 89.3166 326.976 89.33C326.984 89.3324 326.989 89.3354 326.989 89.3353Z" fill="#4E4C4D"/>
</g>
<path fillRule="evenodd" clipRule="evenodd" d="M371.136 91.0143C369.722 91.6881 367.947 92.1221 366.203 91.8709L366.197 91.8679C365.471 91.7626 364.588 91.6489 363.664 91.598C362.459 92.0178 361.091 92.2338 359.742 92.0394L359.736 92.0364C358.771 91.8966 357.532 91.7419 356.286 91.7393C355.04 91.7367 353.754 91.7175 352.552 91.3375C351.349 90.9576 350.24 90.1169 350.096 89.1427C349.962 88.237 350.706 87.4287 351.7 87.0431C352.695 86.6574 353.897 86.6266 355.065 86.6963C355.195 86.704 355.325 86.7129 355.456 86.7218C356.147 86.769 356.847 86.8168 357.494 86.6949C358.192 86.5641 358.773 86.2498 359.354 85.9356C359.938 85.6198 360.522 85.304 361.224 85.1746C362.517 84.9372 363.998 85.3981 365.078 86.1479C365.33 86.0299 365.573 85.8985 365.816 85.7671C366.399 85.4513 366.983 85.1355 367.685 85.0061C369.002 84.7642 370.515 85.2471 371.6 86.0219C372.23 86.4719 372.751 87.0304 372.995 87.6509C373.51 88.9915 372.55 90.3406 371.136 91.0143Z" fill="#A7A5A6"/>
<path d="M354.221 90.6512C354.411 89.9073 355.738 89.9073 355.928 90.6512L357.879 98.2655C357.99 98.6986 357.577 99.1043 357.025 99.1043H353.124C352.572 99.1043 352.159 98.6986 352.27 98.2655L354.221 90.6512Z" fill="white"/>
<line x1="355.049" y1="93.0967" x2="355.049" y2="99.9623" stroke="#4E4C4D" stroke-width="0.383461"/>
<line y1="-0.19173" x2="1.75907" y2="-0.19173" transform="matrix(-0.512749 0.858539 -0.863827 -0.503788 355.759 93.7319)" stroke="#4E4C4D" stroke-width="0.383461"/>
<line y1="-0.19173" x2="1.66214" y2="-0.19173" transform="matrix(-0.684715 -0.728811 0.723081 -0.690763 355.127 96.4097)" stroke="#4E4C4D" stroke-width="0.383461"/>
<path d="M329.628 93.5259C318.781 93.5259 317.673 104.678 311 114.552H349.646C343.252 105.975 340.193 93.5259 329.628 93.5259Z" fill="#E0E0E0"/>
<path d="M358.884 99.5332C347.184 99.5332 345.988 107.499 338.791 114.552H380.477C373.579 108.426 370.28 99.5332 358.884 99.5332Z" fill="#E9E9E9"/>
<path d="M324.693 105.24C324.883 104.496 326.21 104.496 326.4 105.24L328.351 112.854C328.462 113.287 328.049 113.693 327.497 113.693H323.596C323.044 113.693 322.631 113.287 322.742 112.854L324.693 105.24Z" fill="white"/>
<line x1="325.521" y1="107.686" x2="325.521" y2="114.552" stroke="#4E4C4D" stroke-width="0.383461"/>
<line y1="-0.19173" x2="1.75906" y2="-0.19173" transform="matrix(-0.512749 0.858539 -0.863828 -0.503788 326.231 108.321)" stroke="#4E4C4D" stroke-width="0.383461"/>
<line y1="-0.19173" x2="1.66214" y2="-0.19173" transform="matrix(-0.684715 -0.728811 0.72308 -0.690764 325.599 110.999)" stroke="#4E4C4D" stroke-width="0.383461"/>
<g clip-path="url(#clip9_17660_164401)">
<rect x="366" y="54.5" width="21" height="21" rx="10.5" fill="#222222"/>
<g filter="url(#filter1_dd_17660_164401)">
<rect x="368.643" y="57.0713" width="15.8571" height="15.8571" rx="7.92857" fill="white"/>
<path fillRule="evenodd" clipRule="evenodd" d="M373.052 61.4799C373.293 61.2391 373.683 61.2391 373.924 61.4799L376.571 64.1272L379.218 61.4799C379.459 61.2391 379.85 61.2391 380.09 61.4799C380.331 61.7208 380.331 62.1112 380.09 62.352L377.443 64.9993L380.09 67.6466C380.331 67.8874 380.331 68.2779 380.09 68.5187C379.85 68.7595 379.459 68.7595 379.218 68.5187L376.571 65.8714L373.924 68.5187C373.683 68.7595 373.293 68.7595 373.052 68.5187C372.811 68.2779 372.811 67.8874 373.052 67.6466L375.699 64.9993L373.052 62.352C372.811 62.1112 372.811 61.7208 373.052 61.4799Z" fill="#222222" stroke="#222222" stroke-width="0.440476" stroke-linecap="round"/>
</g>
</g>
<defs>
<filter id="filter0_dd_17660_164401" x="171.214" y="55.4734" width="20.7858" height="20.7858" filterUnits="userSpaceOnUse" color-interpolation-filters="sRGB">
<feFlood flood-opacity="0" result="BackgroundImageFix"/>
<feColorMatrix in="SourceAlpha" type="matrix" values="0 0 0 0 0 0 0 0 0 0 0 0 0 0 0 0 0 0 127 0" result="hardAlpha"/>
<feOffset dy="0.866071"/>
<feGaussianBlur stdDeviation="0.866071"/>
<feColorMatrix type="matrix" values="0 0 0 0 0 0 0 0 0 0 0 0 0 0 0 0 0 0 0.06 0"/>
<feBlend mode="normal" in2="BackgroundImageFix" result="effect1_dropShadow_17660_164401"/>
<feColorMatrix in="SourceAlpha" type="matrix" values="0 0 0 0 0 0 0 0 0 0 0 0 0 0 0 0 0 0 127 0" result="hardAlpha"/>
<feOffset dy="0.866071"/>
<feGaussianBlur stdDeviation="1.29911"/>
<feColorMatrix type="matrix" values="0 0 0 0 0 0 0 0 0 0 0 0 0 0 0 0 0 0 0.1 0"/>
<feBlend mode="normal" in2="effect1_dropShadow_17660_164401" result="effect2_dropShadow_17660_164401"/>
<feBlend mode="normal" in="SourceGraphic" in2="effect2_dropShadow_17660_164401" result="shape"/>
</filter>
<filter id="filter1_dd_17660_164401" x="366" y="55.3094" width="21.1426" height="21.1426" filterUnits="userSpaceOnUse" color-interpolation-filters="sRGB">
<feFlood flood-opacity="0" result="BackgroundImageFix"/>
<feColorMatrix in="SourceAlpha" type="matrix" values="0 0 0 0 0 0 0 0 0 0 0 0 0 0 0 0 0 0 127 0" result="hardAlpha"/>
<feOffset dy="0.880952"/>
<feGaussianBlur stdDeviation="0.880952"/>
<feColorMatrix type="matrix" values="0 0 0 0 0 0 0 0 0 0 0 0 0 0 0 0 0 0 0.06 0"/>
<feBlend mode="normal" in2="BackgroundImageFix" result="effect1_dropShadow_17660_164401"/>
<feColorMatrix in="SourceAlpha" type="matrix" values="0 0 0 0 0 0 0 0 0 0 0 0 0 0 0 0 0 0 127 0" result="hardAlpha"/>
<feOffset dy="0.880952"/>
<feGaussianBlur stdDeviation="1.32143"/>
<feColorMatrix type="matrix" values="0 0 0 0 0 0 0 0 0 0 0 0 0 0 0 0 0 0 0.1 0"/>
<feBlend mode="normal" in2="effect1_dropShadow_17660_164401" result="effect2_dropShadow_17660_164401"/>
<feBlend mode="normal" in="SourceGraphic" in2="effect2_dropShadow_17660_164401" result="shape"/>
</filter>
<clipPath id="clip0_17660_164401">
<rect width="16.0223" height="8.10334" fill="white" transform="matrix(-0.978642 -0.205574 0.198264 -0.980149 80.8101 88.7119)"/>
</clipPath>
<clipPath id="clip1_17660_164401">
<rect width="16.0223" height="8.10334" fill="white" transform="matrix(-0.978642 -0.205574 0.198264 -0.980149 51.8726 98.4199)"/>
</clipPath>
<clipPath id="clip2_17660_164401">
<rect width="5.72322" height="1.73017" fill="white" transform="matrix(0.965729 0.259554 -0.250554 0.968103 33.6489 84.9995)"/>
</clipPath>
<clipPath id="clip3_17660_164401">
<rect width="3.87581" height="1.16923" fill="white" transform="matrix(0.935489 -0.353355 0.341821 0.939765 42.5903 83.4565)"/>
</clipPath>
<clipPath id="clip4_17660_164401">
<rect width="3.83414" height="1.16194" fill="white" transform="matrix(0.999936 0.0113529 -0.0109324 0.99994 37.4868 80.6846)"/>
</clipPath>
<clipPath id="clip5_17660_164401">
<rect x="171" y="54.5" width="21" height="21" rx="10.5" fill="white"/>
</clipPath>
<clipPath id="clip6_17660_164401">
<rect width="3.56055" height="1.06558" fill="white" transform="matrix(0.936709 -0.350109 0.34501 0.938599 325.764 81.8994)"/>
</clipPath>
<clipPath id="clip7_17660_164401">
<rect width="3.89158" height="1.16713" fill="white" transform="matrix(0.957497 0.288442 -0.288614 0.957446 318.284 85.8022)"/>
</clipPath>
<clipPath id="clip8_17660_164401">
<rect width="5.8052" height="1.73897" fill="white" transform="matrix(0.964154 -0.265343 0.269978 0.962866 324.027 89.4878)"/>
</clipPath>
<clipPath id="clip9_17660_164401">
<rect x="366" y="54.5" width="21" height="21" rx="10.5" fill="white"/>
</clipPath>
</defs>
</svg>
