<svg width="412" height="155" viewBox="0 0 412 155" fill="none" xmlns="http://www.w3.org/2000/svg">
<path d="M178.807 14.6392V14.3977C178.812 13.5691 178.885 12.9086 179.027 12.4162C179.174 11.9238 179.387 11.526 179.666 11.223C179.946 10.92 180.282 10.6454 180.675 10.3991C180.968 10.2098 181.231 10.0133 181.463 9.80966C181.695 9.60606 181.88 9.38116 182.017 9.13494C182.154 8.884 182.223 8.60464 182.223 8.29688C182.223 7.97017 182.145 7.68371 181.989 7.4375C181.832 7.19129 181.622 7.00189 181.357 6.86932C181.096 6.73674 180.807 6.67045 180.49 6.67045C180.182 6.67045 179.891 6.73911 179.616 6.87642C179.342 7.009 179.117 7.20786 178.942 7.47301C178.767 7.73343 178.672 8.05777 178.658 8.44602H175.76C175.784 7.49905 176.011 6.7178 176.442 6.10227C176.873 5.48201 177.443 5.02036 178.153 4.71733C178.864 4.40956 179.647 4.25568 180.504 4.25568C181.446 4.25568 182.28 4.41193 183.004 4.72443C183.729 5.0322 184.297 5.47964 184.709 6.06676C185.121 6.65388 185.327 7.36174 185.327 8.19034C185.327 8.74432 185.234 9.23674 185.05 9.66761C184.87 10.0937 184.616 10.4725 184.29 10.804C183.963 11.1307 183.577 11.4266 183.132 11.6918C182.758 11.9143 182.45 12.1463 182.209 12.3878C181.972 12.6293 181.795 12.9086 181.676 13.2259C181.563 13.5431 181.503 13.9337 181.499 14.3977V14.6392H178.807ZM180.213 19.1847C179.74 19.1847 179.335 19.0189 178.999 18.6875C178.667 18.3513 178.504 17.9489 178.509 17.4801C178.504 17.0161 178.667 16.6184 178.999 16.2869C179.335 15.9555 179.74 15.7898 180.213 15.7898C180.663 15.7898 181.058 15.9555 181.399 16.2869C181.74 16.6184 181.913 17.0161 181.918 17.4801C181.913 17.7926 181.83 18.0791 181.669 18.3395C181.513 18.5952 181.307 18.8011 181.051 18.9574C180.795 19.1089 180.516 19.1847 180.213 19.1847Z" fill="#51A1A6"/>
<rect y="11" width="171" height="8" rx="2" fill="#51A1A6"/>
<rect x="18" y="34.5" width="180" height="118" rx="4" fill="white"/>
<g clip-path="url(#clip0_17660_165297)">
<path d="M134.141 77.5663C138.191 78.1499 142.31 77.1416 145.593 75.5764C148.875 74.0113 151.105 70.8773 149.908 67.763C149.343 66.3215 148.132 65.0241 146.67 63.9785C144.152 62.1788 140.639 61.0568 137.582 61.6187C134.331 62.2186 132.172 64.5413 128.924 65.1506C127.136 65.4874 125.176 65.2666 123.285 65.1537C120.573 64.9918 117.783 65.0635 115.474 65.9594C113.165 66.8552 111.437 68.7329 111.75 70.837C112.084 73.1001 114.659 75.0531 117.45 75.9358C120.24 76.8184 123.225 76.8632 126.118 76.8692C129.01 76.8752 131.888 77.2346 134.128 77.5593" fill="#A7A5A6"/>
</g>
<ellipse cx="62.0944" cy="78.9037" rx="34.0944" ry="34.4038" fill="#F7F7F7"/>
<path d="M110.64 56.1099L159.851 142.119H61.4292L110.64 56.1099Z" fill="#D3D2D2"/>
<path d="M151.75 79.6123L187.473 142.049H116.026L151.75 79.6123Z" fill="#E9E9E9"/>
<ellipse cx="156.52" cy="118.51" rx="4.77041" ry="11.9972" fill="white"/>
<line x1="156.448" y1="117.917" x2="156.448" y2="142.06" stroke="#4E4C4D" stroke-width="0.883084"/>
<line y1="-0.441542" x2="3.81079" y2="-0.441542" transform="matrix(-0.577762 0.816206 -0.811239 -0.584714 158.208 118.954)" stroke="#4E4C4D" stroke-width="0.883084"/>
<line y1="-0.441542" x2="3.86006" y2="-0.441542" transform="matrix(-0.684465 -0.729046 0.722843 -0.691012 156.74 125.175)" stroke="#4E4C4D" stroke-width="0.883084"/>
<ellipse cx="139.122" cy="128.315" rx="4.77041" ry="7.92844" fill="white"/>
<line x1="139.003" y1="124.917" x2="139.003" y2="142.19" stroke="#4E4C4D" stroke-width="0.883084"/>
<line y1="-0.441542" x2="3.81079" y2="-0.441542" transform="matrix(-0.577762 0.816206 -0.811239 -0.584714 140.811 126.032)" stroke="#4E4C4D" stroke-width="0.883084"/>
<line y1="-0.441542" x2="3.86006" y2="-0.441542" transform="matrix(-0.684465 -0.729046 0.722843 -0.691012 139.343 132.253)" stroke="#4E4C4D" stroke-width="0.883084"/>
<path fillRule="evenodd" clipRule="evenodd" d="M100.398 74.1354L110.711 56.1099L121.025 74.1353C118.483 76.9768 114.804 78.7626 110.711 78.7626C106.619 78.7626 102.94 76.9768 100.398 74.1354Z" fill="#E9E9E9"/>
<path fillRule="evenodd" clipRule="evenodd" d="M141.367 97.6378L151.681 79.6123L161.994 97.6378C159.452 100.479 155.773 102.265 151.681 102.265C147.588 102.265 143.909 100.479 141.367 97.6378Z" fill="#D3D2D2"/>
<g clip-path="url(#clip1_17660_165297)">
<path d="M65.9526 100.219C70.0021 100.802 74.1219 99.7939 77.4041 98.2288C80.6864 96.6636 82.9168 93.5297 81.7193 90.4153C81.1542 88.9739 79.9437 87.6764 78.4812 86.6309C75.9637 84.8311 72.451 83.7092 69.3937 84.2711C66.1425 84.8709 63.9833 87.1936 60.7359 87.8029C58.948 88.1397 56.9875 87.9189 55.0967 87.8061C52.385 87.6442 49.594 87.7159 47.2851 88.6117C44.9762 89.5075 43.2489 91.3853 43.5611 93.4894C43.8953 95.7524 46.4704 97.7054 49.2612 98.5881C52.052 99.4708 55.0369 99.5156 57.9294 99.5216C60.822 99.5276 63.6996 99.887 65.9397 100.212" fill="#A7A5A6"/>
</g>
<path d="M69.2499 79.6123L104.973 142.049H33.5264L69.2499 79.6123Z" fill="#E9E9E9"/>
<ellipse cx="61.1127" cy="118.51" rx="4.77041" ry="11.9972" fill="white"/>
<line x1="61.0407" y1="117.917" x2="61.0407" y2="142.06" stroke="#4E4C4D" stroke-width="0.883084"/>
<line y1="-0.441542" x2="3.81079" y2="-0.441542" transform="matrix(-0.577762 0.816206 -0.811239 -0.584714 62.8008 118.954)" stroke="#4E4C4D" stroke-width="0.883084"/>
<line y1="-0.441542" x2="3.86006" y2="-0.441542" transform="matrix(-0.684465 -0.729046 0.722843 -0.691012 61.3325 125.175)" stroke="#4E4C4D" stroke-width="0.883084"/>
<path fillRule="evenodd" clipRule="evenodd" d="M58.8672 97.6378L69.1807 79.6123L79.4941 97.6378C76.952 100.479 73.273 102.265 69.1806 102.265C65.0883 102.265 61.4093 100.479 58.8672 97.6378Z" fill="#D3D2D2"/>
<g clip-path="url(#clip2_17660_165297)">
<path d="M42.714 76.8289C43.0474 76.652 43.3585 76.4565 43.6928 76.3149C45.5305 75.5364 47.7508 76.4866 48.5018 78.3539C48.8119 79.1071 48.8745 79.9408 48.6804 80.7326C48.6728 80.7618 48.6648 80.7921 48.6572 80.8213C48.632 80.9178 48.59 80.999 48.4794 80.9995C48.3688 81 48.3277 80.9158 48.2912 80.8137C48.1723 80.4451 48.0847 80.0582 47.9113 79.7171C46.9706 77.8655 44.6568 77.1644 42.8522 78.1669C42.6624 78.2724 42.4828 78.3966 42.2918 78.5165C42.2021 78.3455 42.1211 78.1698 42.0215 78.0051C40.9477 76.2231 38.7656 75.6462 36.9641 76.668C36.5879 76.884 36.2529 77.1661 35.9751 77.501C35.9028 77.5868 35.8286 77.6703 35.7063 77.602C35.584 77.5338 35.6133 77.4238 35.642 77.3168C36.1288 75.4808 37.8458 74.2945 39.7141 74.5363C41.051 74.7099 42.0179 75.4347 42.6222 76.6509C42.6469 76.7015 42.6701 76.7528 42.6947 76.8034C42.708 76.8177 42.715 76.8298 42.714 76.8289Z" fill="#4E4C4D"/>
</g>
<g clip-path="url(#clip3_17660_165297)">
<path d="M62.2718 69.4144C62.3881 69.1856 62.4849 68.9552 62.6153 68.7456C63.332 67.5933 64.9271 67.2474 66.0627 67.9859C66.5248 68.2809 66.8809 68.7177 67.0788 69.232C67.0858 69.2512 67.0931 69.2711 67.1002 69.2902C67.1234 69.3535 67.1314 69.415 67.0704 69.4587C67.0094 69.5024 66.9542 69.4719 66.8947 69.4297C66.6868 69.2725 66.4891 69.0927 66.2616 68.9721C65.0271 68.3168 63.4763 68.8373 62.8642 70.1006C62.7998 70.2335 62.7484 70.3727 62.6889 70.5141C62.5733 70.4547 62.4607 70.3892 62.3421 70.3372C61.0608 69.7727 59.6308 70.3102 59.0279 71.583C58.903 71.8502 58.8264 72.1378 58.8017 72.4323C58.7948 72.5082 58.7859 72.5835 58.692 72.5937C58.598 72.604 58.5718 72.5316 58.5464 72.4611C58.1078 71.254 58.6005 69.9233 59.7276 69.3236C60.5344 68.8947 61.349 68.9162 62.1524 69.352C62.1855 69.3702 62.2182 69.3896 62.2513 69.4078C62.2642 69.4106 62.2727 69.4145 62.2718 69.4144Z" fill="#4E4C4D"/>
</g>
<g clip-path="url(#clip4_17660_165297)">
<path d="M50.133 64.643C50.3212 64.4728 50.4918 64.2942 50.6863 64.1468C51.7552 63.3367 53.3536 63.5877 54.1453 64.6781C54.4693 65.1168 54.6454 65.6487 54.6477 66.1958C54.6474 66.2161 54.6472 66.2372 54.647 66.2574C54.6462 66.3243 54.6321 66.3841 54.5602 66.4027C54.4884 66.4213 54.4479 66.3733 54.4077 66.313C54.2705 66.0929 54.1507 65.8556 53.9825 65.6625C53.0701 64.6136 51.4512 64.54 50.4401 65.4904C50.3338 65.5905 50.2372 65.7009 50.1324 65.8105C50.0463 65.714 49.9651 65.6132 49.8736 65.5225C48.8858 64.5409 47.3728 64.5264 46.3669 65.4888C46.1572 65.6915 45.9852 65.9304 45.8588 66.1941C45.8257 66.2619 45.791 66.3285 45.7004 66.3043C45.6097 66.2801 45.611 66.2037 45.6122 66.1294C45.6308 64.8547 46.555 63.7992 47.8095 63.6476C48.7073 63.5396 49.4539 63.8512 50.0445 64.5424C50.0687 64.5712 50.0921 64.6008 50.1164 64.6295C50.1273 64.6367 50.1338 64.6434 50.133 64.643Z" fill="#4E4C4D"/>
</g>
<g clip-path="url(#clip5_17660_165297)">
<rect x="173" y="38.5" width="21" height="21" rx="10.5" fill="#222222"/>
<g filter="url(#filter0_dd_17660_165297)">
<rect x="175.643" y="41.0713" width="15.8571" height="15.8571" rx="7.92857" fill="white"/>
<path fillRule="evenodd" clipRule="evenodd" d="M180.052 45.4799C180.293 45.2391 180.683 45.2391 180.924 45.4799L183.571 48.1272L186.218 45.4799C186.459 45.2391 186.85 45.2391 187.09 45.4799C187.331 45.7208 187.331 46.1112 187.09 46.352L184.443 48.9993L187.09 51.6466C187.331 51.8874 187.331 52.2779 187.09 52.5187C186.85 52.7595 186.459 52.7595 186.218 52.5187L183.571 49.8714L180.924 52.5187C180.683 52.7595 180.293 52.7595 180.052 52.5187C179.811 52.2779 179.811 51.8874 180.052 51.6466L182.699 48.9993L180.052 46.352C179.811 46.1112 179.811 45.7208 180.052 45.4799Z" fill="#222222" stroke="#222222" stroke-width="0.440476" stroke-linecap="round"/>
</g>
</g>
<rect x="214" y="34.5" width="180" height="118" rx="4" fill="white"/>
<ellipse cx="258.094" cy="78.9037" rx="34.0944" ry="34.4038" fill="#F7F7F7"/>
<path d="M304.756 53.5C272.389 53.5 278.207 88.3964 250 126.465L362 127.5C334.622 102.098 336.281 53.5 304.756 53.5Z" fill="#D3D2D2"/>
<g clip-path="url(#clip6_17660_165297)">
<path d="M262.139 65.8135C262.243 65.6055 262.33 65.396 262.447 65.2055C263.092 64.1579 264.526 63.8434 265.547 64.5148C265.962 64.783 266.282 65.1801 266.46 65.6477C266.466 65.6651 266.473 65.6832 266.479 65.7006C266.5 65.7581 266.507 65.814 266.453 65.8537C266.398 65.8934 266.348 65.8657 266.295 65.8274C266.108 65.6844 265.93 65.521 265.725 65.4113C264.616 64.8156 263.221 65.2888 262.671 66.4373C262.613 66.5581 262.567 66.6847 262.514 66.8132C262.41 66.7592 262.308 66.6997 262.202 66.6524C261.05 66.1392 259.764 66.6279 259.222 67.7849C259.11 68.0279 259.041 68.2894 259.019 68.557C259.013 68.626 259.005 68.6945 258.92 68.7038C258.836 68.7131 258.812 68.6473 258.79 68.5832C258.395 67.4858 258.838 66.2761 259.851 65.7309C260.577 65.341 261.309 65.3606 262.031 65.7567C262.061 65.7733 262.09 65.7909 262.12 65.8075C262.132 65.81 262.139 65.8136 262.139 65.8135Z" fill="#4E4C4D"/>
</g>
<g clip-path="url(#clip7_17660_165297)">
<path d="M244.767 77.7596C244.993 77.648 245.205 77.5235 245.431 77.4357C246.672 76.9529 248.126 77.6403 248.58 78.9118C248.768 79.4248 248.789 79.9865 248.641 80.5144C248.635 80.5338 248.629 80.5541 248.623 80.5735C248.604 80.6378 248.574 80.6914 248.5 80.6893C248.427 80.6872 248.402 80.6298 248.38 80.5604C248.31 80.31 248.261 80.048 248.154 79.815C247.573 78.5499 246.051 78.0278 244.826 78.6619C244.697 78.7286 244.574 78.8081 244.444 78.8845C244.389 78.7676 244.339 78.6477 244.277 78.5348C243.606 77.3136 242.168 76.8779 240.944 77.525C240.689 77.6619 240.459 77.8441 240.266 78.0631C240.216 78.1192 240.164 78.1736 240.085 78.1251C240.005 78.0765 240.027 78.0033 240.049 77.9319C240.418 76.7087 241.589 75.9492 242.827 76.1528C243.712 76.2989 244.338 76.8073 244.71 77.638C244.725 77.6725 244.739 77.7075 244.754 77.742C244.763 77.752 244.767 77.7602 244.767 77.7596Z" fill="#4E4C4D"/>
</g>
<g clip-path="url(#clip8_17660_165297)">
<path d="M260.821 83.7338C261.018 83.4118 261.187 83.085 261.402 82.7932C262.587 81.1888 264.964 80.888 266.542 82.1253C267.184 82.6207 267.655 83.3111 267.885 84.0951C267.893 84.1243 267.902 84.1546 267.91 84.1837C267.936 84.28 267.941 84.3716 267.846 84.428C267.752 84.4844 267.675 84.4323 267.592 84.3624C267.306 84.1033 267.037 83.8125 266.718 83.6048C264.986 82.4772 262.653 83.0411 261.609 84.8227C261.499 85.0102 261.408 85.2087 261.304 85.4092C261.142 85.3065 260.984 85.1953 260.817 85.103C259.005 84.1031 256.847 84.7079 255.816 86.5047C255.602 86.8822 255.456 87.296 255.386 87.7267C255.367 87.8377 255.345 87.9475 255.206 87.9503C255.067 87.9531 255.037 87.843 255.008 87.7358C254.506 85.8992 255.383 84.0026 257.104 83.2664C258.336 82.7402 259.527 82.8786 260.653 83.6261C260.7 83.6574 260.745 83.6902 260.792 83.7214C260.81 83.7271 260.822 83.7341 260.821 83.7338Z" fill="#4E4C4D"/>
</g>
<path fillRule="evenodd" clipRule="evenodd" d="M362.488 87.6482C359.232 89.2183 355.145 90.2298 351.128 89.6444L351.115 89.6373C349.442 89.392 347.409 89.1269 345.282 89.0084C342.507 89.9867 339.357 90.4898 336.249 90.0368L336.236 90.0298C334.014 89.7041 331.159 89.3435 328.29 89.3375C325.42 89.3315 322.459 89.2866 319.691 88.4011C316.922 87.5156 314.368 85.5564 314.036 83.2862C313.726 81.1754 315.44 79.2917 317.73 78.393C320.021 77.4943 322.79 77.4224 325.48 77.5848C325.778 77.6028 326.078 77.6236 326.379 77.6443C327.969 77.7543 329.582 77.8658 331.074 77.5817C332.68 77.2768 334.019 76.5444 335.357 75.8121C336.701 75.0761 338.046 74.3402 339.662 74.0386C342.639 73.4853 346.052 74.5596 348.538 76.3069C349.117 76.032 349.677 75.7258 350.236 75.4196C351.581 74.6836 352.925 73.9478 354.542 73.6462C357.575 73.0825 361.059 74.208 363.557 76.0134C365.008 77.0623 366.208 78.3639 366.769 79.8099C367.957 82.9341 365.744 86.0781 362.488 87.6482Z" fill="#A7A5A6"/>
<path d="M323.534 86.8004C323.973 85.0665 327.027 85.0665 327.466 86.8004L331.958 104.545C332.214 105.554 331.263 106.5 329.992 106.5H321.008C319.737 106.5 318.786 105.554 319.042 104.545L323.534 86.8004Z" fill="white"/>
<line x1="325.442" y1="92.5" x2="325.442" y2="108.5" stroke="#4E4C4D" stroke-width="0.883084"/>
<line x1="327.457" y1="94.2049" x2="325.38" y2="97.7244" stroke="#4E4C4D" stroke-width="0.883084"/>
<line y1="-0.441542" x2="3.85217" y2="-0.441542" transform="matrix(-0.680382 -0.732857 0.718966 -0.695045 325.621 100.221)" stroke="#4E4C4D" stroke-width="0.883084"/>
<path d="M266.9 93.5C241.92 93.5 239.367 119.49 224 142.5H313C298.273 122.513 291.231 93.5 266.9 93.5Z" fill="#E0E0E0"/>
<path d="M334.274 107.5C307.33 107.5 304.576 126.064 288 142.5H384C368.115 128.223 360.518 107.5 334.274 107.5Z" fill="#E9E9E9"/>
<path d="M255.534 120.8C255.973 119.067 259.027 119.067 259.466 120.8L263.958 138.545C264.214 139.554 263.263 140.5 261.992 140.5H253.008C251.737 140.5 250.786 139.554 251.042 138.545L255.534 120.8Z" fill="white"/>
<line x1="257.442" y1="126.5" x2="257.442" y2="142.5" stroke="#4E4C4D" stroke-width="0.883084"/>
<line x1="259.457" y1="128.205" x2="257.38" y2="131.724" stroke="#4E4C4D" stroke-width="0.883084"/>
<line y1="-0.441542" x2="3.85217" y2="-0.441542" transform="matrix(-0.680382 -0.732857 0.718966 -0.695045 257.621 134.221)" stroke="#4E4C4D" stroke-width="0.883084"/>
<g clip-path="url(#clip9_17660_165297)">
<rect x="369" y="38.5" width="21" height="21" rx="10.5" fill="#222222"/>
<g filter="url(#filter1_dd_17660_165297)">
<rect x="371.706" y="41.2056" width="15.5893" height="15.5893" rx="7.79464" fill="white"/>
<path fillRule="evenodd" clipRule="evenodd" d="M383.566 46.1463C383.803 46.3831 383.803 46.7669 383.566 47.0037L378.716 51.8537C378.479 52.0904 378.095 52.0904 377.858 51.8537L375.433 49.4287C375.197 49.1919 375.197 48.8081 375.433 48.5713C375.67 48.3346 376.054 48.3346 376.291 48.5713L378.287 50.5676L382.708 46.1463C382.945 45.9096 383.329 45.9096 383.566 46.1463Z" fill="#222222" stroke="#222222" stroke-width="0.433036" stroke-linecap="round" stroke-linejoin="round"/>
</g>
</g>
<defs>
<filter id="filter0_dd_17660_165297" x="173" y="39.3094" width="21.1426" height="21.1426" filterUnits="userSpaceOnUse" color-interpolation-filters="sRGB">
<feFlood flood-opacity="0" result="BackgroundImageFix"/>
<feColorMatrix in="SourceAlpha" type="matrix" values="0 0 0 0 0 0 0 0 0 0 0 0 0 0 0 0 0 0 127 0" result="hardAlpha"/>
<feOffset dy="0.880952"/>
<feGaussianBlur stdDeviation="0.880952"/>
<feColorMatrix type="matrix" values="0 0 0 0 0 0 0 0 0 0 0 0 0 0 0 0 0 0 0.06 0"/>
<feBlend mode="normal" in2="BackgroundImageFix" result="effect1_dropShadow_17660_165297"/>
<feColorMatrix in="SourceAlpha" type="matrix" values="0 0 0 0 0 0 0 0 0 0 0 0 0 0 0 0 0 0 127 0" result="hardAlpha"/>
<feOffset dy="0.880952"/>
<feGaussianBlur stdDeviation="1.32143"/>
<feColorMatrix type="matrix" values="0 0 0 0 0 0 0 0 0 0 0 0 0 0 0 0 0 0 0.1 0"/>
<feBlend mode="normal" in2="effect1_dropShadow_17660_165297" result="effect2_dropShadow_17660_165297"/>
<feBlend mode="normal" in="SourceGraphic" in2="effect2_dropShadow_17660_165297" result="shape"/>
</filter>
<filter id="filter1_dd_17660_165297" x="369.107" y="39.4734" width="20.7858" height="20.7858" filterUnits="userSpaceOnUse" color-interpolation-filters="sRGB">
<feFlood flood-opacity="0" result="BackgroundImageFix"/>
<feColorMatrix in="SourceAlpha" type="matrix" values="0 0 0 0 0 0 0 0 0 0 0 0 0 0 0 0 0 0 127 0" result="hardAlpha"/>
<feOffset dy="0.866071"/>
<feGaussianBlur stdDeviation="0.866071"/>
<feColorMatrix type="matrix" values="0 0 0 0 0 0 0 0 0 0 0 0 0 0 0 0 0 0 0.06 0"/>
<feBlend mode="normal" in2="BackgroundImageFix" result="effect1_dropShadow_17660_165297"/>
<feColorMatrix in="SourceAlpha" type="matrix" values="0 0 0 0 0 0 0 0 0 0 0 0 0 0 0 0 0 0 127 0" result="hardAlpha"/>
<feOffset dy="0.866071"/>
<feGaussianBlur stdDeviation="1.29911"/>
<feColorMatrix type="matrix" values="0 0 0 0 0 0 0 0 0 0 0 0 0 0 0 0 0 0 0.1 0"/>
<feBlend mode="normal" in2="effect1_dropShadow_17660_165297" result="effect2_dropShadow_17660_165297"/>
<feBlend mode="normal" in="SourceGraphic" in2="effect2_dropShadow_17660_165297" result="shape"/>
</filter>
<clipPath id="clip0_17660_165297">
<rect width="37.7395" height="18.9152" fill="white" transform="matrix(-0.979045 -0.203645 0.200146 -0.979766 147.729 82.3276)"/>
</clipPath>
<clipPath id="clip1_17660_165297">
<rect width="37.7395" height="18.9152" fill="white" transform="matrix(-0.979045 -0.203645 0.200146 -0.979766 79.5405 104.979)"/>
</clipPath>
<clipPath id="clip2_17660_165297">
<rect width="13.4774" height="4.03959" fill="white" transform="matrix(0.966363 0.257181 -0.252874 0.967499 36.5981 73.666)"/>
</clipPath>
<clipPath id="clip3_17660_165297">
<rect width="9.12188" height="2.73136" fill="white" transform="matrix(0.93663 -0.350321 0.344801 0.938676 57.668 70.0654)"/>
</clipPath>
<clipPath id="clip4_17660_165297">
<rect width="9.03479" height="2.71119" fill="white" transform="matrix(0.999937 0.0112417 -0.0110405 0.999939 45.6421 63.5972)"/>
</clipPath>
<clipPath id="clip5_17660_165297">
<rect x="173" y="38.5" width="21" height="21" rx="10.5" fill="white"/>
</clipPath>
<clipPath id="clip6_17660_165297">
<rect width="8.21179" height="2.47982" fill="white" transform="matrix(0.935331 -0.353774 0.341411 0.939914 258 66.4053)"/>
</clipPath>
<clipPath id="clip7_17660_165297">
<rect width="8.97101" height="2.71729" fill="white" transform="matrix(0.956541 0.291599 -0.285483 0.958384 240.775 75.5)"/>
</clipPath>
<clipPath id="clip8_17660_165297">
<rect width="13.3803" height="4.04915" fill="white" transform="matrix(0.963339 -0.268289 0.267017 0.963692 254 84.0898)"/>
</clipPath>
<clipPath id="clip9_17660_165297">
<rect x="369" y="38.5" width="21" height="21" rx="10.5" fill="white"/>
</clipPath>
</defs>
</svg>
