<svg width="412" height="155" viewBox="0 0 412 155" fill="none" xmlns="http://www.w3.org/2000/svg">
<g clip-path="url(#clip0_17652_145464)">
<path d="M135.641 64.5663C139.691 65.1499 143.81 64.1416 147.093 62.5764C150.375 61.0113 152.605 57.8773 151.408 54.763C150.843 53.3215 149.632 52.0241 148.17 50.9785C145.652 49.1788 142.139 48.0568 139.082 48.6187C135.831 49.2186 133.672 51.5413 130.424 52.1506C128.636 52.4874 126.676 52.2666 124.785 52.1537C122.073 51.9918 119.283 52.0635 116.974 52.9594C114.665 53.8552 112.937 55.7329 113.25 57.837C113.584 60.1001 116.159 62.0531 118.95 62.9358C121.74 63.8184 124.725 63.8632 127.618 63.8692C130.51 63.8752 133.388 64.2346 135.628 64.5593" fill="#A7A5A6"/>
</g>
<ellipse cx="63.5944" cy="65.9037" rx="34.0944" ry="34.4038" fill="#F7F7F7"/>
<path d="M112.14 43.1099L161.351 129.119H62.9292L112.14 43.1099Z" fill="#D3D2D2"/>
<path d="M153.25 66.6123L188.973 129.049H117.526L153.25 66.6123Z" fill="#E9E9E9"/>
<ellipse cx="158.02" cy="105.51" rx="4.77041" ry="11.9972" fill="white"/>
<line x1="157.948" y1="104.917" x2="157.948" y2="129.06" stroke="#4E4C4D" stroke-width="0.883084"/>
<line y1="-0.441542" x2="3.81079" y2="-0.441542" transform="matrix(-0.577762 0.816206 -0.811239 -0.584714 159.708 105.954)" stroke="#4E4C4D" stroke-width="0.883084"/>
<line y1="-0.441542" x2="3.86006" y2="-0.441542" transform="matrix(-0.684465 -0.729046 0.722843 -0.691012 158.24 112.175)" stroke="#4E4C4D" stroke-width="0.883084"/>
<ellipse cx="140.622" cy="115.315" rx="4.77041" ry="7.92844" fill="white"/>
<line x1="140.503" y1="111.917" x2="140.503" y2="129.19" stroke="#4E4C4D" stroke-width="0.883084"/>
<line y1="-0.441542" x2="3.81079" y2="-0.441542" transform="matrix(-0.577762 0.816206 -0.811239 -0.584714 142.311 113.032)" stroke="#4E4C4D" stroke-width="0.883084"/>
<line y1="-0.441542" x2="3.86006" y2="-0.441542" transform="matrix(-0.684465 -0.729046 0.722843 -0.691012 140.843 119.253)" stroke="#4E4C4D" stroke-width="0.883084"/>
<path fillRule="evenodd" clipRule="evenodd" d="M101.898 61.1354L112.211 43.1099L122.525 61.1353C119.983 63.9768 116.304 65.7626 112.211 65.7626C108.119 65.7626 104.44 63.9768 101.898 61.1354Z" fill="#E9E9E9"/>
<path fillRule="evenodd" clipRule="evenodd" d="M142.867 84.6378L153.181 66.6123L163.494 84.6378C160.952 87.4793 157.273 89.2651 153.181 89.2651C149.088 89.2651 145.409 87.4793 142.867 84.6378Z" fill="#D3D2D2"/>
<g clip-path="url(#clip1_17652_145464)">
<path d="M67.4526 87.2187C71.5021 87.8023 75.6219 86.7939 78.9041 85.2288C82.1864 83.6636 84.4168 80.5297 83.2193 77.4153C82.6542 75.9739 81.4437 74.6764 79.9812 73.6309C77.4637 71.8311 73.951 70.7092 70.8937 71.2711C67.6425 71.8709 65.4833 74.1936 62.2359 74.8029C60.448 75.1397 58.4875 74.9189 56.5967 74.8061C53.885 74.6442 51.094 74.7159 48.7851 75.6117C46.4762 76.5075 44.7489 78.3853 45.0611 80.4894C45.3953 82.7524 47.9704 84.7054 50.7612 85.5881C53.552 86.4708 56.5369 86.5156 59.4294 86.5216C62.322 86.5276 65.1996 86.887 67.4397 87.2116" fill="#A7A5A6"/>
</g>
<path d="M70.7499 66.6123L106.473 129.049H35.0264L70.7499 66.6123Z" fill="#E9E9E9"/>
<ellipse cx="62.6127" cy="105.51" rx="4.77041" ry="11.9972" fill="white"/>
<line x1="62.5407" y1="104.917" x2="62.5407" y2="129.06" stroke="#4E4C4D" stroke-width="0.883084"/>
<line y1="-0.441542" x2="3.81079" y2="-0.441542" transform="matrix(-0.577762 0.816206 -0.811239 -0.584714 64.3008 105.954)" stroke="#4E4C4D" stroke-width="0.883084"/>
<line y1="-0.441542" x2="3.86006" y2="-0.441542" transform="matrix(-0.684465 -0.729046 0.722843 -0.691012 62.8325 112.175)" stroke="#4E4C4D" stroke-width="0.883084"/>
<path fillRule="evenodd" clipRule="evenodd" d="M60.3672 84.6378L70.6807 66.6123L80.9941 84.6378C78.452 87.4793 74.773 89.2651 70.6806 89.2651C66.5883 89.2651 62.9093 87.4793 60.3672 84.6378Z" fill="#D3D2D2"/>
<g clip-path="url(#clip2_17652_145464)">
<path d="M44.214 63.8289C44.5474 63.652 44.8585 63.4565 45.1928 63.3149C47.0305 62.5364 49.2508 63.4866 50.0018 65.3539C50.3119 66.1071 50.3745 66.9408 50.1804 67.7326C50.1728 67.7618 50.1648 67.7921 50.1572 67.8213C50.132 67.9178 50.09 67.999 49.9794 67.9995C49.8688 68 49.8277 67.9158 49.7912 67.8137C49.6723 67.4451 49.5847 67.0582 49.4113 66.7171C48.4706 64.8655 46.1568 64.1644 44.3522 65.1669C44.1624 65.2724 43.9828 65.3966 43.7918 65.5165C43.7021 65.3455 43.6211 65.1698 43.5215 65.0051C42.4477 63.2231 40.2656 62.6462 38.4641 63.668C38.0879 63.884 37.7529 64.1661 37.4751 64.501C37.4028 64.5868 37.3286 64.6703 37.2063 64.602C37.084 64.5338 37.1133 64.4238 37.142 64.3168C37.6288 62.4808 39.3458 61.2945 41.2141 61.5363C42.551 61.7099 43.5179 62.4347 44.1222 63.6509C44.1469 63.7015 44.1701 63.7528 44.1947 63.8034C44.208 63.8177 44.215 63.8298 44.214 63.8289Z" fill="#4E4C4D"/>
</g>
<g clip-path="url(#clip3_17652_145464)">
<path d="M63.7718 56.4144C63.8881 56.1856 63.9849 55.9552 64.1153 55.7456C64.832 54.5933 66.4271 54.2474 67.5627 54.9859C68.0248 55.2809 68.3809 55.7177 68.5788 56.232C68.5858 56.2512 68.5931 56.2711 68.6002 56.2902C68.6234 56.3535 68.6314 56.415 68.5704 56.4587C68.5094 56.5024 68.4542 56.4719 68.3947 56.4297C68.1868 56.2725 67.9891 56.0927 67.7616 55.9721C66.5271 55.3168 64.9763 55.8373 64.3642 57.1006C64.2998 57.2335 64.2484 57.3727 64.1889 57.5141C64.0733 57.4547 63.9607 57.3892 63.8421 57.3372C62.5608 56.7727 61.1308 57.3102 60.5279 58.583C60.403 58.8502 60.3264 59.1378 60.3017 59.4323C60.2948 59.5082 60.2859 59.5835 60.192 59.5937C60.098 59.604 60.0718 59.5316 60.0464 59.4611C59.6078 58.254 60.1005 56.9233 61.2276 56.3236C62.0344 55.8947 62.849 55.9162 63.6524 56.352C63.6855 56.3702 63.7182 56.3896 63.7513 56.4078C63.7642 56.4106 63.7727 56.4145 63.7718 56.4144Z" fill="#4E4C4D"/>
</g>
<g clip-path="url(#clip4_17652_145464)">
<path d="M51.633 51.643C51.8212 51.4728 51.9918 51.2942 52.1863 51.1468C53.2552 50.3367 54.8536 50.5877 55.6453 51.6781C55.9693 52.1168 56.1454 52.6487 56.1477 53.1958C56.1474 53.2161 56.1472 53.2372 56.147 53.2574C56.1462 53.3243 56.1321 53.3841 56.0602 53.4027C55.9884 53.4213 55.9479 53.3733 55.9077 53.313C55.7705 53.0929 55.6507 52.8556 55.4825 52.6625C54.5701 51.6136 52.9512 51.54 51.9401 52.4904C51.8338 52.5905 51.7372 52.7009 51.6324 52.8105C51.5463 52.714 51.4651 52.6132 51.3736 52.5225C50.3858 51.5409 48.8728 51.5264 47.8669 52.4888C47.6572 52.6915 47.4852 52.9304 47.3588 53.1941C47.3257 53.2619 47.291 53.3285 47.2004 53.3043C47.1097 53.2801 47.111 53.2037 47.1122 53.1294C47.1308 51.8547 48.055 50.7992 49.3095 50.6476C50.2073 50.5396 50.9539 50.8512 51.5445 51.5424C51.5687 51.5712 51.5921 51.6008 51.6164 51.6295C51.6273 51.6367 51.6338 51.6434 51.633 51.643Z" fill="#4E4C4D"/>
</g>
<rect x="221.5" y="96.5" width="161" height="8" rx="2" fill="#D3D2D2"/>
<rect x="221.5" y="120.5" width="48" height="8" rx="2" fill="#D3D2D2"/>
<rect x="273.5" y="120.5" width="94" height="8" rx="2" fill="#51A1A6"/>
<rect x="221.5" y="72.5" width="92" height="8" rx="2" fill="#51A1A6"/>
<path d="M224.111 50.5H221.765L228.55 32.0201H230.86L237.646 50.5H235.3L229.778 34.9437H229.633L224.111 50.5ZM224.977 43.2813H234.434V45.2664H224.977V43.2813Z" fill="#4E4C4D"/>
<path d="M221.115 55.5531H238.296V57.2856H221.115V55.5531Z" fill="#4E4C4D"/>
<path d="M254.23 50.5V32.0201H258.074V38.9681H258.191C258.36 38.5952 258.604 38.2162 258.922 37.8312C259.247 37.4402 259.668 37.1153 260.186 36.8567C260.709 36.592 261.359 36.4596 262.135 36.4596C263.145 36.4596 264.078 36.7243 264.932 37.2537C265.786 37.777 266.469 38.5681 266.98 39.6268C267.492 40.6796 267.747 42 267.747 43.5881C267.747 45.1341 267.498 46.4395 266.998 47.5042C266.505 48.563 265.831 49.3661 264.977 49.9135C264.129 50.4549 263.178 50.7256 262.126 50.7256C261.38 50.7256 260.745 50.6023 260.222 50.3556C259.704 50.109 259.28 49.7992 258.949 49.4262C258.619 49.0472 258.366 48.6652 258.191 48.2802H258.02V50.5H254.23ZM257.993 43.57C257.993 44.3942 258.107 45.113 258.336 45.7266C258.564 46.3402 258.895 46.8185 259.328 47.1613C259.762 47.4982 260.288 47.6667 260.907 47.6667C261.533 47.6667 262.062 47.4952 262.496 47.1523C262.929 46.8034 263.257 46.3222 263.479 45.7086C263.708 45.089 263.822 44.3761 263.822 43.57C263.822 42.77 263.711 42.0661 263.488 41.4586C263.266 40.851 262.938 40.3758 262.505 40.0329C262.072 39.69 261.539 39.5185 260.907 39.5185C260.282 39.5185 259.752 39.684 259.319 40.0148C258.892 40.3457 258.564 40.8149 258.336 41.4225C258.107 42.0301 257.993 42.7459 257.993 43.57Z" fill="#4E4C4D"/>
<path d="M334.511 50.7887C333.356 50.7887 332.336 50.497 331.452 49.9135C330.568 49.324 329.876 48.4938 329.376 47.423C328.877 46.3462 328.627 45.0739 328.627 43.6061C328.627 42.1504 328.877 40.8871 329.376 39.8163C329.876 38.7455 330.571 37.9184 331.461 37.3349C332.351 36.7514 333.38 36.4596 334.547 36.4596C335.449 36.4596 336.162 36.61 336.685 36.9108C337.215 37.2056 337.618 37.5424 337.895 37.9214C338.177 38.2944 338.397 38.6012 338.553 38.8418H338.734V32.0201H340.863V50.5H338.806V48.3705H338.553C338.397 48.6231 338.174 48.942 337.885 49.327C337.597 49.7059 337.185 50.0458 336.649 50.3466C336.114 50.6414 335.401 50.7887 334.511 50.7887ZM334.799 48.8758C335.654 48.8758 336.376 48.6532 336.965 48.2081C337.555 47.7569 338.003 47.1343 338.31 46.3402C338.616 45.5401 338.77 44.6168 338.77 43.57C338.77 42.5354 338.619 41.63 338.319 40.854C338.018 40.072 337.573 39.4644 336.983 39.0313C336.394 38.5921 335.666 38.3726 334.799 38.3726C333.897 38.3726 333.145 38.6042 332.544 39.0674C331.948 39.5246 331.5 40.1472 331.199 40.9352C330.904 41.7172 330.757 42.5955 330.757 43.57C330.757 44.5566 330.907 45.4529 331.208 46.259C331.515 47.0591 331.966 47.6967 332.562 48.172C333.163 48.6412 333.909 48.8758 334.799 48.8758Z" fill="#4E4C4D"/>
<path d="M327.328 42.1804H343.101V43.9129H327.328V42.1804Z" fill="#4E4C4D"/>
<path d="M381.944 33.7975L378.888 32.6141L381.971 31.4308C382.13 31.3782 382.236 31.1941 382.21 31.0363C382.157 30.6944 381.997 30.3789 381.811 30.0896C381.652 29.774 381.439 29.5111 381.173 29.2744C381.04 29.1692 380.854 29.1692 380.721 29.2744L378.143 31.3256L378.675 28.091C378.728 27.907 378.622 27.7492 378.462 27.6966C378.143 27.5651 377.771 27.5125 377.426 27.5388C377.08 27.5125 376.708 27.5651 376.389 27.6966C376.23 27.7492 376.124 27.9333 376.177 28.091L376.708 31.3256L374.13 29.2744C373.997 29.1429 373.811 29.1429 373.678 29.2744C373.413 29.4848 373.2 29.774 373.041 30.0896C372.828 30.3789 372.695 30.6944 372.615 31.0363C372.589 31.2204 372.695 31.3782 372.855 31.4308L375.884 32.6141L372.801 33.7975C372.642 33.8501 372.536 34.0342 372.562 34.192C372.615 34.5338 372.748 34.8494 372.961 35.1386C373.12 35.4542 373.333 35.7172 373.599 35.9539C373.732 36.059 373.918 36.059 374.051 35.9539L376.629 33.9027L376.097 37.1372C376.044 37.3213 376.15 37.4791 376.31 37.558C376.655 37.6632 377.001 37.7158 377.346 37.6895C377.692 37.7158 378.064 37.6632 378.383 37.558C378.542 37.5054 378.648 37.3213 378.595 37.1372L378.064 33.9027L380.642 35.9539C380.775 36.059 380.961 36.059 381.12 35.9539C381.386 35.7435 381.598 35.4805 381.758 35.1649C381.971 34.8757 382.103 34.5601 382.183 34.2182C382.21 34.0079 382.13 33.8501 381.944 33.7975Z" fill="#51A1A6"/>
<path d="M365.58 50.7887C364.245 50.7887 363.093 50.494 362.124 49.9045C361.162 49.3089 360.419 48.4788 359.896 47.414C359.378 46.3432 359.12 45.098 359.12 43.6783C359.12 42.2586 359.378 41.0074 359.896 39.9246C360.419 38.8358 361.147 37.9876 362.079 37.38C363.018 36.7664 364.113 36.4596 365.364 36.4596C366.086 36.4596 366.799 36.5799 367.502 36.8206C368.206 37.0612 368.847 37.4522 369.424 37.9936C370.002 38.529 370.462 39.2388 370.805 40.1231C371.148 41.0074 371.319 42.0962 371.319 43.3896V44.2919H360.636V42.4511H369.154C369.154 41.6691 368.997 40.9713 368.684 40.3577C368.378 39.7441 367.939 39.2599 367.367 38.905C366.802 38.55 366.134 38.3726 365.364 38.3726C364.516 38.3726 363.782 38.5831 363.162 39.0042C362.549 39.4193 362.076 39.9607 361.745 40.6284C361.415 41.2962 361.249 42.012 361.249 42.776V44.0032C361.249 45.0499 361.43 45.9372 361.791 46.6651C362.158 47.3869 362.666 47.9374 363.316 48.3163C363.965 48.6893 364.72 48.8758 365.58 48.8758C366.14 48.8758 366.645 48.7976 367.096 48.6412C367.554 48.4788 367.948 48.2381 368.278 47.9193C368.609 47.5945 368.865 47.1914 369.045 46.7102L371.103 47.2877C370.886 47.9855 370.522 48.5991 370.011 49.1284C369.5 49.6518 368.868 50.0609 368.116 50.3556C367.364 50.6444 366.519 50.7887 365.58 50.7887Z" fill="#51A1A6"/>
<rect x="283.114" y="32.6143" width="29.9836" height="21.8525" rx="1.01639" fill="#DFECED"/>
<path d="M297.199 50.7797C295.851 50.7797 294.747 50.4759 293.887 49.8684C293.027 49.2548 292.428 48.4096 292.091 47.3328C291.754 46.256 291.7 45.0228 291.929 43.6332C292.157 42.2256 292.624 40.9833 293.328 39.9066C294.037 38.8237 294.925 37.9786 295.989 37.371C297.06 36.7634 298.248 36.4596 299.554 36.4596C300.606 36.4596 301.512 36.6551 302.27 37.0461C303.028 37.4311 303.602 37.9725 303.993 38.6703C304.384 39.3682 304.553 40.1833 304.498 41.1157H301.873C301.831 40.466 301.59 39.9066 301.151 39.4373C300.712 38.9681 300.065 38.7335 299.211 38.7335C298.459 38.7335 297.767 38.932 297.135 39.3291C296.504 39.7201 295.971 40.2795 295.538 41.0074C295.105 41.7293 294.81 42.5835 294.654 43.57C294.486 44.5807 294.495 45.4529 294.681 46.1868C294.867 46.9207 295.21 47.4892 295.71 47.8922C296.209 48.2953 296.838 48.4968 297.596 48.4968C298.113 48.4968 298.594 48.4036 299.039 48.2171C299.49 48.0246 299.888 47.7509 300.23 47.396C300.579 47.041 300.85 46.6139 301.042 46.1146H303.677C303.419 47.011 302.986 47.811 302.378 48.5149C301.776 49.2187 301.036 49.7721 300.158 50.1752C299.28 50.5782 298.293 50.7797 297.199 50.7797Z" fill="#4E4C4D"/>
<defs>
<clipPath id="clip0_17652_145464">
<rect width="37.7395" height="18.9152" fill="white" transform="matrix(-0.979045 -0.203645 0.200146 -0.979766 149.229 69.3276)"/>
</clipPath>
<clipPath id="clip1_17652_145464">
<rect width="37.7395" height="18.9152" fill="white" transform="matrix(-0.979045 -0.203645 0.200146 -0.979766 81.0405 91.9795)"/>
</clipPath>
<clipPath id="clip2_17652_145464">
<rect width="13.4774" height="4.03959" fill="white" transform="matrix(0.966363 0.257181 -0.252874 0.967499 38.0981 60.666)"/>
</clipPath>
<clipPath id="clip3_17652_145464">
<rect width="9.12188" height="2.73136" fill="white" transform="matrix(0.93663 -0.350321 0.344801 0.938676 59.168 57.0654)"/>
</clipPath>
<clipPath id="clip4_17652_145464">
<rect width="9.03479" height="2.71119" fill="white" transform="matrix(0.999937 0.0112417 -0.0110405 0.999939 47.1421 50.5972)"/>
</clipPath>
</defs>
</svg>
