<svg width="412" height="155" viewBox="0 0 412 155" fill="none" xmlns="http://www.w3.org/2000/svg">
<path d="M178.807 14.6392V14.3977C178.812 13.5691 178.885 12.9086 179.027 12.4162C179.174 11.9238 179.387 11.526 179.666 11.223C179.946 10.92 180.282 10.6454 180.675 10.3991C180.968 10.2098 181.231 10.0133 181.463 9.80966C181.695 9.60606 181.88 9.38116 182.017 9.13494C182.154 8.884 182.223 8.60464 182.223 8.29688C182.223 7.97017 182.145 7.68371 181.989 7.4375C181.832 7.19129 181.622 7.00189 181.357 6.86932C181.096 6.73674 180.807 6.67045 180.49 6.67045C180.182 6.67045 179.891 6.73911 179.616 6.87642C179.342 7.009 179.117 7.20786 178.942 7.47301C178.767 7.73343 178.672 8.05777 178.658 8.44602H175.76C175.784 7.49905 176.011 6.7178 176.442 6.10227C176.873 5.48201 177.443 5.02036 178.153 4.71733C178.864 4.40956 179.647 4.25568 180.504 4.25568C181.446 4.25568 182.28 4.41193 183.004 4.72443C183.729 5.0322 184.297 5.47964 184.709 6.06676C185.121 6.65388 185.327 7.36174 185.327 8.19034C185.327 8.74432 185.234 9.23674 185.05 9.66761C184.87 10.0937 184.616 10.4725 184.29 10.804C183.963 11.1307 183.577 11.4266 183.132 11.6918C182.758 11.9143 182.45 12.1463 182.209 12.3878C181.972 12.6293 181.795 12.9086 181.676 13.2259C181.563 13.5431 181.503 13.9337 181.499 14.3977V14.6392H178.807ZM180.213 19.1847C179.74 19.1847 179.335 19.0189 178.999 18.6875C178.667 18.3513 178.504 17.9489 178.509 17.4801C178.504 17.0161 178.667 16.6184 178.999 16.2869C179.335 15.9555 179.74 15.7898 180.213 15.7898C180.663 15.7898 181.058 15.9555 181.399 16.2869C181.74 16.6184 181.913 17.0161 181.918 17.4801C181.913 17.7926 181.83 18.0791 181.669 18.3395C181.513 18.5952 181.307 18.8011 181.051 18.9574C180.795 19.1089 180.516 19.1847 180.213 19.1847Z" fill="#51A1A6"/>
<rect y="11" width="171" height="8" rx="2" fill="#51A1A6"/>
<path d="M113 53.5C113 51.2909 114.791 49.5 117 49.5H197C199.209 49.5 201 51.2909 201 53.5V133.5C201 135.709 199.209 137.5 197 137.5H117C114.791 137.5 113 135.709 113 133.5V53.5Z" fill="#F7F7F7"/>
<path d="M211 53.5C211 51.2909 212.791 49.5 215 49.5H295C297.209 49.5 299 51.2909 299 53.5V133.5C299 135.709 297.209 137.5 295 137.5H215C212.791 137.5 211 135.709 211 133.5V53.5Z" fill="#F7F7F7"/>
<path d="M309 53.5C309 51.2909 310.791 49.5 313 49.5H393C395.209 49.5 397 51.2909 397 53.5V133.5C397 135.709 395.209 137.5 393 137.5H313C310.791 137.5 309 135.709 309 133.5V53.5Z" fill="#F7F7F7"/>
<path d="M15 53.5C15 51.2909 16.7909 49.5 19 49.5H99C101.209 49.5 103 51.2909 103 53.5V133.5C103 135.709 101.209 137.5 99 137.5H19C16.7909 137.5 15 135.709 15 133.5V53.5Z" fill="#F7F7F7"/>
<g clip-path="url(#clip0_17660_165098)">
<path d="M71.4168 91.0208C73.3403 91.2947 75.2972 90.8214 76.8563 90.0868C78.4153 89.3521 79.4747 87.8811 78.9059 86.4192C78.6375 85.7426 78.0625 85.1336 77.3678 84.6429C76.172 83.7981 74.5035 83.2714 73.0513 83.5352C71.507 83.8168 70.4814 84.907 68.9388 85.193C68.0896 85.3511 67.1584 85.2474 66.2602 85.1945C64.9721 85.1185 63.6464 85.1521 62.5497 85.5726C61.453 85.9931 60.6325 86.8745 60.7808 87.8621C60.9396 88.9244 62.1627 89.8411 63.4883 90.2554C64.814 90.6698 66.2318 90.6908 67.6058 90.6936C68.9797 90.6964 70.3466 90.8651 71.4107 91.0175" fill="#A7A5A6"/>
</g>
<ellipse cx="37.1948" cy="91.6487" rx="16.1948" ry="16.1487" fill="white"/>
<path d="M60.2541 80.9497L83.6294 121.321H36.8789L60.2541 80.9497Z" fill="#D3D2D2"/>
<path d="M79.7812 91.9814L96.7499 121.288H62.8125L79.7812 91.9814Z" fill="#E9E9E9"/>
<ellipse cx="82.0472" cy="110.239" rx="2.26594" ry="5.63134" fill="white"/>
<line x1="82.013" y1="109.961" x2="82.013" y2="121.293" stroke="#4E4C4D" stroke-width="0.419465"/>
<line y1="-0.209732" x2="1.7959" y2="-0.209732" transform="matrix(-0.582335 0.812949 -0.814516 -0.580141 82.8491 110.448)" stroke="#4E4C4D" stroke-width="0.419465"/>
<line y1="-0.209732" x2="1.82205" y2="-0.209732" transform="matrix(-0.688778 -0.724973 0.726931 -0.68671 82.1514 113.368)" stroke="#4E4C4D" stroke-width="0.419465"/>
<ellipse cx="73.783" cy="114.842" rx="2.26594" ry="3.72151" fill="white"/>
<line x1="73.7263" y1="113.247" x2="73.7263" y2="121.355" stroke="#4E4C4D" stroke-width="0.419465"/>
<line y1="-0.209732" x2="1.7959" y2="-0.209732" transform="matrix(-0.582337 0.812947 -0.814517 -0.580139 74.585 113.771)" stroke="#4E4C4D" stroke-width="0.419465"/>
<line y1="-0.209732" x2="1.82204" y2="-0.209732" transform="matrix(-0.688779 -0.724972 0.726932 -0.686709 73.8877 116.69)" stroke="#4E4C4D" stroke-width="0.419465"/>
<path fillRule="evenodd" clipRule="evenodd" d="M55.3892 89.4107L60.2881 80.9497L65.1869 89.4106C63.9794 90.7444 62.2319 91.5826 60.288 91.5826C58.3442 91.5826 56.5966 90.7444 55.3892 89.4107Z" fill="#E9E9E9"/>
<path fillRule="evenodd" clipRule="evenodd" d="M74.8491 100.442L79.7479 91.981L84.6469 100.442C83.4394 101.776 81.6919 102.614 79.7481 102.614C77.8042 102.614 76.0566 101.776 74.8491 100.442Z" fill="#D3D2D2"/>
<g clip-path="url(#clip1_17660_165098)">
<path d="M39.0276 101.654C40.9511 101.928 42.908 101.454 44.4671 100.72C46.0262 99.9849 47.0856 98.5139 46.5168 97.052C46.2484 96.3754 45.6734 95.7664 44.9787 95.2757C43.7829 94.4309 42.1144 93.9042 40.6622 94.168C39.1178 94.4496 38.0922 95.5398 36.5497 95.8258C35.7004 95.9839 34.7692 95.8803 33.8711 95.8273C32.583 95.7513 31.2573 95.7849 30.1606 96.2054C29.0638 96.6259 28.2433 97.5073 28.3916 98.495C28.5504 99.5572 29.7735 100.474 31.0992 100.888C32.4248 101.303 33.8426 101.324 35.2166 101.326C36.5906 101.329 37.9574 101.498 39.0215 101.65" fill="#A7A5A6"/>
</g>
<path d="M40.5937 91.9814L57.5624 121.288H23.625L40.5937 91.9814Z" fill="#E9E9E9"/>
<ellipse cx="36.7283" cy="110.239" rx="2.26594" ry="5.63134" fill="white"/>
<line x1="36.6941" y1="109.961" x2="36.6941" y2="121.293" stroke="#4E4C4D" stroke-width="0.419465"/>
<line y1="-0.209732" x2="1.79591" y2="-0.209732" transform="matrix(-0.582336 0.812948 -0.814517 -0.58014 37.5303 110.448)" stroke="#4E4C4D" stroke-width="0.419465"/>
<line y1="-0.209732" x2="1.82205" y2="-0.209732" transform="matrix(-0.688777 -0.724973 0.726931 -0.68671 36.833 113.368)" stroke="#4E4C4D" stroke-width="0.419465"/>
<path fillRule="evenodd" clipRule="evenodd" d="M35.6616 100.442L40.5604 91.981L45.4594 100.442C44.2519 101.776 42.5044 102.614 40.5606 102.614C38.6167 102.614 36.8691 101.776 35.6616 100.442Z" fill="#D3D2D2"/>
<g clip-path="url(#clip2_17660_165098)">
<path d="M27.9889 90.6748C28.1473 90.5918 28.2951 90.5 28.4539 90.4335C29.3268 90.0681 30.3814 90.5141 30.7382 91.3906C30.8855 91.7442 30.9152 92.1355 30.823 92.5071C30.8194 92.5208 30.8156 92.5351 30.812 92.5488C30.8 92.5941 30.78 92.6322 30.7275 92.6324C30.675 92.6326 30.6555 92.5931 30.6381 92.5452C30.5817 92.3722 30.5401 92.1906 30.4577 92.0305C30.0109 91.1614 28.9118 90.8323 28.0546 91.3028C27.9644 91.3524 27.8792 91.4107 27.7884 91.4669C27.7458 91.3866 27.7073 91.3042 27.66 91.2269C27.15 90.3905 26.1135 90.1197 25.2578 90.5993C25.0791 90.7007 24.92 90.8331 24.788 90.9902C24.7536 91.0305 24.7184 91.0697 24.6603 91.0377C24.6022 91.0057 24.6162 90.954 24.6297 90.9038C24.861 90.042 25.6766 89.4852 26.564 89.5987C27.199 89.6802 27.6583 90.0204 27.9454 90.5913C27.9571 90.615 27.9681 90.6391 27.9798 90.6628C27.9861 90.6695 27.9894 90.6752 27.9889 90.6748Z" fill="#4E4C4D"/>
</g>
<g clip-path="url(#clip3_17660_165098)">
<path d="M37.2793 87.1947C37.3345 87.0873 37.3805 86.9792 37.4425 86.8808C37.7829 86.3399 38.5406 86.1775 39.08 86.5241C39.2995 86.6626 39.4686 86.8676 39.5626 87.1091C39.566 87.1181 39.5694 87.1274 39.5728 87.1364C39.5838 87.1661 39.5876 87.1949 39.5587 87.2154C39.5297 87.236 39.5035 87.2217 39.4752 87.2019C39.3764 87.1281 39.2825 87.0437 39.1745 86.987C38.5881 86.6795 37.8514 86.9238 37.5607 87.5168C37.5301 87.5792 37.5057 87.6445 37.4774 87.7108C37.4225 87.683 37.3691 87.6522 37.3127 87.6278C36.7041 87.3629 36.0248 87.6152 35.7384 88.2126C35.6791 88.338 35.6427 88.473 35.631 88.6112C35.6278 88.6468 35.6235 88.6822 35.5789 88.687C35.5343 88.6918 35.5218 88.6578 35.5097 88.6248C35.3014 88.0581 35.5355 87.4336 36.0708 87.152C36.4541 86.9508 36.841 86.9608 37.2226 87.1654C37.2383 87.1739 37.2538 87.183 37.2696 87.1916C37.2757 87.1929 37.2797 87.1947 37.2793 87.1947Z" fill="#4E4C4D"/>
</g>
<g clip-path="url(#clip4_17660_165098)">
<path d="M31.513 84.955C31.6024 84.8751 31.6835 84.7913 31.7758 84.7221C32.2836 84.3418 33.0428 84.4596 33.4188 84.9715C33.5728 85.1774 33.6564 85.4271 33.6575 85.6839C33.6574 85.6934 33.6573 85.7033 33.6572 85.7128C33.6568 85.7442 33.6501 85.7722 33.6159 85.781C33.5818 85.7897 33.5626 85.7672 33.5435 85.7389C33.4783 85.6355 33.4214 85.5242 33.3415 85.4335C32.9081 84.9412 32.1392 84.9067 31.6589 85.3528C31.6084 85.3997 31.5625 85.4516 31.5127 85.503C31.4718 85.4577 31.4333 85.4104 31.3898 85.3678C30.9206 84.9071 30.2019 84.9003 29.7241 85.352C29.6245 85.4472 29.5428 85.5593 29.4828 85.6831C29.4671 85.7149 29.4506 85.7461 29.4075 85.7348C29.3645 85.7235 29.3651 85.6876 29.3656 85.6527C29.3745 85.0544 29.8135 84.5589 30.4094 84.4878C30.8358 84.4371 31.1905 84.5833 31.471 84.9078C31.4825 84.9213 31.4936 84.9352 31.5051 84.9487C31.5103 84.952 31.5134 84.9552 31.513 84.955Z" fill="#4E4C4D"/>
</g>
<g filter="url(#filter0_d_17660_165098)">
<rect x="75" y="53.5" width="24" height="24" rx="12" fill="#51A1A6"/>
<path d="M88.755 60.8182V71H86.6023V62.8615H86.5426L84.2109 64.3232V62.4141L86.7315 60.8182H88.755Z" fill="white"/>
<rect x="76" y="54.5" width="22" height="22" rx="11" stroke="white" stroke-width="2"/>
</g>
<g filter="url(#filter1_d_17660_165098)">
<rect x="173" y="53.5" width="24" height="24" rx="12" fill="#51A1A6"/>
<path d="M181.325 71V69.4489L184.95 66.093C185.258 65.7947 185.516 65.5263 185.725 65.2876C185.937 65.049 186.098 64.8153 186.207 64.5866C186.317 64.3546 186.371 64.1044 186.371 63.8359C186.371 63.5376 186.304 63.2808 186.168 63.0653C186.032 62.8466 185.846 62.6792 185.611 62.5632C185.375 62.4439 185.109 62.3842 184.81 62.3842C184.499 62.3842 184.227 62.4472 183.995 62.5732C183.763 62.6991 183.584 62.8797 183.458 63.1151C183.332 63.3504 183.269 63.6304 183.269 63.9553H181.226C181.226 63.2891 181.377 62.7107 181.678 62.2202C181.98 61.7296 182.402 61.3501 182.946 61.0817C183.49 60.8132 184.116 60.679 184.825 60.679C185.554 60.679 186.189 60.8082 186.729 61.0668C187.273 61.322 187.696 61.6766 187.997 62.1307C188.299 62.5848 188.45 63.1051 188.45 63.6918C188.45 64.0762 188.373 64.4557 188.221 64.8303C188.072 65.2048 187.805 65.6207 187.42 66.0781C187.036 66.5322 186.494 67.0774 185.795 67.7138L184.308 69.1705V69.2401H188.584V71H181.325Z" fill="white"/>
<rect x="174" y="54.5" width="22" height="22" rx="11" stroke="white" stroke-width="2"/>
</g>
<g filter="url(#filter2_d_17660_165098)">
<rect x="271" y="53.5" width="24" height="24" rx="12" fill="#51A1A6"/>
<path d="M282.589 71.1392C281.846 71.1392 281.185 71.0116 280.605 70.7564C280.028 70.4979 279.573 70.1432 279.238 69.6925C278.906 69.2384 278.736 68.7147 278.726 68.1214H280.893C280.907 68.37 280.988 68.5888 281.137 68.7777C281.29 68.9633 281.492 69.1075 281.744 69.2102C281.996 69.313 282.279 69.3643 282.594 69.3643C282.922 69.3643 283.212 69.3063 283.464 69.1903C283.716 69.0743 283.913 68.9136 284.055 68.7081C284.198 68.5026 284.269 68.2656 284.269 67.9972C284.269 67.7254 284.193 67.4851 284.04 67.2763C283.891 67.0642 283.676 66.8984 283.394 66.7791C283.116 66.6598 282.784 66.6001 282.4 66.6001H281.45V65.0192H282.4C282.725 65.0192 283.011 64.9628 283.26 64.8501C283.512 64.7375 283.707 64.5817 283.847 64.3828C283.986 64.1806 284.055 63.9453 284.055 63.6768C284.055 63.4216 283.994 63.1979 283.871 63.0057C283.752 62.8101 283.583 62.6577 283.364 62.5483C283.149 62.4389 282.897 62.3842 282.609 62.3842C282.317 62.3842 282.05 62.4373 281.808 62.5433C281.566 62.6461 281.372 62.7936 281.227 62.9858C281.081 63.178 281.003 63.4034 280.993 63.6619H278.93C278.94 63.0753 279.107 62.5582 279.432 62.1108C279.757 61.6634 280.194 61.3137 280.744 61.0618C281.298 60.8066 281.923 60.679 282.619 60.679C283.321 60.679 283.936 60.8066 284.463 61.0618C284.99 61.317 285.399 61.6617 285.691 62.0959C285.986 62.5268 286.132 63.0107 286.129 63.5476C286.132 64.1177 285.955 64.5933 285.597 64.9744C285.242 65.3556 284.78 65.5975 284.21 65.7003V65.7798C284.959 65.8759 285.529 66.1361 285.92 66.5604C286.314 66.9813 286.51 67.5083 286.506 68.1413C286.51 68.7214 286.342 69.2367 286.004 69.6875C285.67 70.1383 285.207 70.4929 284.617 70.7514C284.027 71.0099 283.351 71.1392 282.589 71.1392Z" fill="white"/>
<rect x="272" y="54.5" width="22" height="22" rx="11" stroke="white" stroke-width="2"/>
</g>
<g filter="url(#filter3_d_17660_165098)">
<rect x="369" y="53.5" width="24" height="24" rx="12" fill="#51A1A6"/>
<path d="M376.671 69.2102V67.5149L380.922 60.8182H382.384V63.1648H381.518L378.839 67.4055V67.4851H384.879V69.2102H376.671ZM381.558 71V68.6932L381.598 67.9425V60.8182H383.616V71H381.558Z" fill="white"/>
<rect x="370" y="54.5" width="22" height="22" rx="11" stroke="white" stroke-width="2"/>
</g>
<rect x="119" y="92.7998" width="69.9678" height="4.1" rx="1.025" fill="#D3D2D2"/>
<rect x="119" y="117.4" width="58.5076" height="4.1" rx="1.025" fill="#D3D2D2"/>
<rect x="119" y="105.1" width="28.9522" height="4.1" rx="1.025" fill="#D3D2D2"/>
<rect x="150.366" y="105.1" width="44.6346" height="4.1" rx="1.025" fill="#D3D2D2"/>
<rect x="119" y="80.5" width="36.1903" height="4.1" rx="1.025" fill="#D3D2D2"/>
<mask id="mask0_17660_165098" style="mask-type:alpha" maskUnits="userSpaceOnUse" x="218" y="99" width="74" height="23">
<rect x="218" y="99.5" width="74" height="22" fill="#D9D9D9" fill-opacity="0.8"/>
</mask>
<g mask="url(#mask0_17660_165098)">
<path d="M91 109.594C91 108.975 91.5021 108.472 92.1215 108.472C92.7409 108.472 93.2431 108.975 93.2431 109.594V111.089C93.2431 111.709 92.7409 112.211 92.1215 112.211C91.5021 112.211 91 111.709 91 111.089V109.594Z" fill="#222222"/>
<path d="M95.3956 106.042C95.3956 105.423 95.8977 104.921 96.5171 104.921C97.1365 104.921 97.6386 105.423 97.6386 106.042V114.641C97.6386 115.26 97.1365 115.762 96.5171 115.762C95.8977 115.762 95.3956 115.26 95.3956 114.641V106.042Z" fill="#222222"/>
<path d="M99.7911 103.612C99.7911 102.993 100.293 102.491 100.913 102.491C101.532 102.491 102.034 102.993 102.034 103.612V117.071C102.034 117.69 101.532 118.192 100.913 118.192C100.293 118.192 99.7911 117.69 99.7911 117.071V103.612Z" fill="#222222"/>
<path d="M104.187 100.995C104.187 100.376 104.689 99.8738 105.308 99.8738C105.928 99.8738 106.43 100.376 106.43 100.995V119.688C106.43 120.307 105.928 120.809 105.308 120.809C104.689 120.809 104.187 120.307 104.187 119.688V100.995Z" fill="#222222"/>
<path d="M108.582 103.986C108.582 103.367 109.084 102.865 109.704 102.865C110.323 102.865 110.825 103.367 110.825 103.986V116.697C110.825 117.316 110.323 117.818 109.704 117.818C109.084 117.818 108.582 117.316 108.582 116.697V103.986Z" fill="#222222"/>
<path d="M112.978 109.594C112.978 108.974 113.48 108.472 114.099 108.472C114.719 108.472 115.221 108.974 115.221 109.594V111.089C115.221 111.709 114.719 112.211 114.099 112.211C113.48 112.211 112.978 111.709 112.978 111.089V109.594Z" fill="#222222"/>
<path d="M117.373 105.108C117.373 104.488 117.875 103.986 118.495 103.986C119.114 103.986 119.616 104.488 119.616 105.108V115.575C119.616 116.195 119.114 116.697 118.495 116.697C117.875 116.697 117.373 116.195 117.373 115.575V105.108Z" fill="#222222"/>
<path d="M121.769 106.977C121.769 106.358 122.271 105.855 122.89 105.855C123.51 105.855 124.012 106.358 124.012 106.977V113.706C124.012 114.326 123.51 114.828 122.89 114.828C122.271 114.828 121.769 114.326 121.769 113.706V106.977Z" fill="#222222"/>
<path d="M126.164 108.472C126.164 107.853 126.667 107.351 127.286 107.351C127.905 107.351 128.407 107.853 128.407 108.472V112.211C128.407 112.83 127.905 113.332 127.286 113.332C126.667 113.332 126.164 112.83 126.164 112.211V108.472Z" fill="#222222"/>
<path d="M130.56 106.042C130.56 105.423 131.062 104.921 131.681 104.921C132.301 104.921 132.803 105.423 132.803 106.042V114.641C132.803 115.26 132.301 115.762 131.681 115.762C131.062 115.762 130.56 115.26 130.56 114.641V106.042Z" fill="#222222"/>
<path d="M134.956 103.238C134.956 102.619 135.458 102.117 136.077 102.117C136.696 102.117 137.199 102.619 137.199 103.238V117.445C137.199 118.064 136.696 118.566 136.077 118.566C135.458 118.566 134.956 118.064 134.956 117.445V103.238Z" fill="#222222"/>
<path d="M139.351 100.622C139.351 100.002 139.853 99.5 140.473 99.5C141.092 99.5 141.594 100.002 141.594 100.622V120.062C141.594 120.681 141.092 121.183 140.473 121.183C139.853 121.183 139.351 120.681 139.351 120.062V100.622Z" fill="#222222"/>
<path d="M143.747 106.977C143.747 106.358 144.249 105.855 144.868 105.855C145.488 105.855 145.99 106.358 145.99 106.977V113.706C145.99 114.326 145.488 114.828 144.868 114.828C144.249 114.828 143.747 114.326 143.747 113.706V106.977Z" fill="#222222"/>
<path d="M148.142 106.977C148.142 106.358 148.644 105.855 149.264 105.855C149.883 105.855 150.385 106.358 150.385 106.977V113.706C150.385 114.326 149.883 114.828 149.264 114.828C148.644 114.828 148.142 114.326 148.142 113.706V106.977Z" fill="#222222"/>
<path d="M152.538 108.098C152.538 107.479 153.04 106.977 153.659 106.977C154.279 106.977 154.781 107.479 154.781 108.098V112.585C154.781 113.204 154.279 113.706 153.659 113.706C153.04 113.706 152.538 113.204 152.538 112.585V108.098Z" fill="#222222"/>
<path d="M156.933 109.968C156.933 109.348 157.435 108.846 158.055 108.846C158.674 108.846 159.176 109.348 159.176 109.968V110.715C159.176 111.335 158.674 111.837 158.055 111.837C157.435 111.837 156.933 111.335 156.933 110.715V109.968Z" fill="#222222"/>
<path d="M161.329 110.342C161.329 109.722 161.831 109.22 162.45 109.22C163.07 109.22 163.572 109.722 163.572 110.342C163.572 110.961 163.07 111.463 162.45 111.463C161.831 111.463 161.329 110.961 161.329 110.342Z" fill="#222222"/>
<path d="M165.724 106.603C165.724 105.984 166.226 105.482 166.846 105.482C167.465 105.482 167.967 105.984 167.967 106.603V114.08C167.967 114.699 167.465 115.202 166.846 115.202C166.226 115.202 165.724 114.699 165.724 114.08V106.603Z" fill="#222222"/>
<path d="M170.12 105.108C170.12 104.488 170.622 103.986 171.241 103.986C171.861 103.986 172.363 104.488 172.363 105.108V115.575C172.363 116.195 171.861 116.697 171.241 116.697C170.622 116.697 170.12 116.195 170.12 115.575V105.108Z" fill="#222222"/>
<path d="M174.515 106.977C174.515 106.358 175.018 105.855 175.637 105.855C176.256 105.855 176.759 106.358 176.759 106.977V113.706C176.759 114.326 176.256 114.828 175.637 114.828C175.018 114.828 174.515 114.326 174.515 113.706V106.977Z" fill="#222222"/>
<path d="M178.911 108.098C178.911 107.479 179.413 106.977 180.033 106.977C180.652 106.977 181.154 107.479 181.154 108.098V112.585C181.154 113.204 180.652 113.706 180.033 113.706C179.413 113.706 178.911 113.204 178.911 112.585V108.098Z" fill="#222222"/>
<path d="M183.307 104.734C183.307 104.114 183.809 103.612 184.428 103.612C185.048 103.612 185.55 104.114 185.55 104.734V115.949C185.55 116.569 185.048 117.071 184.428 117.071C183.809 117.071 183.307 116.569 183.307 115.949V104.734Z" fill="#222222"/>
<path d="M187.702 100.622C187.702 100.002 188.204 99.5 188.824 99.5C189.443 99.5 189.945 100.002 189.945 100.622V120.062C189.945 120.681 189.443 121.183 188.824 121.183C188.204 121.183 187.702 120.681 187.702 120.062V100.622Z" fill="#222222"/>
<path d="M192.098 103.612C192.098 102.993 192.6 102.491 193.219 102.491C193.839 102.491 194.341 102.993 194.341 103.612V117.071C194.341 117.69 193.839 118.192 193.219 118.192C192.6 118.192 192.098 117.69 192.098 117.071V103.612Z" fill="#222222"/>
<path d="M196.493 105.482C196.493 104.862 196.995 104.36 197.615 104.36C198.234 104.36 198.736 104.862 198.736 105.482V115.202C198.736 115.821 198.234 116.323 197.615 116.323C196.995 116.323 196.493 115.821 196.493 115.202V105.482Z" fill="#222222"/>
<path d="M200.889 103.612C200.889 102.993 201.391 102.491 202.01 102.491C202.63 102.491 203.132 102.993 203.132 103.612V117.071C203.132 117.69 202.63 118.192 202.01 118.192C201.391 118.192 200.889 117.69 200.889 117.071V103.612Z" fill="#222222"/>
<path d="M205.284 102.117C205.284 101.498 205.786 100.995 206.406 100.995C207.025 100.995 207.527 101.498 207.527 102.117V118.566C207.527 119.186 207.025 119.688 206.406 119.688C205.786 119.688 205.284 119.186 205.284 118.566V102.117Z" fill="#222222"/>
<path d="M209.68 103.986C209.68 103.367 210.182 102.865 210.801 102.865C211.421 102.865 211.923 103.367 211.923 103.986V116.697C211.923 117.316 211.421 117.818 210.801 117.818C210.182 117.818 209.68 117.316 209.68 116.697V103.986Z" fill="#222222"/>
<path d="M214.075 103.238C214.075 102.619 214.578 102.117 215.197 102.117C215.816 102.117 216.319 102.619 216.319 103.238V117.445C216.319 118.064 215.816 118.566 215.197 118.566C214.578 118.566 214.075 118.064 214.075 117.445V103.238Z" fill="#222222"/>
<path d="M218.471 106.042C218.471 105.423 218.973 104.921 219.593 104.921C220.212 104.921 220.714 105.423 220.714 106.042V114.641C220.714 115.26 220.212 115.762 219.593 115.762C218.973 115.762 218.471 115.26 218.471 114.641V106.042Z" fill="#222222"/>
<path d="M222.867 108.472C222.867 107.853 223.369 107.351 223.988 107.351C224.607 107.351 225.11 107.853 225.11 108.472V112.211C225.11 112.83 224.607 113.332 223.988 113.332C223.369 113.332 222.867 112.83 222.867 112.211V108.472Z" fill="#222222"/>
<path d="M227.262 109.968C227.262 109.348 227.764 108.846 228.384 108.846C229.003 108.846 229.505 109.348 229.505 109.968V110.715C229.505 111.335 229.003 111.837 228.384 111.837C227.764 111.837 227.262 111.335 227.262 110.715V109.968Z" fill="#222222"/>
<path d="M231.658 108.098C231.658 107.479 232.16 106.977 232.779 106.977C233.399 106.977 233.901 107.479 233.901 108.098V112.585C233.901 113.204 233.399 113.706 232.779 113.706C232.16 113.706 231.658 113.204 231.658 112.585V108.098Z" fill="#222222"/>
<path d="M236.053 109.968C236.053 109.348 236.555 108.846 237.175 108.846C237.794 108.846 238.296 109.348 238.296 109.968V110.715C238.296 111.335 237.794 111.837 237.175 111.837C236.555 111.837 236.053 111.335 236.053 110.715V109.968Z" fill="#222222"/>
<path d="M240.449 109.968C240.449 109.348 240.951 108.846 241.57 108.846C242.19 108.846 242.692 109.348 242.692 109.968V110.715C242.692 111.335 242.19 111.837 241.57 111.837C240.951 111.837 240.449 111.335 240.449 110.715V109.968Z" fill="#222222"/>
<path d="M244.844 106.603C244.844 105.984 245.346 105.482 245.966 105.482C246.585 105.482 247.087 105.984 247.087 106.603V114.08C247.087 114.699 246.585 115.202 245.966 115.202C245.346 115.202 244.844 114.699 244.844 114.08V106.603Z" fill="#222222"/>
<path d="M249.24 108.472C249.24 107.853 249.742 107.351 250.361 107.351C250.981 107.351 251.483 107.853 251.483 108.472V112.211C251.483 112.83 250.981 113.332 250.361 113.332C249.742 113.332 249.24 112.83 249.24 112.211V108.472Z" fill="#222222"/>
<path d="M253.635 109.968C253.635 109.348 254.138 108.846 254.757 108.846C255.376 108.846 255.879 109.348 255.879 109.968V110.715C255.879 111.335 255.376 111.837 254.757 111.837C254.138 111.837 253.635 111.335 253.635 110.715V109.968Z" fill="#222222"/>
<path d="M258.122 108.098C258.122 107.479 258.624 106.977 259.243 106.977C259.863 106.977 260.365 107.479 260.365 108.098V112.584C260.365 113.204 259.863 113.706 259.243 113.706C258.624 113.706 258.122 113.204 258.122 112.584V108.098Z" fill="#D3D2D2"/>
<path d="M262.517 106.042C262.517 105.423 263.019 104.921 263.639 104.921C264.258 104.921 264.76 105.423 264.76 106.042V114.641C264.76 115.26 264.258 115.762 263.639 115.762C263.019 115.762 262.517 115.26 262.517 114.641V106.042Z" fill="#D3D2D2"/>
<path d="M266.913 103.612C266.913 102.993 267.415 102.491 268.034 102.491C268.654 102.491 269.156 102.993 269.156 103.612V117.071C269.156 117.69 268.654 118.192 268.034 118.192C267.415 118.192 266.913 117.69 266.913 117.071V103.612Z" fill="#D3D2D2"/>
<path d="M271.308 100.995C271.308 100.376 271.81 99.8738 272.43 99.8738C273.049 99.8738 273.551 100.376 273.551 100.995V119.688C273.551 120.307 273.049 120.809 272.43 120.809C271.81 120.809 271.308 120.307 271.308 119.688V100.995Z" fill="#D3D2D2"/>
<path d="M275.704 103.986C275.704 103.367 276.206 102.865 276.825 102.865C277.445 102.865 277.947 103.367 277.947 103.986V116.697C277.947 117.316 277.445 117.818 276.825 117.818C276.206 117.818 275.704 117.316 275.704 116.697V103.986Z" fill="#D3D2D2"/>
<path d="M280.099 109.594C280.099 108.974 280.601 108.472 281.221 108.472C281.84 108.472 282.342 108.974 282.342 109.594V111.089C282.342 111.709 281.84 112.211 281.221 112.211C280.601 112.211 280.099 111.709 280.099 111.089V109.594Z" fill="#D3D2D2"/>
<path d="M284.495 105.108C284.495 104.488 284.997 103.986 285.616 103.986C286.236 103.986 286.738 104.488 286.738 105.108V115.575C286.738 116.195 286.236 116.697 285.616 116.697C284.997 116.697 284.495 116.195 284.495 115.575V105.108Z" fill="#D3D2D2"/>
<path d="M288.89 106.977C288.89 106.358 289.393 105.855 290.012 105.855C290.631 105.855 291.133 106.358 291.133 106.977V113.706C291.133 114.326 290.631 114.828 290.012 114.828C289.393 114.828 288.89 114.326 288.89 113.706V106.977Z" fill="#D3D2D2"/>
<path d="M293.286 108.472C293.286 107.853 293.788 107.351 294.407 107.351C295.027 107.351 295.529 107.853 295.529 108.472V112.211C295.529 112.83 295.027 113.332 294.407 113.332C293.788 113.332 293.286 112.83 293.286 112.211V108.472Z" fill="#D3D2D2"/>
<path d="M297.681 106.042C297.681 105.423 298.184 104.921 298.803 104.921C299.422 104.921 299.925 105.423 299.925 106.042V114.641C299.925 115.26 299.422 115.762 298.803 115.762C298.184 115.762 297.681 115.26 297.681 114.641V106.042Z" fill="#D3D2D2"/>
<path d="M302.077 103.238C302.077 102.619 302.579 102.117 303.199 102.117C303.818 102.117 304.32 102.619 304.32 103.238V117.445C304.32 118.064 303.818 118.566 303.199 118.566C302.579 118.566 302.077 118.064 302.077 117.445V103.238Z" fill="#D3D2D2"/>
<path d="M306.473 100.622C306.473 100.002 306.975 99.5 307.594 99.5C308.214 99.5 308.716 100.002 308.716 100.622V120.062C308.716 120.681 308.214 121.183 307.594 121.183C306.975 121.183 306.473 120.681 306.473 120.062V100.622Z" fill="#D3D2D2"/>
<path d="M310.868 106.977C310.868 106.358 311.37 105.855 311.99 105.855C312.609 105.855 313.111 106.358 313.111 106.977V113.706C313.111 114.326 312.609 114.828 311.99 114.828C311.37 114.828 310.868 114.326 310.868 113.706V106.977Z" fill="#D3D2D2"/>
<path d="M315.264 106.977C315.264 106.358 315.766 105.855 316.385 105.855C317.005 105.855 317.507 106.358 317.507 106.977V113.706C317.507 114.326 317.005 114.828 316.385 114.828C315.766 114.828 315.264 114.326 315.264 113.706V106.977Z" fill="#D3D2D2"/>
<path d="M319.659 108.098C319.659 107.479 320.161 106.977 320.781 106.977C321.4 106.977 321.902 107.479 321.902 108.098V112.585C321.902 113.204 321.4 113.706 320.781 113.706C320.161 113.706 319.659 113.204 319.659 112.585V108.098Z" fill="#D3D2D2"/>
<path d="M324.055 109.968C324.055 109.348 324.557 108.846 325.176 108.846C325.796 108.846 326.298 109.348 326.298 109.968V110.715C326.298 111.335 325.796 111.837 325.176 111.837C324.557 111.837 324.055 111.335 324.055 110.715V109.968Z" fill="#D3D2D2"/>
<path d="M328.45 110.342C328.45 109.722 328.952 109.22 329.572 109.22C330.191 109.22 330.693 109.722 330.693 110.342C330.693 110.961 330.191 111.463 329.572 111.463C328.952 111.463 328.45 110.961 328.45 110.342Z" fill="#D3D2D2"/>
<path d="M332.846 106.603C332.846 105.984 333.348 105.482 333.967 105.482C334.587 105.482 335.089 105.984 335.089 106.603V114.08C335.089 114.699 334.587 115.202 333.967 115.202C333.348 115.202 332.846 114.699 332.846 114.08V106.603Z" fill="#D3D2D2"/>
<path d="M337.241 105.108C337.241 104.488 337.744 103.986 338.363 103.986C338.982 103.986 339.485 104.488 339.485 105.108V115.575C339.485 116.195 338.982 116.697 338.363 116.697C337.744 116.697 337.241 116.195 337.241 115.575V105.108Z" fill="#D3D2D2"/>
<path d="M341.637 106.977C341.637 106.358 342.139 105.855 342.759 105.855C343.378 105.855 343.88 106.358 343.88 106.977V113.706C343.88 114.326 343.378 114.828 342.759 114.828C342.139 114.828 341.637 114.326 341.637 113.706V106.977Z" fill="#D3D2D2"/>
<path d="M346.033 108.098C346.033 107.479 346.535 106.977 347.154 106.977C347.774 106.977 348.276 107.479 348.276 108.098V112.585C348.276 113.204 347.774 113.706 347.154 113.706C346.535 113.706 346.033 113.204 346.033 112.585V108.098Z" fill="#D3D2D2"/>
<path d="M350.428 104.734C350.428 104.114 350.93 103.612 351.55 103.612C352.169 103.612 352.671 104.114 352.671 104.734V115.949C352.671 116.569 352.169 117.071 351.55 117.071C350.93 117.071 350.428 116.569 350.428 115.949V104.734Z" fill="#D3D2D2"/>
<path d="M354.824 100.622C354.824 100.002 355.326 99.5 355.945 99.5C356.565 99.5 357.067 100.002 357.067 100.622V120.062C357.067 120.681 356.565 121.183 355.945 121.183C355.326 121.183 354.824 120.681 354.824 120.062V100.622Z" fill="#D3D2D2"/>
<path d="M359.219 103.612C359.219 102.993 359.721 102.491 360.341 102.491C360.96 102.491 361.462 102.993 361.462 103.612V117.071C361.462 117.69 360.96 118.192 360.341 118.192C359.721 118.192 359.219 117.69 359.219 117.071V103.612Z" fill="#D3D2D2"/>
<path d="M363.615 105.482C363.615 104.862 364.117 104.36 364.736 104.36C365.356 104.36 365.858 104.862 365.858 105.482V115.202C365.858 115.821 365.356 116.323 364.736 116.323C364.117 116.323 363.615 115.821 363.615 115.202V105.482Z" fill="#D3D2D2"/>
<path d="M368.01 103.612C368.01 102.993 368.512 102.491 369.132 102.491C369.751 102.491 370.253 102.993 370.253 103.612V117.071C370.253 117.69 369.751 118.192 369.132 118.192C368.512 118.192 368.01 117.69 368.01 117.071V103.612Z" fill="#D3D2D2"/>
<path d="M372.406 102.117C372.406 101.498 372.908 100.995 373.527 100.995C374.147 100.995 374.649 101.498 374.649 102.117V118.566C374.649 119.186 374.147 119.688 373.527 119.688C372.908 119.688 372.406 119.186 372.406 118.566V102.117Z" fill="#D3D2D2"/>
<path d="M376.801 103.986C376.801 103.367 377.304 102.865 377.923 102.865C378.542 102.865 379.045 103.367 379.045 103.986V116.697C379.045 117.316 378.542 117.818 377.923 117.818C377.304 117.818 376.801 117.316 376.801 116.697V103.986Z" fill="#D3D2D2"/>
<path d="M381.197 103.238C381.197 102.619 381.699 102.117 382.319 102.117C382.938 102.117 383.44 102.619 383.44 103.238V117.445C383.44 118.064 382.938 118.566 382.319 118.566C381.699 118.566 381.197 118.064 381.197 117.445V103.238Z" fill="#D3D2D2"/>
<path d="M385.593 106.042C385.593 105.423 386.095 104.921 386.714 104.921C387.333 104.921 387.836 105.423 387.836 106.042V114.641C387.836 115.26 387.333 115.762 386.714 115.762C386.095 115.762 385.593 115.26 385.593 114.641V106.042Z" fill="#D3D2D2"/>
<path d="M389.988 108.472C389.988 107.853 390.49 107.351 391.11 107.351C391.729 107.351 392.231 107.853 392.231 108.472V112.211C392.231 112.83 391.729 113.332 391.11 113.332C390.49 113.332 389.988 112.83 389.988 112.211V108.472Z" fill="#D3D2D2"/>
<path d="M394.384 109.968C394.384 109.348 394.886 108.846 395.505 108.846C396.125 108.846 396.627 109.348 396.627 109.968V110.715C396.627 111.335 396.125 111.837 395.505 111.837C394.886 111.837 394.384 111.335 394.384 110.715V109.968Z" fill="#D3D2D2"/>
<path d="M398.779 108.098C398.779 107.479 399.281 106.977 399.901 106.977C400.52 106.977 401.022 107.479 401.022 108.098V112.585C401.022 113.204 400.52 113.706 399.901 113.706C399.281 113.706 398.779 113.204 398.779 112.585V108.098Z" fill="#D3D2D2"/>
<path d="M403.175 109.968C403.175 109.348 403.677 108.846 404.296 108.846C404.916 108.846 405.418 109.348 405.418 109.968V110.715C405.418 111.335 404.916 111.837 404.296 111.837C403.677 111.837 403.175 111.335 403.175 110.715V109.968Z" fill="#D3D2D2"/>
<path d="M407.57 109.968C407.57 109.348 408.072 108.846 408.692 108.846C409.311 108.846 409.813 109.348 409.813 109.968V110.715C409.813 111.335 409.311 111.837 408.692 111.837C408.072 111.837 407.57 111.335 407.57 110.715V109.968Z" fill="#D3D2D2"/>
<path d="M411.966 106.603C411.966 105.984 412.468 105.482 413.087 105.482C413.707 105.482 414.209 105.984 414.209 106.603V114.08C414.209 114.699 413.707 115.202 413.087 115.202C412.468 115.202 411.966 114.699 411.966 114.08V106.603Z" fill="#D3D2D2"/>
<path d="M416.361 108.472C416.361 107.853 416.864 107.351 417.483 107.351C418.102 107.351 418.604 107.853 418.604 108.472V112.211C418.604 112.83 418.102 113.332 417.483 113.332C416.864 113.332 416.361 112.83 416.361 112.211V108.472Z" fill="#D3D2D2"/>
<path d="M420.757 109.968C420.757 109.348 421.259 108.846 421.879 108.846C422.498 108.846 423 109.348 423 109.968V110.715C423 111.335 422.498 111.837 421.879 111.837C421.259 111.837 420.757 111.335 420.757 110.715V109.968Z" fill="#D3D2D2"/>
</g>
<path d="M264 85.7679C265.333 86.5377 265.333 88.4622 264 89.232L252 96.1603C250.667 96.9301 249 95.9678 249 94.4282L249 80.5718C249 79.0322 250.667 78.0699 252 78.8397L264 85.7679Z" fill="#51A1A6"/>
<ellipse cx="331.195" cy="91.6487" rx="16.1948" ry="16.1487" fill="white"/>
<path d="M353.359 79.7246C337.985 79.7246 340.749 96.1046 327.35 113.974L380.55 114.459C367.546 102.536 368.334 79.7246 353.359 79.7246Z" fill="#D3D2D2"/>
<g clip-path="url(#clip5_17660_165098)">
<path d="M333.116 85.5042C333.166 85.4066 333.207 85.3083 333.263 85.2188C333.569 84.7271 334.25 84.5795 334.735 84.8946C334.932 85.0205 335.084 85.2069 335.169 85.4264C335.172 85.4346 335.175 85.4431 335.178 85.4512C335.188 85.4782 335.191 85.5044 335.165 85.5231C335.139 85.5417 335.115 85.5288 335.09 85.5108C335.001 85.4436 334.917 85.3669 334.82 85.3155C334.292 85.0358 333.63 85.2579 333.369 85.797C333.341 85.8537 333.319 85.9131 333.294 85.9735C333.245 85.9481 333.197 85.9202 333.146 85.898C332.599 85.6571 331.988 85.8865 331.731 86.4296C331.677 86.5436 331.645 86.6664 331.634 86.792C331.631 86.8244 331.627 86.8565 331.587 86.8609C331.547 86.8653 331.536 86.8344 331.525 86.8043C331.338 86.2892 331.548 85.7214 332.03 85.4655C332.374 85.2825 332.722 85.2916 333.065 85.4776C333.079 85.4854 333.093 85.4936 333.107 85.5014C333.113 85.5026 333.116 85.5043 333.116 85.5042Z" fill="#4E4C4D"/>
</g>
<g clip-path="url(#clip6_17660_165098)">
<path d="M324.864 91.1119C324.971 91.0595 325.072 91.001 325.179 90.9598C325.769 90.7332 326.46 91.0559 326.676 91.6527C326.765 91.8935 326.775 92.1572 326.704 92.4049C326.701 92.4141 326.699 92.4236 326.696 92.4327C326.687 92.4629 326.673 92.488 326.638 92.487C326.603 92.4861 326.591 92.4591 326.58 92.4265C326.547 92.309 326.524 92.186 326.473 92.0766C326.197 91.4828 325.474 91.2378 324.892 91.5354C324.831 91.5667 324.773 91.604 324.711 91.6399C324.685 91.585 324.661 91.5287 324.631 91.4758C324.313 90.9025 323.63 90.698 323.049 91.0018C322.927 91.066 322.818 91.1515 322.726 91.2543C322.702 91.2806 322.678 91.3062 322.64 91.2834C322.602 91.2606 322.613 91.2262 322.623 91.1928C322.798 90.6186 323.355 90.2621 323.943 90.3577C324.363 90.4262 324.66 90.6649 324.837 91.0548C324.844 91.071 324.851 91.0874 324.858 91.1036C324.862 91.1083 324.864 91.1122 324.864 91.1119Z" fill="#4E4C4D"/>
</g>
<g clip-path="url(#clip7_17660_165098)">
<path d="M332.49 93.9157C332.584 93.7645 332.664 93.6111 332.766 93.4741C333.329 92.7211 334.458 92.5799 335.207 93.1606C335.512 93.3932 335.736 93.7172 335.845 94.0853C335.849 94.0989 335.853 94.1132 335.857 94.1268C335.87 94.1721 335.872 94.215 335.827 94.2415C335.782 94.268 335.745 94.2435 335.706 94.2107C335.57 94.0891 335.443 93.9526 335.291 93.8551C334.468 93.3258 333.36 93.5905 332.864 94.4268C332.812 94.5148 332.769 94.6079 332.719 94.702C332.642 94.6538 332.568 94.6016 332.488 94.5583C331.627 94.089 330.602 94.3729 330.113 95.2163C330.011 95.3935 329.942 95.5877 329.908 95.7899C329.899 95.842 329.889 95.8935 329.823 95.8948C329.757 95.8961 329.743 95.8444 329.729 95.7941C329.49 94.932 329.907 94.0418 330.724 93.6963C331.31 93.4493 331.875 93.5142 332.41 93.8651C332.432 93.8798 332.454 93.8952 332.476 93.9099C332.485 93.9125 332.491 93.9158 332.49 93.9157Z" fill="#4E4C4D"/>
</g>
<path fillRule="evenodd" clipRule="evenodd" d="M380.782 95.7528C379.235 96.4898 377.294 96.9646 375.386 96.6898L375.38 96.6865C374.585 96.5714 373.62 96.447 372.61 96.3913C371.291 96.8507 369.795 97.0869 368.318 96.8743L368.312 96.871C367.257 96.7181 365.901 96.5488 364.538 96.546C363.175 96.5432 361.768 96.5221 360.453 96.1065C359.138 95.6908 357.925 94.7712 357.767 93.7056C357.62 92.7148 358.434 91.8306 359.522 91.4088C360.61 90.987 361.925 90.9532 363.203 91.0294C363.344 91.0379 363.487 91.0476 363.63 91.0574C364.385 91.109 365.152 91.1614 365.86 91.028C366.623 90.8849 367.259 90.5411 367.894 90.1973C368.533 89.8519 369.172 89.5065 369.94 89.3649C371.354 89.1052 372.974 89.6094 374.155 90.4295C374.431 90.3004 374.696 90.1566 374.962 90.0129C375.601 89.6674 376.239 89.322 377.007 89.1804C378.448 88.9158 380.103 89.4441 381.289 90.2916C381.979 90.7839 382.549 91.3949 382.815 92.0736C383.379 93.5401 382.329 95.0158 380.782 95.7528Z" fill="#A7A5A6"/>
<path d="M362.279 95.3555C362.487 94.5417 363.938 94.5417 364.146 95.3555L366.28 103.685C366.402 104.158 365.95 104.602 365.346 104.602H361.079C360.475 104.602 360.023 104.158 360.145 103.685L362.279 95.3555Z" fill="white"/>
<line x1="363.185" y1="98.0308" x2="363.185" y2="105.541" stroke="#4E4C4D" stroke-width="0.419465"/>
<line y1="-0.209732" x2="1.92423" y2="-0.209732" transform="matrix(-0.512749 0.858539 -0.863827 -0.503788 363.961 98.7256)" stroke="#4E4C4D" stroke-width="0.419465"/>
<line y1="-0.209732" x2="1.8182" y2="-0.209732" transform="matrix(-0.684715 -0.728811 0.723081 -0.690763 363.27 101.655)" stroke="#4E4C4D" stroke-width="0.419465"/>
<path d="M335.377 98.5C323.512 98.5 322.299 110.699 315 121.5H357.275C350.28 112.118 346.935 98.5 335.377 98.5Z" fill="#E0E0E0"/>
<path d="M367.38 105.071C354.581 105.071 353.273 113.785 345.4 121.5H391C383.455 114.799 379.846 105.071 367.38 105.071Z" fill="#E9E9E9"/>
<path d="M329.979 111.314C330.187 110.501 331.638 110.501 331.847 111.314L333.98 119.644C334.102 120.117 333.65 120.561 333.046 120.561H328.779C328.175 120.561 327.724 120.117 327.845 119.644L329.979 111.314Z" fill="white"/>
<line x1="330.885" y1="113.99" x2="330.885" y2="121.5" stroke="#4E4C4D" stroke-width="0.419465"/>
<line y1="-0.209732" x2="1.92423" y2="-0.209732" transform="matrix(-0.512749 0.858539 -0.863828 -0.503788 331.662 114.685)" stroke="#4E4C4D" stroke-width="0.419465"/>
<line y1="-0.209732" x2="1.8182" y2="-0.209732" transform="matrix(-0.684715 -0.728811 0.72308 -0.690764 330.97 117.614)" stroke="#4E4C4D" stroke-width="0.419465"/>
<defs>
<filter id="filter0_d_17660_165098" x="74" y="52.5" width="26" height="26" filterUnits="userSpaceOnUse" color-interpolation-filters="sRGB">
<feFlood flood-opacity="0" result="BackgroundImageFix"/>
<feColorMatrix in="SourceAlpha" type="matrix" values="0 0 0 0 0 0 0 0 0 0 0 0 0 0 0 0 0 0 127 0" result="hardAlpha"/>
<feMorphology radius="1" operator="dilate" in="SourceAlpha" result="effect1_dropShadow_17660_165098"/>
<feOffset/>
<feColorMatrix type="matrix" values="0 0 0 0 0.815686 0 0 0 0 0.811765 0 0 0 0 0.839216 0 0 0 1 0"/>
<feBlend mode="normal" in2="BackgroundImageFix" result="effect1_dropShadow_17660_165098"/>
<feBlend mode="normal" in="SourceGraphic" in2="effect1_dropShadow_17660_165098" result="shape"/>
</filter>
<filter id="filter1_d_17660_165098" x="172" y="52.5" width="26" height="26" filterUnits="userSpaceOnUse" color-interpolation-filters="sRGB">
<feFlood flood-opacity="0" result="BackgroundImageFix"/>
<feColorMatrix in="SourceAlpha" type="matrix" values="0 0 0 0 0 0 0 0 0 0 0 0 0 0 0 0 0 0 127 0" result="hardAlpha"/>
<feMorphology radius="1" operator="dilate" in="SourceAlpha" result="effect1_dropShadow_17660_165098"/>
<feOffset/>
<feColorMatrix type="matrix" values="0 0 0 0 0.815686 0 0 0 0 0.811765 0 0 0 0 0.839216 0 0 0 1 0"/>
<feBlend mode="normal" in2="BackgroundImageFix" result="effect1_dropShadow_17660_165098"/>
<feBlend mode="normal" in="SourceGraphic" in2="effect1_dropShadow_17660_165098" result="shape"/>
</filter>
<filter id="filter2_d_17660_165098" x="270" y="52.5" width="26" height="26" filterUnits="userSpaceOnUse" color-interpolation-filters="sRGB">
<feFlood flood-opacity="0" result="BackgroundImageFix"/>
<feColorMatrix in="SourceAlpha" type="matrix" values="0 0 0 0 0 0 0 0 0 0 0 0 0 0 0 0 0 0 127 0" result="hardAlpha"/>
<feMorphology radius="1" operator="dilate" in="SourceAlpha" result="effect1_dropShadow_17660_165098"/>
<feOffset/>
<feColorMatrix type="matrix" values="0 0 0 0 0.815686 0 0 0 0 0.811765 0 0 0 0 0.839216 0 0 0 1 0"/>
<feBlend mode="normal" in2="BackgroundImageFix" result="effect1_dropShadow_17660_165098"/>
<feBlend mode="normal" in="SourceGraphic" in2="effect1_dropShadow_17660_165098" result="shape"/>
</filter>
<filter id="filter3_d_17660_165098" x="368" y="52.5" width="26" height="26" filterUnits="userSpaceOnUse" color-interpolation-filters="sRGB">
<feFlood flood-opacity="0" result="BackgroundImageFix"/>
<feColorMatrix in="SourceAlpha" type="matrix" values="0 0 0 0 0 0 0 0 0 0 0 0 0 0 0 0 0 0 127 0" result="hardAlpha"/>
<feMorphology radius="1" operator="dilate" in="SourceAlpha" result="effect1_dropShadow_17660_165098"/>
<feOffset/>
<feColorMatrix type="matrix" values="0 0 0 0 0.815686 0 0 0 0 0.811765 0 0 0 0 0.839216 0 0 0 1 0"/>
<feBlend mode="normal" in2="BackgroundImageFix" result="effect1_dropShadow_17660_165098"/>
<feBlend mode="normal" in="SourceGraphic" in2="effect1_dropShadow_17660_165098" result="shape"/>
</filter>
<clipPath id="clip0_17660_165098">
<rect width="17.9175" height="8.88283" fill="white" transform="matrix(-0.979522 -0.201337 0.202442 -0.979294 77.8716 93.2559)"/>
</clipPath>
<clipPath id="clip1_17660_165098">
<rect width="17.9175" height="8.88283" fill="white" transform="matrix(-0.979522 -0.201337 0.202442 -0.979294 45.4819 103.888)"/>
</clipPath>
<clipPath id="clip2_17660_165098">
<rect width="6.39678" height="1.89759" fill="white" transform="matrix(0.967115 0.25434 -0.255701 0.966756 25.084 89.1899)"/>
</clipPath>
<clipPath id="clip3_17660_165098">
<rect width="4.32664" height="1.2839" fill="white" transform="matrix(0.937983 -0.346682 0.348425 0.937337 35.0923 87.5)"/>
</clipPath>
<clipPath id="clip4_17660_165098">
<rect width="4.29152" height="1.2726" fill="white" transform="matrix(0.999938 0.0111089 -0.0111725 0.999938 29.3799 84.4639)"/>
</clipPath>
<clipPath id="clip5_17660_165098">
<rect width="3.89486" height="1.16563" fill="white" transform="matrix(0.936709 -0.350109 0.34501 0.938599 331.15 85.7822)"/>
</clipPath>
<clipPath id="clip6_17660_165098">
<rect width="4.25697" height="1.27671" fill="white" transform="matrix(0.957497 0.288442 -0.288614 0.957446 322.968 90.0513)"/>
</clipPath>
<clipPath id="clip7_17660_165098">
<rect width="6.35026" height="1.90225" fill="white" transform="matrix(0.964154 -0.265343 0.269978 0.962866 329.25 94.083)"/>
</clipPath>
</defs>
</svg>
