<svg width="412" height="156" viewBox="0 0 412 156" fill="none" xmlns="http://www.w3.org/2000/svg">
<rect x="90" y="97.959" width="232" height="8" rx="2" fill="#D3D2D2"/>
<rect x="90" y="121.959" width="69" height="8" rx="2" fill="#D3D2D2"/>
<rect x="164" y="121.959" width="136" height="8" rx="2" fill="#51A1A6"/>
<rect x="90" y="73.959" width="132" height="8" rx="2" fill="#51A1A6"/>
<path d="M93.7013 51.5649H91.3552L98.1408 33.0851H100.451L107.236 51.5649H104.89L99.368 36.0086H99.2236L93.7013 51.5649ZM94.5676 44.3462H104.024V46.3314H94.5676V44.3462Z" fill="#4E4C4D"/>
<path d="M90.7056 56.618H107.886V58.3505H90.7056V56.618Z" fill="#4E4C4D"/>
<path d="M137.608 51.5649V33.0851H141.452V40.0331H141.569C141.737 39.6601 141.981 39.2811 142.3 38.8961C142.625 38.5051 143.046 38.1803 143.563 37.9216C144.086 37.6569 144.736 37.5246 145.512 37.5246C146.523 37.5246 147.455 37.7892 148.309 38.3186C149.164 38.842 149.846 39.633 150.358 40.6918C150.869 41.7445 151.125 43.0649 151.125 44.653C151.125 46.199 150.875 47.5044 150.376 48.5692C149.882 49.6279 149.209 50.431 148.354 50.9784C147.506 51.5198 146.556 51.7905 145.503 51.7905C144.757 51.7905 144.123 51.6672 143.599 51.4206C143.082 51.1739 142.658 50.8641 142.327 50.4912C141.996 50.1122 141.743 49.7302 141.569 49.3452H141.397V51.5649H137.608ZM141.37 44.635C141.37 45.4591 141.485 46.178 141.713 46.7916C141.942 47.4052 142.273 47.8834 142.706 48.2263C143.139 48.5632 143.665 48.7316 144.285 48.7316C144.911 48.7316 145.44 48.5602 145.873 48.2173C146.306 47.8684 146.634 47.3871 146.857 46.7735C147.085 46.1539 147.199 45.4411 147.199 44.635C147.199 43.8349 147.088 43.1311 146.866 42.5235C146.643 41.9159 146.315 41.4407 145.882 41.0978C145.449 40.7549 144.917 40.5835 144.285 40.5835C143.659 40.5835 143.13 40.7489 142.697 41.0798C142.27 41.4106 141.942 41.8798 141.713 42.4874C141.485 43.095 141.37 43.8109 141.37 44.635Z" fill="#4E4C4D"/>
<path d="M250.576 51.8537C249.421 51.8537 248.401 51.5619 247.517 50.9784C246.632 50.3889 245.941 49.5587 245.441 48.488C244.942 47.4112 244.692 46.1389 244.692 44.6711C244.692 43.2153 244.942 41.952 245.441 40.8813C245.941 39.8105 246.635 38.9833 247.526 38.3998C248.416 37.8163 249.445 37.5246 250.612 37.5246C251.514 37.5246 252.227 37.675 252.75 37.9757C253.28 38.2705 253.683 38.6074 253.959 38.9864C254.242 39.3593 254.462 39.6661 254.618 39.9067H254.799V33.0851H256.928V51.5649H254.871V49.4354H254.618C254.462 49.6881 254.239 50.0069 253.95 50.3919C253.662 50.7709 253.25 51.1108 252.714 51.4115C252.179 51.7063 251.466 51.8537 250.576 51.8537ZM250.864 49.9407C251.719 49.9407 252.441 49.7182 253.03 49.273C253.62 48.8218 254.068 48.1992 254.375 47.4052C254.681 46.6051 254.835 45.6817 254.835 44.635C254.835 43.6003 254.684 42.695 254.384 41.9189C254.083 41.1369 253.638 40.5293 253.048 40.0962C252.459 39.6571 251.731 39.4375 250.864 39.4375C249.962 39.4375 249.21 39.6691 248.609 40.1323C248.013 40.5895 247.565 41.2121 247.264 42.0002C246.969 42.7822 246.822 43.6605 246.822 44.635C246.822 45.6215 246.972 46.5179 247.273 47.324C247.58 48.124 248.031 48.7617 248.627 49.2369C249.228 49.7061 249.974 49.9407 250.864 49.9407Z" fill="#4E4C4D"/>
<path d="M243.393 43.2454H259.166V44.9779H243.393V43.2454Z" fill="#4E4C4D"/>
<path d="M311.868 36.1642L308.702 34.9999L311.895 33.8357C312.06 33.7839 312.17 33.6028 312.143 33.4476C312.088 33.1112 311.923 32.8007 311.73 32.5161C311.565 32.2057 311.345 31.9469 311.069 31.7141C310.932 31.6106 310.739 31.6106 310.601 31.7141L307.931 33.7322L308.482 30.5498C308.537 30.3687 308.427 30.2135 308.262 30.1617C307.931 30.0323 307.546 29.9806 307.188 30.0065C306.83 29.9806 306.445 30.0323 306.115 30.1617C305.95 30.2135 305.84 30.3946 305.895 30.5498L306.445 33.7322L303.775 31.7141C303.638 31.5847 303.445 31.5847 303.307 31.7141C303.032 31.9211 302.812 32.2057 302.647 32.5161C302.426 32.8007 302.289 33.1112 302.206 33.4476C302.179 33.6287 302.289 33.7839 302.454 33.8357L305.592 34.9999L302.399 36.1642C302.234 36.216 302.124 36.3971 302.151 36.5523C302.206 36.8887 302.344 37.1991 302.564 37.4837C302.729 37.7942 302.949 38.0529 303.225 38.2858C303.362 38.3893 303.555 38.3893 303.693 38.2858L306.363 36.2677L305.812 39.4501C305.757 39.6312 305.867 39.7864 306.032 39.864C306.39 39.9675 306.748 40.0193 307.106 39.9934C307.464 40.0193 307.849 39.9675 308.179 39.864C308.344 39.8123 308.454 39.6312 308.399 39.4501L307.849 36.2677L310.519 38.2858C310.656 38.3893 310.849 38.3893 311.014 38.2858C311.289 38.0788 311.51 37.8201 311.675 37.5096C311.895 37.225 312.033 36.9145 312.115 36.5782C312.143 36.3712 312.06 36.216 311.868 36.1642Z" fill="#51A1A6"/>
<path d="M294.987 51.8537C293.652 51.8537 292.5 51.5589 291.531 50.9694C290.569 50.3739 289.826 49.5437 289.302 48.4789C288.785 47.4082 288.526 46.1629 288.526 44.7433C288.526 43.3236 288.785 42.0723 289.302 40.9895C289.826 39.9007 290.554 39.0525 291.486 38.4449C292.425 37.8314 293.519 37.5246 294.771 37.5246C295.492 37.5246 296.205 37.6449 296.909 37.8855C297.613 38.1261 298.254 38.5171 298.831 39.0585C299.409 39.5939 299.869 40.3038 300.212 41.1881C300.555 42.0723 300.726 43.1612 300.726 44.4545V45.3569H290.042V43.5161H298.56C298.56 42.7341 298.404 42.0363 298.091 41.4227C297.784 40.8091 297.345 40.3248 296.774 39.9699C296.208 39.615 295.541 39.4375 294.771 39.4375C293.922 39.4375 293.188 39.6481 292.569 40.0692C291.955 40.4842 291.483 41.0256 291.152 41.6934C290.821 42.3611 290.656 43.0769 290.656 43.8409V45.0681C290.656 46.1148 290.836 47.0021 291.197 47.73C291.564 48.4519 292.073 49.0023 292.722 49.3813C293.372 49.7543 294.127 49.9407 294.987 49.9407C295.547 49.9407 296.052 49.8625 296.503 49.7061C296.96 49.5437 297.354 49.3031 297.685 48.9843C298.016 48.6594 298.272 48.2564 298.452 47.7751L300.509 48.3526C300.293 49.0504 299.929 49.664 299.418 50.1934C298.906 50.7167 298.275 51.1258 297.523 51.4206C296.771 51.7093 295.926 51.8537 294.987 51.8537Z" fill="#51A1A6"/>
<rect x="183.706" y="33.959" width="29" height="21" rx="1.01639" fill="#DFECED"/>
<path d="M197.253 51.8447C195.905 51.8447 194.801 51.5409 193.941 50.9333C193.081 50.3197 192.482 49.4745 192.145 48.3977C191.809 47.3209 191.754 46.0877 191.983 44.6981C192.212 43.2905 192.678 42.0483 193.382 40.9715C194.092 39.8887 194.979 39.0435 196.044 38.4359C197.114 37.8284 198.302 37.5246 199.608 37.5246C200.661 37.5246 201.566 37.7201 202.324 38.1111C203.082 38.4961 203.656 39.0375 204.047 39.7353C204.438 40.4331 204.607 41.2482 204.553 42.1806H201.927C201.885 41.5309 201.644 40.9715 201.205 40.5023C200.766 40.0331 200.119 39.7985 199.265 39.7985C198.513 39.7985 197.821 39.997 197.19 40.394C196.558 40.785 196.026 41.3445 195.592 42.0723C195.159 42.7942 194.865 43.6484 194.708 44.635C194.54 45.6456 194.549 46.5179 194.735 47.2518C194.922 47.9857 195.265 48.5541 195.764 48.9572C196.263 49.3602 196.892 49.5618 197.65 49.5618C198.167 49.5618 198.648 49.4685 199.094 49.282C199.545 49.0895 199.942 48.8158 200.285 48.4609C200.633 48.106 200.904 47.6789 201.097 47.1796H203.732C203.473 48.0759 203.04 48.876 202.432 49.5798C201.831 50.2836 201.091 50.8371 200.212 51.2401C199.334 51.6431 198.348 51.8447 197.253 51.8447Z" fill="#4E4C4D"/>
</svg>
