<svg width="412" height="155" viewBox="0 0 412 155" fill="none" xmlns="http://www.w3.org/2000/svg">
<g clip-path="url(#clip0_17652_146232)">
<path d="M123.582 50.7775C128.087 51.4266 132.67 50.3051 136.322 48.5643C139.973 46.8235 142.455 43.3377 141.122 39.8738C140.494 38.2705 139.147 36.8274 137.52 35.6646C134.719 33.6628 130.812 32.4149 127.41 33.0399C123.793 33.7071 121.391 36.2904 117.778 36.9682C115.789 37.3428 113.608 37.0972 111.505 36.9716C108.488 36.7916 105.383 36.8713 102.814 37.8677C100.246 38.8641 98.3242 40.9526 98.6715 43.2929C99.0433 45.8099 101.908 47.9822 105.013 48.9639C108.118 49.9457 111.438 49.9955 114.656 50.0022C117.874 50.0088 121.076 50.4086 123.568 50.7697" fill="#A7A5A6"/>
</g>
<ellipse cx="43.43" cy="52.2654" rx="37.93" ry="38.2654" fill="#F7F7F7"/>
<path d="M97.4372 27.9131L152.184 123.577H42.6899L97.4372 27.9131Z" fill="#D3D2D2"/>
<path d="M143.172 54.0537L182.915 123.498H103.43L143.172 54.0537Z" fill="#E9E9E9"/>
<ellipse cx="148.479" cy="97.317" rx="5.30708" ry="13.3438" fill="white"/>
<line x1="148.31" y1="96.6582" x2="148.31" y2="123.511" stroke="#4E4C4D" stroke-width="0.805384"/>
<line y1="-0.402692" x2="4.23885" y2="-0.402692" transform="matrix(-0.577849 0.816143 -0.811302 -0.584627 150.357 97.811)" stroke="#4E4C4D" stroke-width="0.805384"/>
<line y1="-0.402692" x2="4.29379" y2="-0.402692" transform="matrix(-0.684549 -0.728967 0.722923 -0.690928 148.724 104.73)" stroke="#4E4C4D" stroke-width="0.805384"/>
<ellipse cx="129.124" cy="108.223" rx="5.30708" ry="8.81836" fill="white"/>
<line x1="128.902" y1="104.443" x2="128.902" y2="123.654" stroke="#4E4C4D" stroke-width="0.805384"/>
<line y1="-0.402692" x2="4.23885" y2="-0.402692" transform="matrix(-0.577849 0.816143 -0.811302 -0.584627 131.002 105.684)" stroke="#4E4C4D" stroke-width="0.805384"/>
<line y1="-0.402692" x2="4.29379" y2="-0.402692" transform="matrix(-0.684546 -0.728969 0.722921 -0.690931 129.369 112.603)" stroke="#4E4C4D" stroke-width="0.805384"/>
<path fillRule="evenodd" clipRule="evenodd" d="M86.0425 46.962L97.5163 26.9131L108.99 46.9618C106.162 50.1222 102.069 52.1085 97.5161 52.1085C92.9634 52.1085 88.8705 50.1223 86.0425 46.962Z" fill="#E9E9E9"/>
<path fillRule="evenodd" clipRule="evenodd" d="M131.621 73.1026L143.095 53.0537L154.569 73.1024C151.74 76.2629 147.648 78.2492 143.095 78.2492C138.542 78.2492 134.449 76.263 131.621 73.1026Z" fill="#D3D2D2"/>
<g clip-path="url(#clip1_17652_146232)">
<path d="M47.7222 75.9733C52.2273 76.6224 56.8105 75.5009 60.4621 73.7601C64.1136 72.0193 66.5948 68.5335 65.2626 65.0696C64.634 63.4663 63.2873 62.0232 61.6603 60.8604C58.8595 58.8586 54.9517 57.6107 51.5505 58.2357C47.9335 58.9029 45.5314 61.4862 41.9186 62.164C39.9296 62.5386 37.7486 62.293 35.645 62.1674C32.6282 61.9874 29.5233 62.0671 26.9546 63.0635C24.3859 64.0599 22.4643 66.1484 22.8117 68.4887C23.1835 71.0057 26.0482 73.178 29.153 74.1597C32.2578 75.1415 35.5785 75.1913 38.7964 75.198C42.0144 75.2046 45.2158 75.6044 47.7079 75.9655" fill="#A7A5A6"/>
</g>
<path d="M51.3904 54.0537L91.1329 123.498H11.6479L51.3904 54.0537Z" fill="#E9E9E9"/>
<ellipse cx="42.3378" cy="97.317" rx="5.30708" ry="13.3438" fill="white"/>
<line x1="42.1688" y1="96.6582" x2="42.1688" y2="123.511" stroke="#4E4C4D" stroke-width="0.805384"/>
<line y1="-0.402692" x2="4.23886" y2="-0.402692" transform="matrix(-0.57785 0.816143 -0.811303 -0.584626 44.2153 97.811)" stroke="#4E4C4D" stroke-width="0.805384"/>
<line y1="-0.402692" x2="4.29379" y2="-0.402692" transform="matrix(-0.684548 -0.728967 0.722923 -0.690929 42.5825 104.73)" stroke="#4E4C4D" stroke-width="0.805384"/>
<path fillRule="evenodd" clipRule="evenodd" d="M39.8398 73.1026L51.3136 53.0537L62.7873 73.1024C59.9592 76.2629 55.8663 78.2492 51.3135 78.2492C46.7608 78.2492 42.6679 76.263 39.8398 73.1026Z" fill="#D3D2D2"/>
<g clip-path="url(#clip2_17652_146232)">
<path d="M21.869 49.9574C22.2399 49.7606 22.5861 49.5432 22.958 49.3857C25.0024 48.5199 27.4725 49.5766 28.3079 51.6536C28.653 52.4913 28.7226 53.4186 28.5067 54.2993C28.4982 54.3317 28.4894 54.3655 28.4809 54.398C28.4528 54.5053 28.406 54.5955 28.283 54.5961C28.16 54.5967 28.1142 54.503 28.0737 54.3895C27.9414 53.9796 27.844 53.5491 27.651 53.1698C26.6045 51.1104 24.0304 50.3306 22.0227 51.4456C21.8116 51.563 21.6119 51.7011 21.3994 51.8344C21.2995 51.6442 21.2094 51.4488 21.0986 51.2656C19.9041 49.2837 17.4765 48.642 15.4723 49.7785C15.0537 50.0187 14.6811 50.3324 14.372 50.7049C14.2915 50.8004 14.209 50.8932 14.0729 50.8173C13.9369 50.7415 13.9696 50.6191 14.0014 50.5C14.543 48.458 16.4532 47.1385 18.5316 47.4074C20.019 47.6006 21.0947 48.4068 21.7669 49.7595C21.7944 49.8157 21.8202 49.8728 21.8476 49.929C21.8624 49.945 21.8701 49.9584 21.869 49.9574Z" fill="#4E4C4D"/>
</g>
<g clip-path="url(#clip3_17652_146232)">
<path d="M43.6273 41.7114C43.7566 41.4569 43.8643 41.2007 44.0094 40.9676C44.8068 39.6859 46.5813 39.3011 47.8447 40.1225C48.3587 40.4506 48.7549 40.9364 48.9751 41.5086C48.9829 41.5298 48.991 41.552 48.9989 41.5733C49.0247 41.6437 49.0336 41.712 48.9658 41.7606C48.8979 41.8092 48.8365 41.7754 48.7703 41.7285C48.5389 41.5535 48.319 41.3536 48.0659 41.2194C46.6925 40.4906 44.9673 41.0695 44.2863 42.4746C44.2147 42.6224 44.1575 42.7773 44.0913 42.9345C43.9627 42.8684 43.8375 42.7956 43.7055 42.7377C42.2801 42.1099 40.6892 42.7078 40.0184 44.1234C39.8795 44.4206 39.7943 44.7405 39.7669 45.068C39.7592 45.1524 39.7493 45.2362 39.6447 45.2476C39.5402 45.259 39.5111 45.1785 39.4828 45.1001C38.9949 43.7574 39.543 42.2774 40.7969 41.6104C41.6945 41.1334 42.6007 41.1573 43.4945 41.642C43.5313 41.6623 43.5676 41.6838 43.6045 41.7041C43.6188 41.7071 43.6283 41.7115 43.6273 41.7114Z" fill="#4E4C4D"/>
</g>
<g clip-path="url(#clip4_17652_146232)">
<path d="M30.1228 36.404C30.3322 36.2147 30.522 36.016 30.7383 35.8521C31.9275 34.9511 33.7058 35.2302 34.5865 36.4431C34.947 36.931 35.1428 37.5226 35.1454 38.1311C35.1451 38.1537 35.1449 38.1771 35.1446 38.1996C35.1438 38.274 35.128 38.3405 35.0481 38.3612C34.9682 38.3819 34.9232 38.3285 34.8784 38.2614C34.7258 38.0166 34.5925 37.7527 34.4054 37.5379C33.3903 36.3713 31.5893 36.2895 30.4645 37.3465C30.3462 37.4578 30.2387 37.5807 30.1222 37.7025C30.0263 37.5953 29.936 37.4831 29.8342 37.3822C28.7353 36.2905 27.0521 36.2743 25.933 37.3448C25.6998 37.5702 25.5084 37.8359 25.3678 38.1292C25.331 38.2046 25.2923 38.2786 25.1915 38.2518C25.0907 38.2249 25.0921 38.1399 25.0935 38.0572C25.1141 36.6394 26.1423 35.4655 27.5379 35.2969C28.5368 35.1767 29.3674 35.5233 30.0243 36.2921C30.0513 36.3241 30.0773 36.357 30.1043 36.389C30.1165 36.397 30.1237 36.4044 30.1228 36.404Z" fill="#4E4C4D"/>
</g>
<path d="M230.463 66.7474C231.813 67.5266 231.813 69.4744 230.463 70.2535L199.036 88.3981C197.686 89.1772 196 88.2033 196 86.645L196 50.356C196 48.7977 197.686 47.8238 199.036 48.6029L230.463 66.7474Z" fill="#51A1A6"/>
<path d="M320.817 25.2349C285.821 25.2348 292.112 62.98 261.612 104.157L382.712 105.276C353.11 77.8001 354.904 25.2349 320.817 25.2349Z" fill="#D3D2D2"/>
<g clip-path="url(#clip5_17652_146232)">
<path d="M274.738 38.5532C274.851 38.3282 274.945 38.1017 275.072 37.8956C275.768 36.7625 277.319 36.4223 278.423 37.1485C278.872 37.4386 279.218 37.8681 279.41 38.3739C279.417 38.3927 279.424 38.4123 279.431 38.4311C279.454 38.4933 279.461 38.5537 279.402 38.5967C279.343 38.6397 279.289 38.6098 279.231 38.5683C279.029 38.4136 278.837 38.2369 278.616 38.1182C277.416 37.4739 275.908 37.9857 275.314 39.2279C275.251 39.3586 275.201 39.4955 275.143 39.6345C275.031 39.5761 274.921 39.5118 274.806 39.4606C273.561 38.9055 272.171 39.4341 271.585 40.6856C271.463 40.9484 271.389 41.2312 271.365 41.5207C271.358 41.5953 271.349 41.6694 271.258 41.6795C271.167 41.6896 271.141 41.6184 271.116 41.5491C270.69 40.3621 271.169 39.0536 272.265 38.4639C273.049 38.0422 273.841 38.0633 274.622 38.4918C274.654 38.5098 274.686 38.5288 274.718 38.5468C274.73 38.5494 274.739 38.5533 274.738 38.5532Z" fill="#4E4C4D"/>
</g>
<g clip-path="url(#clip6_17652_146232)">
<path d="M255.954 51.4749C256.198 51.3542 256.427 51.2195 256.672 51.1245C258.014 50.6024 259.587 51.3459 260.077 52.7212C260.281 53.2761 260.303 53.8836 260.143 54.4546C260.136 54.4756 260.13 54.4975 260.124 54.5185C260.103 54.5881 260.071 54.6461 259.991 54.6438C259.911 54.6415 259.884 54.5793 259.861 54.5043C259.785 54.2335 259.732 53.9501 259.616 53.6981C258.989 52.3297 257.343 51.765 256.018 52.4508C255.878 52.523 255.746 52.609 255.605 52.6916C255.545 52.5652 255.492 52.4355 255.424 52.3134C254.699 50.9925 253.144 50.5212 251.821 51.2212C251.545 51.3692 251.296 51.5663 251.087 51.8031C251.033 51.8638 250.978 51.9227 250.891 51.8702C250.805 51.8177 250.829 51.7384 250.853 51.6613C251.252 50.3382 252.519 49.5167 253.856 49.7369C254.814 49.895 255.49 50.4449 255.892 51.3434C255.909 51.3807 255.924 51.4186 255.941 51.4559C255.95 51.4666 255.954 51.4755 255.954 51.4749Z" fill="#4E4C4D"/>
</g>
<g clip-path="url(#clip7_17652_146232)">
<path d="M273.313 57.9366C273.526 57.5884 273.708 57.2349 273.941 56.9192C275.222 55.1839 277.792 54.8585 279.498 56.1968C280.193 56.7326 280.702 57.4794 280.951 58.3275C280.96 58.359 280.969 58.3918 280.977 58.4233C281.006 58.5275 281.011 58.6265 280.909 58.6875C280.807 58.7485 280.723 58.6922 280.634 58.6165C280.325 58.3363 280.034 58.0217 279.689 57.7972C277.816 56.5775 275.294 57.1873 274.165 59.1145C274.046 59.3172 273.947 59.5319 273.835 59.7487C273.66 59.6377 273.49 59.5174 273.308 59.4176C271.35 58.3361 269.016 58.9902 267.901 60.9337C267.67 61.342 267.512 61.7896 267.436 62.2555C267.415 62.3755 267.392 62.4943 267.242 62.4973C267.092 62.5004 267.059 62.3812 267.028 62.2653C266.485 60.2787 267.433 58.2274 269.294 57.4311C270.626 56.8619 271.914 57.0116 273.132 57.8202C273.182 57.854 273.231 57.8894 273.281 57.9233C273.301 57.9294 273.314 57.9369 273.313 57.9366Z" fill="#4E4C4D"/>
</g>
<path fillRule="evenodd" clipRule="evenodd" d="M383.24 62.1708C379.72 63.8691 375.301 64.9632 370.957 64.3299L370.943 64.3223C369.134 64.057 366.936 63.7702 364.636 63.6421C361.636 64.7002 358.229 65.2445 354.868 64.7545L354.855 64.7469C352.452 64.3946 349.365 64.0046 346.263 63.9981C343.16 63.9916 339.959 63.943 336.965 62.9852C333.972 62.0275 331.21 59.9083 330.851 57.4528C330.516 55.1697 332.369 53.1322 334.846 52.1602C337.322 51.1881 340.316 51.1104 343.224 51.286C343.547 51.3055 343.871 51.3279 344.196 51.3504C345.916 51.4694 347.66 51.59 349.273 51.2826C351.01 50.9528 352.457 50.1606 353.904 49.3685C355.358 48.5725 356.811 47.7766 358.559 47.4503C361.778 46.8518 365.468 48.0138 368.157 49.9038C368.783 49.6064 369.388 49.2752 369.993 48.944C371.447 48.1479 372.9 47.352 374.648 47.0258C377.927 46.416 381.695 47.6334 384.395 49.5863C385.964 50.7208 387.263 52.1286 387.869 53.6927C389.153 57.072 386.761 60.4725 383.24 62.1708Z" fill="#A7A5A6"/>
<path d="M341.121 61.2537C341.595 59.3783 344.898 59.3783 345.373 61.2537L350.23 80.4469C350.506 81.5388 349.478 82.5615 348.104 82.5615H338.39C337.016 82.5615 335.988 81.5388 336.264 80.4469L341.121 61.2537Z" fill="white"/>
<line x1="343.142" y1="67.4189" x2="343.142" y2="84.7251" stroke="#4E4C4D" stroke-width="0.872269"/>
<line y1="-0.436134" x2="4.41998" y2="-0.436134" transform="matrix(-0.508129 0.861281 -0.861124 -0.508395 344.952 69.02)" stroke="#4E4C4D" stroke-width="0.872269"/>
<line y1="-0.436134" x2="4.16596" y2="-0.436134" transform="matrix(-0.680253 -0.732977 0.718844 -0.695172 343.377 75.77)" stroke="#4E4C4D" stroke-width="0.872269"/>
<path d="M278.72 69C250.934 69 248.094 97.6419 231 123H330C313.619 100.973 305.785 69 278.72 69Z" fill="#E0E0E0"/>
<path d="M351.058 84C320.746 84 317.647 104.686 299 123H407C389.13 107.092 380.583 84 351.058 84Z" fill="#E9E9E9"/>
<path d="M267.596 100.029C268.071 98.1537 271.373 98.1537 271.848 100.029L276.705 119.222C276.981 120.314 275.953 121.337 274.579 121.337H264.865C263.491 121.337 262.463 120.314 262.739 119.222L267.596 100.029Z" fill="white"/>
<line x1="269.617" y1="106.194" x2="269.617" y2="123.5" stroke="#4E4C4D" stroke-width="0.872269"/>
<line y1="-0.436134" x2="4.41997" y2="-0.436134" transform="matrix(-0.508129 0.861281 -0.861124 -0.508395 271.427 107.795)" stroke="#4E4C4D" stroke-width="0.872269"/>
<line y1="-0.436134" x2="4.16595" y2="-0.436134" transform="matrix(-0.680254 -0.732977 0.718844 -0.695171 269.853 114.545)" stroke="#4E4C4D" stroke-width="0.872269"/>
<path d="M0 123H412V155H0V123Z" fill="#4E4C4D"/>
<path d="M30.5411 138.446C30.9673 138.692 30.9673 139.308 30.5411 139.554L23.4589 143.643C23.0327 143.889 22.5 143.581 22.5 143.089L22.5 134.911C22.5 134.419 23.0327 134.111 23.4589 134.357L30.5411 138.446Z" fill="white"/>
<line x1="47.5" y1="138.041" x2="329.5" y2="138.041" stroke="#F9FAFB" stroke-width="1.91772"/>
<path d="M348.408 142.109C347.903 142.107 347.472 141.973 347.114 141.709C346.756 141.445 346.482 141.06 346.293 140.555C346.103 140.05 346.008 139.442 346.008 138.73C346.008 138.021 346.103 137.415 346.293 136.912C346.484 136.409 346.759 136.026 347.117 135.761C347.477 135.497 347.908 135.365 348.408 135.365C348.909 135.365 349.338 135.498 349.696 135.765C350.054 136.029 350.328 136.412 350.518 136.915C350.71 137.416 350.805 138.021 350.805 138.73C350.805 139.444 350.711 140.054 350.521 140.559C350.331 141.061 350.058 141.446 349.7 141.712C349.342 141.977 348.911 142.109 348.408 142.109ZM348.408 141.255C348.852 141.255 349.198 141.039 349.447 140.607C349.699 140.174 349.824 139.549 349.824 138.73C349.824 138.187 349.767 137.728 349.652 137.353C349.539 136.976 349.376 136.69 349.163 136.496C348.952 136.3 348.7 136.202 348.408 136.202C347.967 136.202 347.621 136.42 347.37 136.854C347.118 137.289 346.991 137.914 346.989 138.73C346.989 139.276 347.046 139.737 347.159 140.114C347.274 140.489 347.437 140.774 347.648 140.968C347.859 141.159 348.112 141.255 348.408 141.255ZM352.582 141.188C352.407 141.188 352.257 141.126 352.131 141.003C352.005 140.877 351.942 140.726 351.942 140.549C351.942 140.374 352.005 140.225 352.131 140.102C352.257 139.976 352.407 139.913 352.582 139.913C352.756 139.913 352.907 139.976 353.032 140.102C353.158 140.225 353.221 140.374 353.221 140.549C353.221 140.666 353.191 140.774 353.131 140.872C353.074 140.968 352.997 141.044 352.901 141.102C352.805 141.159 352.699 141.188 352.582 141.188ZM352.582 137.909C352.407 137.909 352.257 137.847 352.131 137.724C352.005 137.598 351.942 137.447 351.942 137.27C351.942 137.095 352.005 136.946 352.131 136.822C352.257 136.697 352.407 136.634 352.582 136.634C352.756 136.634 352.907 136.697 353.032 136.822C353.158 136.946 353.221 137.095 353.221 137.27C353.221 137.387 353.191 137.495 353.131 137.593C353.074 137.689 352.997 137.765 352.901 137.823C352.805 137.88 352.699 137.909 352.582 137.909ZM356.767 142.109C356.262 142.107 355.83 141.973 355.472 141.709C355.114 141.445 354.841 141.06 354.651 140.555C354.461 140.05 354.367 139.442 354.367 138.73C354.367 138.021 354.461 137.415 354.651 136.912C354.843 136.409 355.118 136.026 355.476 135.761C355.836 135.497 356.266 135.365 356.767 135.365C357.267 135.365 357.697 135.498 358.055 135.765C358.413 136.029 358.687 136.412 358.876 136.915C359.068 137.416 359.164 138.021 359.164 138.73C359.164 139.444 359.069 140.054 358.879 140.559C358.69 141.061 358.416 141.446 358.058 141.712C357.7 141.977 357.27 142.109 356.767 142.109ZM356.767 141.255C357.21 141.255 357.556 141.039 357.805 140.607C358.057 140.174 358.183 139.549 358.183 138.73C358.183 138.187 358.125 137.728 358.01 137.353C357.897 136.976 357.734 136.69 357.521 136.496C357.31 136.3 357.059 136.202 356.767 136.202C356.326 136.202 355.979 136.42 355.728 136.854C355.477 137.289 355.35 137.914 355.348 138.73C355.348 139.276 355.404 139.737 355.517 140.114C355.632 140.489 355.795 140.774 356.006 140.968C356.217 141.159 356.471 141.255 356.767 141.255ZM362.576 142.109C362.071 142.107 361.64 141.973 361.282 141.709C360.924 141.445 360.65 141.06 360.461 140.555C360.271 140.05 360.176 139.442 360.176 138.73C360.176 138.021 360.271 137.415 360.461 136.912C360.652 136.409 360.927 136.026 361.285 135.761C361.645 135.497 362.076 135.365 362.576 135.365C363.077 135.365 363.506 135.498 363.864 135.765C364.222 136.029 364.496 136.412 364.686 136.915C364.877 137.416 364.973 138.021 364.973 138.73C364.973 139.444 364.879 140.054 364.689 140.559C364.499 141.061 364.225 141.446 363.868 141.712C363.51 141.977 363.079 142.109 362.576 142.109ZM362.576 141.255C363.02 141.255 363.366 141.039 363.615 140.607C363.866 140.174 363.992 139.549 363.992 138.73C363.992 138.187 363.935 137.728 363.82 137.353C363.707 136.976 363.544 136.69 363.331 136.496C363.12 136.3 362.868 136.202 362.576 136.202C362.135 136.202 361.789 136.42 361.538 136.854C361.286 137.289 361.159 137.914 361.157 138.73C361.157 139.276 361.214 139.737 361.327 140.114C361.442 140.489 361.605 140.774 361.816 140.968C362.027 141.159 362.28 141.255 362.576 141.255ZM370.995 135.148L368.885 142.984H368.032L370.141 135.148H370.995ZM376.454 142.109C375.949 142.107 375.518 141.973 375.16 141.709C374.802 141.445 374.528 141.06 374.339 140.555C374.149 140.05 374.054 139.442 374.054 138.73C374.054 138.021 374.149 137.415 374.339 136.912C374.53 136.409 374.805 136.026 375.163 135.761C375.523 135.497 375.954 135.365 376.454 135.365C376.955 135.365 377.384 135.498 377.742 135.765C378.1 136.029 378.374 136.412 378.564 136.915C378.755 137.416 378.851 138.021 378.851 138.73C378.851 139.444 378.756 140.054 378.567 140.559C378.377 141.061 378.103 141.446 377.745 141.712C377.388 141.977 376.957 142.109 376.454 142.109ZM376.454 141.255C376.897 141.255 377.244 141.039 377.493 140.607C377.744 140.174 377.87 139.549 377.87 138.73C377.87 138.187 377.813 137.728 377.698 137.353C377.585 136.976 377.422 136.69 377.209 136.496C376.998 136.3 376.746 136.202 376.454 136.202C376.013 136.202 375.667 136.42 375.416 136.854C375.164 137.289 375.037 137.914 375.035 138.73C375.035 139.276 375.092 139.737 375.205 140.114C375.32 140.489 375.483 140.774 375.694 140.968C375.905 141.159 376.158 141.255 376.454 141.255ZM380.627 141.188C380.453 141.188 380.303 141.126 380.177 141.003C380.051 140.877 379.988 140.726 379.988 140.549C379.988 140.374 380.051 140.225 380.177 140.102C380.303 139.976 380.453 139.913 380.627 139.913C380.802 139.913 380.952 139.976 381.078 140.102C381.204 140.225 381.267 140.374 381.267 140.549C381.267 140.666 381.237 140.774 381.177 140.872C381.12 140.968 381.043 141.044 380.947 141.102C380.851 141.159 380.745 141.188 380.627 141.188ZM380.627 137.909C380.453 137.909 380.303 137.847 380.177 137.724C380.051 137.598 379.988 137.447 379.988 137.27C379.988 137.095 380.051 136.946 380.177 136.822C380.303 136.697 380.453 136.634 380.627 136.634C380.802 136.634 380.952 136.697 381.078 136.822C381.204 136.946 381.267 137.095 381.267 137.27C381.267 137.387 381.237 137.495 381.177 137.593C381.12 137.689 381.043 137.765 380.947 137.823C380.851 137.88 380.745 137.909 380.627 137.909ZM385.017 135.455V142H384.026V136.445H383.988L382.422 137.468V136.522L384.055 135.455H385.017ZM388.948 142.089C388.548 142.089 388.188 142.013 387.868 141.859C387.551 141.704 387.297 141.491 387.107 141.22C386.918 140.95 386.817 140.641 386.804 140.293H387.763C387.786 140.575 387.911 140.806 388.137 140.987C388.362 141.168 388.633 141.259 388.948 141.259C389.2 141.259 389.422 141.201 389.616 141.086C389.812 140.969 389.966 140.808 390.077 140.603C390.189 140.399 390.246 140.165 390.246 139.903C390.246 139.637 390.188 139.4 390.073 139.191C389.958 138.982 389.8 138.818 389.597 138.699C389.397 138.579 389.167 138.518 388.907 138.516C388.709 138.516 388.509 138.55 388.309 138.619C388.109 138.687 387.947 138.776 387.823 138.887L386.919 138.753L387.286 135.455H390.885V136.301H388.108L387.9 138.133H387.938C388.066 138.009 388.236 137.906 388.447 137.823C388.66 137.74 388.888 137.698 389.131 137.698C389.529 137.698 389.884 137.793 390.195 137.983C390.508 138.172 390.754 138.431 390.933 138.759C391.114 139.085 391.204 139.46 391.202 139.884C391.204 140.308 391.108 140.686 390.914 141.019C390.722 141.351 390.456 141.613 390.115 141.805C389.776 141.995 389.387 142.089 388.948 142.089Z" fill="#F8F8F8"/>
<defs>
<clipPath id="clip0_17652_146232">
<rect width="41.9848" height="21.0385" fill="white" transform="matrix(-0.979054 -0.2036 0.20019 -0.979757 138.699 56.0732)"/>
</clipPath>
<clipPath id="clip1_17652_146232">
<rect width="41.9848" height="21.0385" fill="white" transform="matrix(-0.979054 -0.2036 0.20019 -0.979757 62.8389 81.2681)"/>
</clipPath>
<clipPath id="clip2_17652_146232">
<rect width="14.9933" height="4.49308" fill="white" transform="matrix(0.966378 0.257126 -0.252928 0.967485 15.0654 46.4395)"/>
</clipPath>
<clipPath id="clip3_17652_146232">
<rect width="10.1478" height="3.03802" fill="white" transform="matrix(0.936656 -0.35025 0.34487 0.93865 38.5059 42.4355)"/>
</clipPath>
<clipPath id="clip4_17652_146232">
<rect width="10.0512" height="3.01551" fill="white" transform="matrix(0.999937 0.0112391 -0.011043 0.999939 25.127 35.2407)"/>
</clipPath>
<clipPath id="clip5_17652_146232">
<rect width="8.8794" height="2.68214" fill="white" transform="matrix(0.93529 -0.353883 0.341305 0.939953 270.262 39.1934)"/>
</clipPath>
<clipPath id="clip6_17652_146232">
<rect width="9.70019" height="2.93902" fill="white" transform="matrix(0.956512 0.291693 -0.285391 0.958411 251.638 49.0308)"/>
</clipPath>
<clipPath id="clip7_17652_146232">
<rect width="14.4678" height="4.37958" fill="white" transform="matrix(0.963314 -0.268377 0.266929 0.963716 265.938 58.3218)"/>
</clipPath>
</defs>
</svg>
